<?xml version="1.0" encoding="utf-8"?>
<!-- Generator: Adobe Illustrator 24.1.2, SVG Export Plug-In . SVG Version: 6.00 Build 0)  -->
<svg version="1.1" id="Слой_1" xmlns="http://www.w3.org/2000/svg" xmlns:xlink="http://www.w3.org/1999/xlink" x="0px" y="0px"
	 viewBox="0 0 586.2 511.6" style="enable-background:new 0 0 586.2 511.6;" xml:space="preserve">
<style type="text/css">
	.st0{fill:#FFFFFF;}
</style>
<path class="st0" d="M202.5,42.6h-74.6c-5.9,0-10.7,4.8-10.7,10.7l0,0v127.8h21.3V63.9h53.3v149.2c0-0.3-0.1-0.5-0.1-0.8v64.8h10.7
	c5.9,0,10.7-4.8,10.7-10.7V53.3C213.2,47.4,208.4,42.6,202.5,42.6L202.5,42.6z"/>
<path class="st0" d="M554.2,0H106.6c-17.7,0-32,14.3-32,32v149.2H32c-17.7,0-32,14.3-32,32v266.4c0,17.7,14.3,32,32,32h127.9
	c17.7,0,32-14.3,32-32v-63.9h74.6v29L236,495.4c-3,5-1.4,11.6,3.6,14.6c1.7,1,3.6,1.5,5.5,1.5h170.5c5.9,0,10.7-4.8,10.7-10.7
	c0-1.9-0.5-3.8-1.5-5.5l-30.4-50.8v-29h159.9c17.7,0,32-14.3,32-32V32C586.2,14.3,571.9,0,554.2,0z M170.5,479.6
	c0,5.9-4.8,10.7-10.6,10.7c0,0,0,0,0,0H32c-5.9,0-10.7-4.8-10.7-10.6c0,0,0,0,0,0v-32h149.2V479.6z M170.5,426.3H21.3V245.1h149.2
	V426.3z M170.5,223.8H21.3v-10.6c0-5.9,4.8-10.7,10.7-10.7l0,0h127.9c5.9,0,10.7,4.8,10.7,10.7l0,0V223.8z M396.8,490.2H264
	l22.3-37.1c1-1.7,1.5-3.6,1.5-5.5v-32H373v32c0,1.9,0.5,3.8,1.5,5.5L396.8,490.2z M564.8,383.6c0,5.9-4.8,10.7-10.6,10.7
	c0,0,0,0,0,0H191.9v-64h373L564.8,383.6z M564.8,309.1h-373v-31.9h-0.1v0.6h-0.1v-66c-0.7-17-14.8-30.5-31.8-30.5H95.9V32
	c0-5.9,4.8-10.7,10.6-10.7h447.6c5.9,0,10.7,4.8,10.7,10.7L564.8,309.1z"/>
<path class="st0" d="M564.9,309.1"/>
<path class="st0" d="M95.9,373c29.4,0,53.3-23.8,53.3-53.3c0-29.4-23.8-53.3-53.3-53.3c-29.4,0-53.3,23.8-53.3,53.3c0,0,0,0,0,0
	C42.6,349.2,66.5,373,95.9,373L95.9,373z M95.9,287.8c17.7,0,32,14.3,32,32s-14.3,32-32,32s-32-14.3-32-32S78.2,287.8,95.9,287.8z"
	/>
<rect x="42.6" y="383.7" class="st0" width="106.6" height="21.3"/>
<path class="st0" d="M330.4,42.6c-53,0-95.9,42.9-95.9,95.9s42.9,95.9,95.9,95.9c53,0,95.9-42.9,95.9-95.9
	C426.3,85.6,383.4,42.7,330.4,42.6C330.4,42.7,330.4,42.7,330.4,42.6L330.4,42.6z M330.4,213.2c-41.2,0-74.6-33.4-74.6-74.6
	s33.4-74.6,74.6-74.6c41.2,0,74.6,33.4,74.6,74.6c0,0,0,0,0,0C405,179.8,371.6,213.2,330.4,213.2
	C330.4,213.2,330.4,213.2,330.4,213.2L330.4,213.2z"/>
<rect x="245.1" y="255.8" class="st0" width="170.5" height="21.3"/>
<path class="st0" d="M532.9,42.6h-74.6c-5.9,0-10.6,4.8-10.6,10.7v0v95.9c0,5.9,4.8,10.7,10.6,10.7c0,0,0,0,0,0h74.6
	c5.9,0,10.7-4.8,10.7-10.7V53.3C543.6,47.4,538.8,42.6,532.9,42.6L532.9,42.6z M522.2,138.6h-53.3V64h53.3V138.6z"/>
<path class="st0" d="M532.9,181.2h-74.6c-5.9,0-10.6,4.8-10.6,10.7v74.6c0,5.9,4.8,10.7,10.7,10.7h74.6c5.9,0,10.7-4.8,10.7-10.7
	v-74.6C543.6,186,538.8,181.2,532.9,181.2L532.9,181.2z M522.2,255.8h-53.3v-53.3h53.3V255.8z"/>
</svg>
