<svg id="Слой_1" data-name="Слой 1" xmlns="http://www.w3.org/2000/svg" viewBox="0 0 586.19 511.58"><defs><style>.cls-1{fill:#057be9;}</style></defs><path class="cls-1" d="M438.85,340.05h-74.6a10.66,10.66,0,0,0-10.66,10.66V478.53h21.32V361.37H428.2V510.58c0-.28-.08-.53-.08-.8v64.75h10.73a10.66,10.66,0,0,0,10.66-10.66V350.71A10.66,10.66,0,0,0,438.85,340.05Z" transform="translate(-236.35 -297.42)"/><path class="cls-1" d="M790.57,297.42H342.93a32,32,0,0,0-32,32V478.6H268.33a32,32,0,0,0-32,32V777a32,32,0,0,0,32,32H396.22a32,32,0,0,0,32-32V713.08h74.6v29l-30.45,50.75A10.66,10.66,0,0,0,481.49,809H652a10.66,10.66,0,0,0,9.14-16.15L630.7,742.1v-29H790.57a32,32,0,0,0,32-32V329.39A32,32,0,0,0,790.57,297.42ZM406.88,777a10.65,10.65,0,0,1-10.66,10.65H268.33A10.65,10.65,0,0,1,257.67,777v-32H406.88Zm0-53.29H257.67V542.55H406.88Zm0-202.5H257.67V510.58a10.66,10.66,0,0,1,10.66-10.66H396.22a10.66,10.66,0,0,1,10.66,10.66Zm226.3,266.44H500.32l22.27-37.14a10.62,10.62,0,0,0,1.53-5.49v-32h85.26v32a10.62,10.62,0,0,0,1.53,5.49Zm168-106.58a10.65,10.65,0,0,1-10.65,10.66H428.2v-64h373Zm0-74.6h-373V574.59h-.08v.56s-.07,0-.07,0v-66a31.91,31.91,0,0,0-31.83-30.52H332.28V329.39a10.66,10.66,0,0,1,10.65-10.66H790.57a10.66,10.66,0,0,1,10.65,10.66Z" transform="translate(-236.35 -297.42)"/><path class="cls-1" d="M801.22,606.5" transform="translate(-236.35 -297.42)"/><path class="cls-1" d="M332.27,670.45A53.29,53.29,0,1,0,279,617.16a53.29,53.29,0,0,0,53.28,53.29Zm0-85.27a32,32,0,1,1-32,32,32,32,0,0,1,32-32Zm0,0" transform="translate(-236.35 -297.42)"/><rect class="cls-1" x="42.63" y="383.69" width="106.58" height="21.32"/><path class="cls-1" d="M566.75,340.05A95.92,95.92,0,1,0,662.67,436a95.91,95.91,0,0,0-95.92-95.92Zm0,170.53A74.61,74.61,0,1,1,641.36,436a74.6,74.6,0,0,1-74.61,74.61Zm0,0" transform="translate(-236.35 -297.42)"/><rect class="cls-1" x="245.13" y="255.79" width="170.53" height="21.32"/><path class="cls-1" d="M769.25,340.05H694.64A10.65,10.65,0,0,0,684,350.71v95.92a10.65,10.65,0,0,0,10.65,10.66h74.61a10.66,10.66,0,0,0,10.66-10.66V350.71a10.66,10.66,0,0,0-10.66-10.66ZM758.59,436H705.3v-74.6h53.29Zm0,0" transform="translate(-236.35 -297.42)"/><path class="cls-1" d="M769.25,478.6H694.64A10.66,10.66,0,0,0,684,489.26v74.61a10.66,10.66,0,0,0,10.65,10.66h74.61a10.66,10.66,0,0,0,10.66-10.66V489.26a10.66,10.66,0,0,0-10.66-10.66Zm-10.66,74.61H705.3V499.92h53.29Zm0,0" transform="translate(-236.35 -297.42)"/></svg>