<?xml version="1.0" encoding="utf-8"?>
<!-- Generator: Adobe Illustrator 24.1.2, SVG Export Plug-In . SVG Version: 6.00 Build 0)  -->
<svg version="1.1" id="Слой_1" xmlns="http://www.w3.org/2000/svg" xmlns:xlink="http://www.w3.org/1999/xlink" x="0px" y="0px"
	 viewBox="0 0 410.3 386.4" style="enable-background:new 0 0 410.3 386.4;" xml:space="preserve">
<style type="text/css">
	.st0{fill:#FFFFFF;}
</style>
<g>
	<path class="st0" d="M17,168.1L17,168.1c2.6,0,5-1,6.8-2.8l97.9-93.9l101.6,80c1.8,1.4,4,2.1,6.3,2.1c2.2,0,4.4-0.8,6-2.1
		L381.4,38.2l-5.5,71.8c-0.2,2.7,0.6,5.2,2.4,7.3c1.7,2,4.1,3.2,6.8,3.4h0.8c5.2,0,9.6-4,10-9.2l7.3-94.5c0.2-2.7-0.6-5.2-2.4-7.3
		c-1.7-2-4.1-3.2-6.8-3.4l-0.1,0L292.2-1l-0.7,0c-4.9,0.2-8.9,4-9.5,8.8c-0.6,5.5,3.3,10.4,8.8,11.1l75.8,5.4L229.6,131L127.4,50.4
		c-1.7-1.4-3.9-2.1-6.2-2.1c-2.6,0-5,1-6.9,2.7L10.1,151c-1.9,1.8-3,4.3-3,7s0.9,5.2,2.8,7.1C11.7,167,14.3,168.1,17,168.1z"/>
	<path class="st0" d="M401.3,367.4h-26.1V193.9c0-5.2-4.7-9.5-10.4-9.5h-63.6c-5.6,0-9.9,4.1-9.9,9.5v173.5h-44V225.8
		c0-5.7-4.5-10.3-10.2-10.4l-63.6,0c-5.6,0.2-10.1,4.8-10.2,10.4v141.6h-44v-99c0-5.5-4.4-9.9-9.9-10H45.5c-5.6,0-10.1,4.4-10.3,10
		v99H9c-5.5,0-10,4.5-10,10s4.5,10,10,10h392.3c5.5,0,10-4.5,10-10S406.8,367.4,401.3,367.4z M99.2,278.4v89h-44v-89H99.2z
		 M227.2,235.4v132h-44v-132H227.2z M311.2,204.4h44v163h-44L311.2,204.4z"/>
</g>
</svg>
