<svg id="Слой_1" data-name="Слой 1" xmlns="http://www.w3.org/2000/svg" viewBox="0 0 496.25 829"><defs><style>.cls-1{fill:#fff;}.cls-2{fill:#f3f3f3;}.cls-3{opacity:0.21;}.cls-4{fill:#00a5da;}</style></defs><title>backprofi</title><path class="cls-1" d="M344,902.06a44.93,44.93,0,0,0-15.7-61.56c-7.69-4.56-17.07-6.57-26.53-6.28V154.08a10.5,10.5,0,0,1,10.5-10.49H787.56a10.49,10.49,0,0,1,10.49,10.49v808a10.49,10.49,0,0,1-10.49,10.49H312.29a10.49,10.49,0,0,1-10.5-10.49V927.83C318.56,926.32,335.62,916.21,344,902.06Z" transform="translate(-301.79 -143.59)"/><path class="cls-2" d="M301.79,834.22c9.46-.29,18.84,1.72,26.53,6.28A44.93,44.93,0,0,1,344,902.06c-8.4,14.15-25.46,24.26-42.23,25.77V834.22Z" transform="translate(-301.79 -143.59)"/><g class="cls-3"><path class="cls-4" d="M787.56,143.59H667.94c-1.72,17.07,3.79,34.73,17.37,44.87,20.12,15,51.32,10.54,68.72,28.65,9.23,9.6,12.33,23.52,20,34.41a48.36,48.36,0,0,0,24,17.59v-115A10.49,10.49,0,0,0,787.56,143.59Z" transform="translate(-301.79 -143.59)"/></g></svg>