<?xml version="1.0" encoding="utf-8"?>
<!-- Generator: Adobe Illustrator 24.1.2, SVG Export Plug-In . SVG Version: 6.00 Build 0)  -->
<svg version="1.1" id="Слой_1" xmlns="http://www.w3.org/2000/svg" xmlns:xlink="http://www.w3.org/1999/xlink" x="0px" y="0px"
	 viewBox="0 0 1366 452.4" style="enable-background:new 0 0 1366 452.4;" xml:space="preserve">
<style type="text/css">
	.st0{opacity:0.21;enable-background:new    ;}
	.st1{fill:#3B9CD0;}
</style>
<g class="st0">
	<path class="st1" d="M1209.4,70.1c-6.3-1.9-10.6-7.8-10.6-14.4c0.2-8,6.7-14.5,14.7-14.7c8.3-0.2,15.2,6.4,15.5,14.7
		c0,4.1-1.6,7.6-3,10.3l-9.8,18.5c-2.2,4.3-5.4,6.3-10.3,6.3c-1.1,0-0.8-3.5,0.8-9.8L1209.4,70.1z M1167.7,70.1
		c-6.3-1.9-10.6-7.8-10.6-14.4c0-8.3,6.7-15,15.1-15.1c8.3,0,15.1,6.7,15.1,15.1c0,4.1-1.6,7.6-3,10.3l-9.8,18.5
		c-2.2,4.3-5.4,6.3-10.3,6.3c-1.1,0-0.8-3.5,0.8-9.8L1167.7,70.1z"/>
</g>
</svg>
