<svg id="Слой_1" data-name="Слой 1" xmlns="http://www.w3.org/2000/svg" viewBox="0 0 325.03 325.03"><defs><style>.cls-1{fill:#057be9;}</style></defs><path class="cls-1" d="M130.14,171.12H94.55v32.59h33.82v.18c5.07-.11,14.66-1.41,14.66-15.9C143.07,171.12,130.14,171.12,130.14,171.12Z" transform="translate(0 0.05)"/><path class="cls-1" d="M221.36,152.11c-18.9,0-21.51,18.83-21.51,18.83H240S240.26,152.11,221.36,152.11Z" transform="translate(0 0.05)"/><path class="cls-1" d="M127.93,152c5.8,0,10.87-1.74,10.87-14.48s-8.66-12.75-8.66-12.75H94.55V152Z" transform="translate(0 0.05)"/><path class="cls-1" d="M162.52,0A162.52,162.52,0,1,0,325,162.46,162.51,162.51,0,0,0,162.52,0Zm32,110.3H245v15.06H194.53Zm-25.57,79c0,37.45-38.93,36.22-38.93,36.22H66.37V103h63.77c19.38,0,34.62,10.69,34.62,32.59,0,20.26-15.91,23-18.32,23.25C170.58,159.26,169,189.22,169,189.22Zm94.51-1.81H200.1c0,22.71,21.48,21.26,21.48,21.26,20.38,0,19.66-13.18,19.66-13.18h21.51c0,35-41.86,32.59-41.86,32.59-50.34,0-47.08-46.53-47.08-46.82s0-47.08,47.08-47.08v.08C270.46,134.26,263.47,187.41,263.47,187.41Z" transform="translate(0 0.05)"/></svg>