<svg id="Слой_1" data-name="Слой 1" xmlns="http://www.w3.org/2000/svg" viewBox="0 0 253.2 245.37"><defs><style>.cls-1{fill:#fff;}</style></defs><path class="cls-1" d="M241.5,0H11.11A11.08,11.08,0,0,0,0,11.05V182.37a11.08,11.08,0,0,0,11.06,11.1H97.5v41.1h-21a5.4,5.4,0,0,0,0,10.8H176.7a5.4,5.4,0,1,0,0-10.8h-21v-41.1h86.41a11.07,11.07,0,0,0,11.09-11.05V11.1A11.81,11.81,0,0,0,241.5,0ZM10.2,11.1c.3-.3.6-.6.91-.6H241.8a.65.65,0,0,1,.6.6V128.37l-52.2-36a5.49,5.49,0,0,0-6,0L138.27,123.6l-51.9-51a5.49,5.49,0,0,0-7.2-.3l-69,57ZM144.9,234.9H108V193.5h36.9Zm97.5-52.19c-.29,0-.6.29-.9.29H11.11a.63.63,0,0,1-.61-.6v-39L82.5,84l51.3,50.4a5.44,5.44,0,0,0,6.9.6l46.5-31.5,55.2,38.4Z" transform="translate(0 0)"/><path class="cls-1" d="M173.7,28.8a24.6,24.6,0,1,0,24.57,24.63v-.06a24.7,24.7,0,0,0-24.6-24.6Zm0,38.7a14.07,14.07,0,0,1-14.09-14v-.08c.29-7.8,6.59-14.1,14.09-14.1a14.1,14.1,0,1,1,0,28.2Z" transform="translate(0 0)"/></svg>