<svg id="Слой_1" data-name="Слой 1" xmlns="http://www.w3.org/2000/svg" viewBox="0 0 253.2 245.4"><defs><style>.cls-1{fill:#057be9;}</style></defs><path class="cls-1" d="M655.23,417.63H424.84a11.08,11.08,0,0,0-11.11,11.1V600a11.08,11.08,0,0,0,11.11,11.1h86.39v41.1h-21a5.4,5.4,0,0,0,0,10.8h100.2a5.4,5.4,0,1,0,0-10.8h-21v-41.1h86.41A11.07,11.07,0,0,0,666.93,600V428.73a11.81,11.81,0,0,0-11.7-11.1Zm-231.3,11.1c.3-.3.6-.6.91-.6H655.53a.64.64,0,0,1,.6.6V546l-52.2-36a5.49,5.49,0,0,0-6,0L552,541.23l-51.9-51a5.49,5.49,0,0,0-7.2-.3l-69,57Zm134.7,223.8h-36.9v-41.4h36.9Zm97.5-52.19c-.29,0-.6.29-.9.29H424.84a.64.64,0,0,1-.61-.6V561l72-59.4,51.3,50.4a5.44,5.44,0,0,0,6.9.6l46.5-31.5,55.2,38.4Zm0,0" transform="translate(-413.73 -417.63)"/><path class="cls-1" d="M587.43,446.43A24.6,24.6,0,1,0,612,471a24.7,24.7,0,0,0-24.6-24.6Zm0,38.7A14.07,14.07,0,0,1,573.34,471c.29-7.8,6.59-14.1,14.09-14.1a14.1,14.1,0,1,1,0,28.2Zm0,0" transform="translate(-413.73 -417.63)"/></svg>