<?xml version="1.0" encoding="utf-8"?>
<!-- Generator: Adobe Illustrator 24.1.2, SVG Export Plug-In . SVG Version: 6.00 Build 0)  -->
<svg version="1.1" id="Слой_1" xmlns="http://www.w3.org/2000/svg" xmlns:xlink="http://www.w3.org/1999/xlink" x="0px" y="0px"
	 viewBox="0 0 669.7 593" style="enable-background:new 0 0 669.7 593;" xml:space="preserve">
<style type="text/css">
	.st0{fill:#ECECEC;}
	.st1{fill:#F0F0F0;}
	.st2{fill:#F5F5F5;}
	.st3{fill:#E7E7E7;}
	.st4{fill:#FFFFFF;}
	.st5{fill:#057BE9;}
	.st6{opacity:0.3;fill:#FFFFFF;enable-background:new    ;}
	.st7{fill:#333333;}
	.st8{opacity:0.4;fill:#007CFF;enable-background:new    ;}
	.st9{opacity:0.1;fill:#007CFF;enable-background:new    ;}
	.st10{fill:#3B9CD0;}
	.st11{opacity:0.4;fill:#FFFFFF;enable-background:new    ;}
	.st12{fill:#007CFF;}
	.st13{fill:#3879F0;}
	.st14{opacity:0.6;fill:#007CFF;enable-background:new    ;}
	.st15{fill:#FFAB7D;}
	.st16{opacity:0.2;enable-background:new    ;}
	.st17{opacity:0.7;fill:#FFFFFF;enable-background:new    ;}
</style>
<path class="st0" d="M316.4,450.1H9.1c-5,0-9.1-4.1-9.1-9.1V9.1C0,4.1,4.1,0,9.1,0h307.3c5,0,9.1,4.1,9.1,9.1v432
	C325.4,446.1,321.4,450.1,316.4,450.1z M9.1,0.4c-4.8,0-8.7,3.9-8.7,8.7v432c0,4.8,3.9,8.7,8.7,8.7h307.3c4.8,0,8.7-3.9,8.7-8.7V9.1
	c0-4.8-3.9-8.7-8.7-8.7H9.1z"/>
<path class="st0" d="M660.6,450.1H353.3c-5,0-9.1-4.1-9.1-9.1V9.1c0-5,4.1-9.1,9.1-9.1h307.3c5,0,9.1,4.1,9.1,9.1v432
	C669.6,446.1,665.6,450.1,660.6,450.1z M353.3,0.4c-4.8,0-8.7,3.9-8.7,8.7v432c0,4.8,3.9,8.7,8.7,8.7h307.3c4.8,0,8.7-3.9,8.7-8.7
	V9.1c0-4.8-3.9-8.7-8.7-8.7H353.3z"/>
<rect x="545.6" y="307.3" class="st1" width="72.7" height="199.7"/>
<rect x="228.4" y="507" class="st1" width="375.9" height="14.1"/>
<rect x="214.5" y="307.3" class="st2" width="331.1" height="199.7"/>
<rect x="214.5" y="320.8" class="st1" width="332.4" height="73.1"/>
<rect x="214.5" y="407.2" class="st1" width="332.4" height="73.1"/>
<rect x="545.6" y="320.8" class="st3" width="12.6" height="73.1"/>
<rect x="545.6" y="407.2" class="st3" width="12.6" height="73.1"/>
<rect x="204.8" y="295" class="st1" width="340.8" height="12.3"/>
<rect x="545.6" y="295" class="st3" width="82.8" height="12.3"/>
<rect x="461.4" y="42.5" class="st1" width="171" height="214.9"/>
<rect x="423.7" y="42.5" class="st2" width="202.2" height="214.9"/>
<rect x="440.6" y="59.5" class="st4" width="168.3" height="181"/>
<path class="st3" d="M543.4,169.6l32.2-14.9v-9.4l-32.2-14.9v11.2l19.5,8.4l-19.5,8.4V169.6z"/>
<path class="st3" d="M522.4,126h-5.9l10.5,47.9h5.8L522.4,126z"/>
<path class="st3" d="M506.1,158.4l-19.5-8.4l19.5-8.4v-11.2l-32.2,14.9v9.4l32.2,14.9V158.4z"/>
<rect x="125.7" y="156.4" class="st1" width="11.2" height="364.7"/>
<path class="st1" d="M123.4,518.6l-0.3-1.6c0.1,0,3.1-0.7,5.3-4.6c2.9-5.2,4.7-16.1-3.4-39.2c-12.5-35.5-5-64.2,9.8-121.3
	c2.6-9.9,5.5-21.2,8.5-33.4c11.4-45.6,0.9-73.9-7.6-96.7c-6.6-17.7-11.8-31.6-5.1-47.7l1.5,0.6c-6.4,15.6-1.3,29.3,5.1,46.6
	c8.6,22.9,19.2,51.5,7.7,97.6c-3,12.2-6,23.5-8.6,33.4c-14.8,56.8-22.2,85.3-9.9,120.3c8.3,23.7,6.4,35.2,3.3,40.6
	C127.1,517.8,123.6,518.5,123.4,518.6z"/>
<polygon class="st1" points="111.1,521.1 151.6,521.1 140.3,514.5 122.3,514.5 "/>
<polygon class="st2" points="51.1,202.8 211.6,202.8 193.9,68 68.8,68 "/>
<ellipse id="_Path_" class="st2" cx="337" cy="574.9" rx="308.5" ry="18"/>
<rect x="65.7" y="312.1" class="st5" width="540.7" height="19.4"/>
<rect x="65.7" y="312.1" class="st6" width="144.7" height="19.4"/>
<polygon class="st5" points="212.8,331.5 200.1,331.5 206.8,574.7 212.8,574.7 218.7,574.7 225.3,331.5 "/>
<polygon class="st6" points="206.8,574.7 212.8,574.7 212.8,336.8 200.4,339 "/>
<polygon class="st5" points="93.4,331.5 80.8,331.5 87.4,574.7 93.4,574.7 99.4,574.7 106,331.5 "/>
<polygon class="st6" points="87.4,574.7 93.4,574.7 93.4,336.8 81,339 "/>
<polygon class="st5" points="578.7,331.5 566.1,331.5 572.7,574.7 578.7,574.7 584.7,574.7 591.3,331.5 "/>
<polygon class="st6" points="572.7,574.7 578.7,574.7 578.7,336.8 566.3,339 "/>
<polygon class="st5" points="459.4,331.5 446.8,331.5 453.4,574.7 459.4,574.7 465.4,574.7 472,331.5 "/>
<polygon class="st6" points="453.4,574.7 459.4,574.7 459.4,336.8 447,339 "/>
<path class="st7" d="M322.4,208.3H193.7c-4.6,0-7.6,3.8-6.6,8.4l17.1,81.7c1.1,4.8,5.3,8.2,10.1,8.4H343c4.6,0,7.6-3.8,6.6-8.4
	l-17.1-81.7C331.4,211.9,327.2,208.5,322.4,208.3z"/>
<path class="st4" d="M215.6,302.1c-3.3-0.2-6.1-2.5-6.9-5.7l-17.1-81.7c-0.3-1.1-0.1-2.3,0.6-3.2c0.7-0.8,1.7-1.2,2.8-1.2h128.6
	c3.3,0.2,6.1,2.5,6.9,5.7l17.1,81.7c0.3,1.1,0.1,2.3-0.6,3.2c-0.7,0.8-1.7,1.2-2.8,1.2L215.6,302.1z"/>
<path class="st8" d="M312.6,295.6l-16.3-77.4c-0.4-1.7,0.7-3.4,2.5-3.7c0.2,0,0.4-0.1,0.6-0.1h20.9c1.5,0,2.8,1,3.1,2.5l16.2,77.4
	c0.4,1.7-0.7,3.4-2.5,3.7c-0.2,0-0.4,0.1-0.6,0.1h-20.9C314.2,298.1,312.9,297,312.6,295.6z"/>
<polygon class="st5" points="202.3,221.1 201.6,217.7 227.4,217.7 228.1,221.1 "/>
<polygon class="st0" points="214.2,229.4 213.5,226.1 258.7,226.1 259.4,229.4 "/>
<polygon class="st0" points="216.6,237.7 215.9,234.4 266.5,234.4 267.2,237.7 "/>
<polygon class="st0" points="218.9,246.1 218.3,242.7 259,242.7 259.7,246.1 "/>
<polygon class="st5" points="210.1,259.6 209.4,256.2 225.7,256.2 226.4,259.6 "/>
<polygon class="st0" points="222,267.9 221.3,264.5 241.2,264.5 241.9,267.9 "/>
<polygon class="st0" points="246.6,267.9 245.9,264.5 265.8,264.5 266.5,267.9 "/>
<polygon class="st0" points="224.4,276.2 223.7,272.9 290.9,272.9 291.6,276.2 "/>
<polygon class="st0" points="226.8,284.6 226.1,281.2 277.3,281.2 278,284.6 "/>
<path class="st7" d="M382.4,306.3H213.2c-4.6,0-7.6,2.6-6.6,5.8h186.1C391.6,309,387,306.3,382.4,306.3z"/>
<path class="st9" d="M157.5,187.6l-16.2-77.4c-0.4-1.7,0.7-3.4,2.5-3.7c0.2,0,0.4-0.1,0.6-0.1h131.4c1.5,0,2.8,1,3.1,2.5l16.2,77.4
	c0.4,1.7-0.7,3.4-2.4,3.7c-0.2,0-0.4,0.1-0.6,0.1H160.6C159.1,190.1,157.9,189.1,157.5,187.6z"/>
<polygon class="st5" points="204.3,108.9 176.7,108.9 176.1,106 203.7,106 "/>
<polygon class="st8" points="199.8,113.7 188.7,113.7 188.1,110.7 199.2,110.7 "/>
<polygon class="st8" points="218.2,113.7 201.1,113.7 200.5,110.7 217.6,110.7 "/>
<polygon class="st8" points="225.6,118.4 189.7,118.4 189.1,115.4 225,115.4 "/>
<polygon class="st8" points="221.1,123.1 190.7,123.1 190.1,120.2 220.5,120.2 "/>
<polygon class="st8" points="241.2,173.4 221.9,173.4 222.5,176.4 241.9,176.4 "/>
<polygon class="st5" points="217.1,167 188.8,167 188.2,164 216.5,164 "/>
<polygon class="st8" points="228.5,178.2 202.2,178.2 202.8,181.2 229.1,181.2 "/>
<polygon class="st8" points="220.5,173.4 201.2,173.4 201.8,176.4 221.1,176.4 "/>
<polygon class="st8" points="238.9,168.7 200.2,168.7 200.8,171.7 239.5,171.7 "/>
<polygon class="st5" points="203.3,86.9 172.1,86.9 171.5,83.9 202.7,83.9 "/>
<polygon class="st8" points="218.7,98.1 184.3,98.1 184.9,101.1 219.3,101.1 "/>
<polygon class="st8" points="211.8,93.4 183.3,93.4 183.9,96.3 212.4,96.3 "/>
<polygon class="st8" points="213.7,88.6 182.3,88.6 182.9,91.6 214.4,91.6 "/>
<polygon class="st5" points="202.9,130.9 181.3,130.9 180.6,127.9 202.3,127.9 "/>
<polygon class="st8" points="237,142.1 194.6,142.1 195.3,145.1 237.7,145.1 "/>
<polygon class="st8" points="211.2,137.4 193.6,137.4 194.3,140.3 211.8,140.3 "/>
<polygon class="st8" points="230.3,137.4 212.7,137.4 213.3,140.3 230.9,140.3 "/>
<polygon class="st8" points="231.4,132.6 192.7,132.6 193.3,135.6 232,135.6 "/>
<polygon class="st8" points="231.3,156.3 197.6,156.3 198.2,159.3 231.9,159.3 "/>
<polygon class="st8" points="206.4,151.6 196.6,151.6 197.2,154.5 207,154.5 "/>
<polygon class="st8" points="221.7,151.6 207.8,151.6 208.4,154.5 222.4,154.5 "/>
<polygon class="st8" points="234.3,146.8 195.6,146.8 196.2,149.8 234.9,149.8 "/>
<polygon class="st8" points="264.8,146 250.9,146 250.3,143.1 264.2,143.1 "/>
<polygon class="st8" points="287.9,146 266.5,146 265.9,143.1 287.3,143.1 "/>
<polygon class="st8" points="296.9,150.8 251.9,150.8 251.3,147.8 296.3,147.8 "/>
<polygon class="st8" points="291,155.5 252.9,155.5 252.3,152.5 290.3,152.5 "/>
<polygon class="st8" points="308,127.2 264.9,127.2 265.5,130.2 308.6,130.2 "/>
<polygon class="st8" points="299.6,122.4 263.9,122.4 264.5,125.4 300.2,125.4 "/>
<polygon class="st5" points="293.2,117.7 253.8,117.7 254.4,120.7 293.8,120.7 "/>
<polygon class="st8" points="310,174.4 256.9,174.4 257.5,177.4 310.6,177.4 "/>
<polygon class="st8" points="277.9,169.7 255.9,169.7 256.5,172.7 278.5,172.7 "/>
<polygon class="st8" points="301.7,169.7 279.7,169.7 280.4,172.7 302.4,172.7 "/>
<polygon class="st8" points="303.3,165 254.9,165 255.5,167.9 304,167.9 "/>
<polygon class="st8" points="302,188.6 259.8,188.6 260.4,191.6 302.6,191.6 "/>
<polygon class="st8" points="271.1,183.9 258.8,183.9 259.5,186.9 271.7,186.9 "/>
<polygon class="st8" points="290.3,183.9 272.8,183.9 273.4,186.9 290.9,186.9 "/>
<polygon class="st8" points="306.3,179.2 257.9,179.2 258.5,182.1 306.9,182.1 "/>
<polygon class="st8" points="177.3,192.3 144.3,192.3 144.9,195.3 177.9,195.3 "/>
<polygon class="st8" points="167.5,187.6 143.3,187.6 143.9,190.5 168.1,190.5 "/>
<polygon class="st8" points="193.4,187.6 169.2,187.6 169.8,190.5 194.1,190.5 "/>
<polygon class="st8" points="190.7,182.8 142.3,182.8 142.9,185.8 191.4,185.8 "/>
<polygon class="st10" points="561.3,281.2 540.9,281.2 543.3,312.1 559,312.1 "/>
<polygon class="st11" points="561.3,281.2 540.9,281.2 543.3,312.1 559,312.1 "/>
<polygon class="st7" points="116.1,259.8 145.4,259.8 135.4,312.1 106,312.1 "/>
<polygon class="st10" points="153.5,245.7 112,245.7 123.6,312.1 165.1,312.1 "/>
<polygon class="st12" points="109.5,245.7 112,245.7 123.6,312.1 121.1,312.1 "/>
<polygon class="st13" points="109.5,245.7 112,245.7 123.6,312.1 121.1,312.1 "/>
<polygon class="st4" points="129.6,305 120.4,252.8 147.5,252.8 156.6,305 "/>
<polygon class="st14" points="155.4,305 146.2,252.8 147.5,252.8 156.6,305 "/>
<path class="st15" d="M405.8,158.8c4.9,17,10.4,30.3,17.1,37.8c0,0,0.1,13.4-22.7,19.8c-25.1,7-15.5-9.1-15.5-9.1
	c12.8-7.1,11.5-17.8,1.9-21.9L405.8,158.8z"/>
<path class="st7" d="M428.3,193.4c-0.5-6.2-1-13.3-4.9-13.5c-4.2-0.2-28.7,10.8-34,18.5s5,15.3,5,15.3L428.3,193.4z"/>
<path class="st15" d="M378.1,289.7l-21.2-0.7l0.4,17.7c0,0,18.5-1.9,19.3-6.8L378.1,289.7z"/>
<polygon class="st15" points="345.7,297.7 343.5,306.8 357.3,306.8 356.9,289 "/>
<path class="st4" d="M463,216l-0.4,4.5c-0.1,1.5-0.3,2.9-0.5,4.3c-0.4,2.9-0.8,5.8-1.3,8.6c-1,5.7-2.2,11.5-3.6,17.2
	c-1.5,5.9-3.2,11.6-5.3,17.3c-1.1,2.9-2.2,5.8-3.6,8.8c-1.4,3.1-3,6.1-4.8,9c-0.4,0.8-1,1.5-1.5,2.3s-1,1.5-1.7,2.3
	s-1.2,1.5-1.9,2.3l-1,1.2c-0.4,0.4-0.8,0.8-1.2,1.2c-3.2,3.1-6.9,5.6-11,7.4c-6.3,2.7-13,4.4-19.8,5c-3.1,0.4-6.2,0.5-9.2,0.6
	s-6,0-9-0.2s-5.9-0.4-8.8-0.8s-5.7-0.8-8.8-1.4l0.5-16.6c10.2-2,20.9-4.1,30.1-7.2c2.2-0.7,4.4-1.5,6.5-2.5c1.8-0.8,3.5-1.7,5.1-2.8
	c0.9-0.6,1.7-1.3,2.3-2.3l0.5-0.7c0.2-0.2,0.4-0.7,0.6-1s0.4-0.7,0.6-1.1s0.4-0.8,0.6-1.3c1.9-4.1,3.4-8.3,4.6-12.6
	c1.3-4.7,2.5-9.6,3.5-14.6s1.9-10.1,2.9-15.2l1.2-7.7l1.1-7.5L463,216z"/>
<path class="st4" d="M369.1,237.1c5.1,21.3,11.7,57,13.3,103.7h93.2c0.5-11.5-1.4-76.3-10.8-123.3c-3.5-17.6-20.5-29-38.1-25.6
	c-0.2,0-0.5,0.1-0.7,0.1l-0.5,0.1c-11.6,2.7-28.3,6.9-38.2,10.7l-0.4,0.2C373.2,208.3,365.6,222.9,369.1,237.1z"/>
<path class="st16" d="M375.1,267c0.7,4.5,1.5,9.2,2.2,14.2c7.6-8,10-32.3,10-32.3L375.1,267z"/>
<path class="st15" d="M276.6,288.9L276.6,288.9l-10.1,5.3l-6.8,12.2l16.2,0.3l0,0c7.1,1.9,14.6-0.2,19.6-5.6l2.1-10.1L276.6,288.9z"
	/>
<path class="st4" d="M404,229c-1.5,2.8-2.8,5.3-4.2,7.8s-2.9,5-4.4,7.5c-3,4.9-6.1,9.8-9.4,14.7c-6.6,9.9-13.9,19.3-21.8,28.1
	c-4.3,4.7-8.9,9.1-13.9,13.1c-0.6,0.5-1.3,1-2,1.6s-1.3,1-2.3,1.6c-1.8,1.2-3.7,2.2-5.6,3.1c-3.5,1.5-7.2,2.6-11,3.3
	c-6.6,1.1-13.3,1.3-19.9,0.5c-3.1-0.4-6.2-0.9-9.2-1.6c-1.5-0.3-3-0.7-4.5-1.2s-2.9-0.9-4.6-1.5l2.6-16.4c10-1.4,20.8-3.1,28.2-6.5
	c1.7-0.7,3.2-1.6,4.6-2.7c0.5-0.4,1.1-0.8,1.5-1.3c0.1-0.1,0.6-0.6,1-0.9s0.8-0.7,1.2-1.1c3.4-3.4,6.6-7,9.6-10.8
	c6.4-8.3,12.4-16.8,17.9-25.7c2.9-4.5,5.7-9.1,8.4-13.7l4.1-6.9l4-6.8L404,229z"/>
<path class="st15" d="M400.2,138.4c6.3,16.1,10.8,25.2,6.6,36.9c-6.3,17.6-29,19.4-39.9,5.5c-9.9-12.5-18.5-36.8-6-50.1
	c8.9-9.5,23.8-10.1,33.3-1.2C396.9,131.9,399,135,400.2,138.4z"/>
<path class="st7" d="M369.6,162.5l-4.6,6.2c0,0-5.4-13.3-3.3-19.4c-2.6-5.2-7.9,2.5-9.9-7.6s6.6-20.9,9.9-23.1
	c0.5,0.8,0.4,3.6,0.4,3.6s12.9-11.5,31.2-9.9c-1.3,1.3-1.8,4.7-1.8,4.7s18.9,3.2,23.2,13.9c-1.5-0.7-3.1-1.3-4.8-1.7
	c3.5,5,4.8,11.1,3.8,17.1c-1.6,10.4-2.3,21.8-2.1,26.3s-12.2,13.1-19.8,3.9S369.6,162.5,369.6,162.5z"/>
<path class="st15" d="M377.5,159c1,3.8,0.7,7.7-0.8,11.3c-2,4.7-6.2,3.6-8.2-0.5c-1.9-3.7-3-10.7,0.2-14S376.3,154.5,377.5,159z"/>
<path class="st7" d="M284.9,557.5h18.6c0.7,0,1.3,0.5,1.5,1.2l3.4,15.4c0.3,1.4-0.5,2.7-1.9,3c-0.2,0-0.4,0.1-0.6,0.1
	c-6.7-0.1-16.4-0.5-24.9-0.5c-9.9,0-11.8,0.6-23.3,0.6c-7,0-9-7.2-6-7.9c13.3-3,17.6-3.3,29.1-10.6C282,558,283.4,557.5,284.9,557.5
	z"/>
<polygon class="st16" points="280.7,522.8 283.5,544.8 300.7,543.6 298.1,522.8 "/>
<polygon class="st5" points="434.4,441.7 384.2,441.7 379.3,425.5 439.3,425.5 "/>
<rect x="400.3" y="441.7" class="st5" width="17.9" height="120"/>
<polygon class="st17" points="418.3,561.7 400.3,561.7 400.3,444.5 418.3,446.4 "/>
<polygon class="st17" points="413.9,561.7 409.6,561.7 409.6,445.5 413.9,445.9 "/>
<path class="st5" d="M382.4,340.8c0,0-132.6,11.8-131.1,78.3c0.2,8.8,0.8,17.1,1.6,25.1c1.7,68.6,27.3,114.7,27.3,114.7H306
	c0,0-1.1-8.1-2.2-23.9c-0.3-3.9-0.5-8.3-0.8-13.1c-1.4-16.1-3.3-46.7-2.7-91c0.3-20.4,41.5-27.2,81.8-29.6
	c28.1-1.7,54.7-14.9,71-36.8c4-5.3,7.3-11.1,9.9-17.3l2.8-6.6L382.4,340.8z"/>
<path class="st7" d="M360.1,557.5h19.6c0.7,0,1.3,0.5,1.5,1.2l3.4,15.5c0.3,1.4-0.6,2.7-2,3c-0.2,0-0.4,0.1-0.6,0.1
	c-6.8-0.1-10.2-0.5-18.8-0.5c-5.3,0-12.1,0.5-19.4,0.5c-7.2,0-8.3-7.2-5.3-7.9c13.4-2.9,14.4-7,18.7-10.8
	C358,557.8,359,557.5,360.1,557.5z"/>
<path class="st5" d="M482.6,340.8h-68.3c0,0-84.8,29.3-87.3,68.2c-1.3,20.9,0.2,41.8,4.2,62.4c6.4,53.3,25.3,87.6,25.3,87.6h25.8
	c0,0-1.1-8.1-2.2-23.9c0-0.3,0-0.5,0-0.8c-0.2-2.6-5.3-44.6-7.8-87.9c-2.2-38.4,28.9-40.1,59.2-42.6c5.7-0.5,11.4-0.9,16.9-1.7
	C475.1,398.4,495.6,388,482.6,340.8z"/>
<path class="st7" d="M417.1,266l-16.8,64.8c-4.3,16.6-6.5,33.7-6.5,50.8v30.1c0,7.6,5.6,13.8,12.5,13.8h86.2
	c6.9,0,12.5-6.2,12.5-13.8v-30.1c0-17.2,2.2-34.2,6.5-50.8l14.8-57.3c2.3-8.8-3.7-17.5-12-17.5h-85.3
	C423.6,256,418.6,260.1,417.1,266z"/>
<path class="st7" d="M309.9,394.1l2.8,16.1c1.5,8.5,8.9,15.3,16.6,15.3h95.8c7.7,0,12.7-6.8,11.2-15.3l-2.8-16.1
	c-1.7-9.6-10.2-17.4-18.9-17.4h-92C313.9,376.7,308.2,384.5,309.9,394.1z"/>
<path class="st5" d="M450.5,580.2H368c-1.3,0-2.3-1-2.3-2.3c0-0.7,0.3-1.4,0.9-1.8l13.1-9.6c6.3-4.6,13.9-7.1,21.7-7.1h15.7
	c7.8,0,15.4,2.5,21.7,7.1l13.1,9.6c1,0.7,1.2,2.2,0.5,3.2C451.9,579.9,451.3,580.2,450.5,580.2z"/>
</svg>
