<?xml version="1.0" encoding="utf-8"?>
<!-- Generator: Adobe Illustrator 24.1.2, SVG Export Plug-In . SVG Version: 6.00 Build 0)  -->
<svg version="1.1" id="Слой_1" xmlns="http://www.w3.org/2000/svg" xmlns:xlink="http://www.w3.org/1999/xlink" x="0px" y="0px"
	 viewBox="0 0 416.7 416.7" style="enable-background:new 0 0 416.7 416.7;" xml:space="preserve">
<style type="text/css">
	.st0{fill:#057BE9;}
</style>
<path class="st0" d="M208.3,0C93.3,0,0,93.3,0,208.4s93.3,208.3,208.4,208.3s208.4-93.3,208.4-208.3S323.4,0,208.3,0z M335.5,262.2
	c-9.8,14.2-23.6,21.4-41.4,21.3c-17.9,0.2-34.2-10.1-41.6-26.4c-5.3,8.2-12.6,14.9-21.2,19.5c-9,4.7-19,7-29.1,6.9
	c-25.3,0.3-48.7-13.4-60.7-35.6c-6.3-11.2-9.4-23.9-9.4-38.2c-0.2-13.3,3.1-26.4,9.4-38c5.9-10.9,14.5-20,25.1-26.4
	c10.3-6.2,22.1-9.5,34.2-9.4c16.7-0.2,32.5,7.2,43,20.2h2.2v-15.1h30.4v91.8c-0.1,5.9,1.7,11.6,5.1,16.5c3.4,4.7,8.3,7,14.8,7
	c8.7,0,14.9-4.8,18.6-14.3s5.6-21,5.6-34.5c0.1-19.2-4.9-38.1-14.6-54.7c-9.6-16.6-23.5-30.4-40.2-40c-17-9.9-35.9-14.8-56.6-14.8
	c-20.5,0-39.2,4.8-56,14.3c-16.7,9.4-30.6,23-40.1,39.6c-9.9,16.9-14.8,35.7-14.8,56.4c0,20.7,5,39.5,15,56.4
	c9.7,16.6,23.7,30.3,40.5,39.6c16.9,9.5,36.1,14.4,55.5,14.3c17.8,0,33.4-3.6,46.6-10.8l11.2,27.8c-17.6,8.2-36.9,12.3-57.9,12.3
	c-26.8,0-51-6.2-72.7-18.6c-21.3-12-39-29.5-51.2-50.6c-12.4-21.3-18.6-44.8-18.6-70.3c-0.4-49.9,26.2-96,69.4-120.8
	c21.7-12.5,46-18.8,73-18.8c26.5,0,50.6,6.3,72.1,18.8c42.9,24.7,69.2,70.5,68.9,120C350.1,229.8,345.2,248,335.5,262.2z"/>
<path class="st0" d="M204.7,167.1c-10.6-0.2-20.9,4-28.4,11.6c-7.8,7.7-11.8,18.1-11.8,31.1c0,13,3.9,23.4,11.8,31.1
	c7.5,7.6,17.7,11.8,28.4,11.6c10.7,0.2,21-4,28.6-11.6c8-7.7,11.9-18.1,11.9-31.1c0-13-4-23.4-11.9-31.1
	C225.7,171.1,215.4,167,204.7,167.1z"/>
</svg>
