<svg id="Слой_1" data-name="Слой 1" xmlns="http://www.w3.org/2000/svg" viewBox="0 0 355.98 339.58"><defs><style>.cls-1{fill:#d8d8d8;}</style></defs><title>emptystar</title><path class="cls-1" d="M735.75,459.37a10.43,10.43,0,0,0-8.42-7.1L617,436.23l-49.36-100a10.43,10.43,0,0,0-18.7,0l-49.36,100-110.35,16a10.43,10.43,0,0,0-5.78,17.79l79.85,77.84L444.43,657.81a10.43,10.43,0,0,0,15.13,11l98.71-51.9,98.7,51.9a10.43,10.43,0,0,0,15.13-11L653.25,547.9l79.86-77.84a10.43,10.43,0,0,0,2.64-10.69Zm0,0" transform="translate(-380.28 -330.42)"/></svg>