<?xml version="1.0" encoding="utf-8"?>
<!-- Generator: Adobe Illustrator 24.1.2, SVG Export Plug-In . SVG Version: 6.00 Build 0)  -->
<svg version="1.1" id="Слой_1" xmlns="http://www.w3.org/2000/svg" xmlns:xlink="http://www.w3.org/1999/xlink" x="0px" y="0px"
	 viewBox="0 0 435.2 420.7" style="enable-background:new 0 0 435.2 420.7;" xml:space="preserve">
<style type="text/css">
	.st0{fill:#FFFFFF;}
</style>
<path class="st0" d="M413.4,0H21.8C9.7,0,0,9.7,0,21.8v377.1c0,12,9.7,21.7,21.8,21.8h391.6c12,0,21.7-9.7,21.8-21.8V21.8
	C435.1,9.7,425.4,0,413.4,0L413.4,0z M21.8,14.5h391.6c4,0,7.3,3.2,7.3,7.3V58H14.5V21.8C14.5,17.8,17.8,14.5,21.8,14.5L21.8,14.5z
	 M413.4,406.1H21.8c-4,0-7.3-3.2-7.3-7.3V72.5h406.2v326.4C420.7,402.9,417.4,406.1,413.4,406.1z"/>
<path class="st0" d="M181.3,116h72.5c4,0,7.3-3.2,7.3-7.3s-3.2-7.3-7.3-7.3h-72.5c-4,0-7.3,3.2-7.3,7.3S177.3,116,181.3,116z"/>
<path class="st0" d="M304.6,130.5h-174c-4,0-7.3,3.2-7.3,7.3v29c0,4,3.3,7.3,7.3,7.3c0,0,0,0,0,0h174c4,0,7.3-3.3,7.3-7.3
	c0,0,0,0,0,0v-29C311.8,133.8,308.6,130.5,304.6,130.5z M297.3,159.5H137.8V145h159.6L297.3,159.5z"/>
<path class="st0" d="M304.6,188.6h-174c-4,0-7.3,3.2-7.3,7.3v29c0,4,3.3,7.3,7.3,7.3h174c4,0,7.3-3.2,7.3-7.3v-29
	C311.8,191.8,308.6,188.6,304.6,188.6z M297.3,217.6H137.8v-14.5h159.6L297.3,217.6z"/>
<path class="st0" d="M304.6,246.6h-174c-4,0-7.3,3.3-7.3,7.3l0,0v58c0,4,3.3,7.3,7.3,7.3h174c4,0,7.3-3.2,7.3-7.3v-58
	C311.8,249.8,308.6,246.6,304.6,246.6L304.6,246.6z M297.3,304.6H137.8v-43.5h159.6L297.3,304.6z"/>
<path class="st0" d="M232.1,333.6h-29c-12,0.3-21.5,10.2-21.3,22.2c0.2,11.7,9.6,21,21.3,21.3h29c12-0.3,21.5-10.2,21.3-22.2
	C253.1,343.3,243.7,333.9,232.1,333.6z M232.1,362.6h-29c-4-0.1-7.1-3.5-7-7.5c0.1-3.8,3.2-6.8,7-7h29c4,0.1,7.1,3.5,7,7.5
	C238.9,359.4,235.9,362.5,232.1,362.6z"/>
</svg>
