<svg id="Слой_1" data-name="Слой 1" xmlns="http://www.w3.org/2000/svg" viewBox="0 0 435.17 420.66"><defs><style>.cls-1{fill:#057be9;}</style></defs><path class="cls-1" d="M735.82,329.67H344.18a21.78,21.78,0,0,0-21.76,21.76V728.57a21.78,21.78,0,0,0,21.76,21.76H735.82a21.78,21.78,0,0,0,21.76-21.76V351.43a21.78,21.78,0,0,0-21.76-21.76ZM344.18,344.18H735.82a7.26,7.26,0,0,1,7.26,7.25v36.26H336.92V351.43a7.26,7.26,0,0,1,7.26-7.25ZM735.82,735.82H344.18a7.26,7.26,0,0,1-7.26-7.25V402.2H743.08V728.57a7.26,7.26,0,0,1-7.26,7.25Zm0,0" transform="translate(-322.42 -329.67)"/><path class="cls-1" d="M503.74,445.71h72.52a7.25,7.25,0,1,0,0-14.5H503.74a7.25,7.25,0,1,0,0,14.5Zm0,0" transform="translate(-322.42 -329.67)"/><path class="cls-1" d="M627,460.22H453a7.26,7.26,0,0,0-7.26,7.25v29a7.26,7.26,0,0,0,7.26,7.26H627a7.26,7.26,0,0,0,7.26-7.26v-29a7.26,7.26,0,0,0-7.26-7.25Zm-7.25,29H460.22v-14.5H619.78Zm0,0" transform="translate(-322.42 -329.67)"/><path class="cls-1" d="M627,518.24H453a7.26,7.26,0,0,0-7.26,7.25v29a7.26,7.26,0,0,0,7.26,7.25H627a7.26,7.26,0,0,0,7.26-7.25v-29a7.26,7.26,0,0,0-7.26-7.25Zm-7.25,29H460.22v-14.5H619.78Zm0,0" transform="translate(-322.42 -329.67)"/><path class="cls-1" d="M627,576.26H453a7.26,7.26,0,0,0-7.26,7.26v58a7.26,7.26,0,0,0,7.26,7.25H627a7.26,7.26,0,0,0,7.26-7.25v-58a7.26,7.26,0,0,0-7.26-7.26Zm-7.25,58H460.22V590.77H619.78Zm0,0" transform="translate(-322.42 -329.67)"/><path class="cls-1" d="M554.51,663.3h-29a21.76,21.76,0,0,0,0,43.51h29a21.76,21.76,0,0,0,0-43.51Zm0,29h-29a7.26,7.26,0,0,1,0-14.51h29a7.26,7.26,0,0,1,0,14.51Zm0,0" transform="translate(-322.42 -329.67)"/></svg>