<svg id="Слой_1" data-name="Слой 1" xmlns="http://www.w3.org/2000/svg" viewBox="0 0 148 178.47"><defs><style>.cls-1{fill:#057be9;}.cls-2{fill:#3b9cd0;opacity:0.11;}</style></defs><path class="cls-1" d="M484.94,581.46a3.27,3.27,0,0,0,0,.54,4.41,4.41,0,0,1,0,.73c-1.5,5-.26,9.11,3.75,12.68a5.77,5.77,0,0,1,1.89,5.4,6.45,6.45,0,0,1-4,5s-.07,0-.11,0c-3.85,1.64-5.83,4.34-6.09,8.2-.07,1-.25,2.15-.4,3.31s-.35,2.52-.47,3.76a8,8,0,0,0,1.57,6.15,7.86,7.86,0,0,0,5.9,2.59H591.58a7.14,7.14,0,0,0,4.7-1.49,7.38,7.38,0,0,0,2.8-7.07c-.18-1.5-.4-3-.66-4.41s-.43-2.8-.62-4.2c0-.08,0-.19,0-.26a7.84,7.84,0,0,0-5.58-6.34,6.27,6.27,0,0,1-4.33-5,6.85,6.85,0,0,1,2.77-6.85,7.74,7.74,0,0,0,3.46-7.5c-.19-2.46-.55-4.89-.91-7.22-.62-4.22-3.39-6.65-7.71-6.65H494.74C488.11,573,485.89,574.93,484.94,581.46Zm100.93-1.21a3,3,0,0,1,.11.52c.35,2.29.7,4.47.88,6.74.07.62,0,.7-.35.91a1.08,1.08,0,0,0-.18.11,14,14,0,0,0-5.58,14,13.4,13.4,0,0,0,9.4,10.57c.26.07.35.11.51.7.18,1.42.4,2.88.62,4.27s.44,2.8.62,4.2a1.34,1.34,0,0,1,0,.4H487.2a5,5,0,0,1-.66-.11,6.06,6.06,0,0,1,0-.73v-.11c.07-1,.26-2.14.4-3.31s.35-2.52.47-3.86c.08-1,.15-1.4,1.71-2.07A13.6,13.6,0,0,0,497.63,602a13,13,0,0,0-4.23-12c-2.1-1.85-2.22-3.15-1.6-5.13a9.11,9.11,0,0,0,.32-2.59,10.52,10.52,0,0,1,.41-1.93,18.83,18.83,0,0,1,2.25-.11h90.7a1.35,1.35,0,0,0,.4,0Z" transform="translate(-466.33 -451.34)"/><path class="cls-1" d="M495.43,525.08c-.21,3.83-.25,7.66-.25,11.34,0,2.4,0,4.88-.11,7.35v11.7a8.86,8.86,0,0,0,8.77,9h50.3l22.19.35a8.22,8.22,0,0,0,8.41-8.23V548.7A14.93,14.93,0,0,0,577.63,536a108.44,108.44,0,0,1-12.28-9.26,3.62,3.62,0,0,0-4.73,5.47,112.53,112.53,0,0,0,13.22,9.95,7.65,7.65,0,0,1,3.68,6.59v7.87a1,1,0,0,1-1.16,1l-22.19-.35H504a1.65,1.65,0,0,1-1.75-1.54V544c.08-2.52.08-5,.11-7.47,0-3.75,0-7.29.26-11a120.63,120.63,0,0,1,3.13-23.62c1.65-6.86,3.75-14,8.2-20.2s8.49-8.75,14.21-8.49c7.25.22,12.5-2.84,15.63-9.07a10.49,10.49,0,0,1,4.92-4.59c0,6.05,2.74,11.2,8.24,15.41,6,4.62,11.91,9.29,17.86,13.92s11.88,9.29,17.86,13.92c1,.8,1.42,1.42,1.46,1.71a3.51,3.51,0,0,1-.95,1.93l-5.83,6.85c-2.45,2.66-4.45,3-7.54,1.35,0,0-.08,0-.12,0A46,46,0,0,1,575,512s-.07,0-.07-.08a15.84,15.84,0,0,0-12-1.89s-.07,0-.11,0c-4.12,1.05-7.83.18-11.7-2.74l-2.62-2.1a3.6,3.6,0,0,0-4.52,5.61L546.6,513l.07.07c5.61,4.26,11.63,5.6,17.83,4a8.5,8.5,0,0,1,6.48,1,49.31,49.31,0,0,0,5.47,3c6.08,3.25,11.55,2.26,16.28-2.91,0,0,.08-.07.08-.11l5.9-7s0-.07.08-.11c2-2.51,2.8-4.88,2.47-7.32s-1.67-4.52-4.2-6.52c-6-4.63-11.91-9.3-17.86-13.92s-11.89-9.29-17.88-14c-4.38-3.31-6-7.1-5.21-11.88a1.13,1.13,0,0,1,0-.18,5.07,5.07,0,0,0-1.67-4.7c-1-.8-2.7-1.61-5.47-.77a18.71,18.71,0,0,0-11.59,9.15c-1.89,3.75-4.55,5.28-8.93,5.14-10.56-.47-16.46,5.9-20.4,11.48-5.18,7.14-7.62,15.48-9.33,22.66a125.72,125.72,0,0,0-3.32,25Z" transform="translate(-466.33 -451.34)"/><path class="cls-2" d="M614.33,558.06c0,17.33-12.57,28.28-29.24,34.9a105,105,0,0,1-12,3.88,158.74,158.74,0,0,1-27,4.43c-5.27.43-10.38.62-15.12.62a67.26,67.26,0,0,1-26.58-5c-27.14-11.56-38.09-41-38.09-68.2,0-34.73,31.46-44.9,64.67-48.63C598.24,472.46,614.33,523.33,614.33,558.06Z" transform="translate(-466.33 -451.34)"/></svg>