<svg id="Слой_1" data-name="Слой 1" xmlns="http://www.w3.org/2000/svg" viewBox="0 0 142.27 203.24"><defs><style>.cls-1{fill:#d12727;}</style></defs><title>lock</title><path class="cls-1" d="M595.91,519.68h-86.4V487.43a28.75,28.75,0,0,1,28.7-28.73h3.58a28.75,28.75,0,0,1,28.7,28.74v11.91h20.32V487.44a49.07,49.07,0,0,0-49-49.06h-3.58a49.06,49.06,0,0,0-49,49.05v32.25h-5.1a15.23,15.23,0,0,0-15.22,15.19v91.55a15.22,15.22,0,0,0,15.22,15.2H595.91a15.24,15.24,0,0,0,15.22-15.2V534.87A15.21,15.21,0,0,0,595.91,519.68Zm-5.1,101.62H489.19V540H590.81Z" transform="translate(-468.87 -438.38)"/></svg>