<?xml version="1.0" encoding="utf-8"?>
<!-- Generator: Adobe Illustrator 24.1.2, SVG Export Plug-In . SVG Version: 6.00 Build 0)  -->
<svg version="1.1" id="Слой_1" xmlns="http://www.w3.org/2000/svg" xmlns:xlink="http://www.w3.org/1999/xlink" x="0px" y="0px"
	 viewBox="0 0 142.3 203.2" style="enable-background:new 0 0 142.3 203.2;" xml:space="preserve">
<style type="text/css">
	.st0{fill:#FF0000;}
</style>
<path class="st0" d="M127,81.3H40.6V49c0-15.9,12.8-28.7,28.7-28.7h3.6c15.9,0,28.7,12.9,28.7,28.7v12h20.3V49.1
	C121.9,22,100,0,72.9,0h-3.6c-27.1,0-49,22-49,49v32.3h-5.1C6.9,81.3,0.1,88.1,0,96.5V188c0,8.4,6.8,15.2,15.2,15.2H127
	c8.4,0,15.2-6.8,15.2-15.2V96.5C142.2,88.1,135.4,81.3,127,81.3z M121.9,182.9H20.3v-81.3h101.6
	C121.9,101.6,121.9,182.9,121.9,182.9z"/>
</svg>
