<?xml version="1.0" encoding="utf-8"?>
<!-- Generator: Adobe Illustrator 24.1.2, SVG Export Plug-In . SVG Version: 6.00 Build 0)  -->
<svg version="1.1" id="Слой_1" xmlns="http://www.w3.org/2000/svg" xmlns:xlink="http://www.w3.org/1999/xlink" x="0px" y="0px"
	 viewBox="0 0 463.3 666.1" style="enable-background:new 0 0 463.3 666.1;" xml:space="preserve">
<style type="text/css">
	.st0{fill:#057BE9;}
	.st1{fill:#FFFFFF;}
	.st2{fill-rule:evenodd;clip-rule:evenodd;fill:#FFDD67;}
	.st3{fill-rule:evenodd;clip-rule:evenodd;fill:#494949;}
	.st4{fill:#664E27;}
	.st5{opacity:0.11;fill:#3B9CD0;enable-background:new    ;}
	.st6{fill:#FFAB7D;}
	.st7{fill:#333333;}
	.st8{fill:#0672C9;}
	.st9{fill:none;}
	.st10{fill:#FFB27D;}
	.st11{fill:#161616;}
	.st12{fill:#E18D5B;}
	.st13{opacity:0.2;enable-background:new    ;}
</style>
<path class="st0" d="M398.1,34.9H266.9c-8.2,0-14.9,6.7-14.9,14.9v9.9c0,0.2-0.1,0.5-0.1,0.7c-1.5,6.7-6.7,11.9-13.4,13.3
	c4.5,3,9.8,5.2,15.2,4.6c2.5,5,7.7,8.2,13.3,8.2h131.2c8.2,0,14.9-6.7,14.9-14.9V49.7C413,41.5,406.4,34.9,398.1,34.9L398.1,34.9z"
	/>
<path class="st0" d="M448.4,34.9H344.8v51.6h103.6c8.2,0,14.9-6.7,14.9-14.9V49.7C463.3,41.5,456.6,34.9,448.4,34.9L448.4,34.9z"/>
<path class="st1" d="M266.8,51.3h2.5V58h7.5v-6.7h2.5v16.1h-2.5v-7h-7.5v7h-2.5V51.3z"/>
<path class="st1" d="M284.8,67c-0.9-0.5-1.6-1.3-2.1-2.2c-1-1.9-1-4.3,0-6.2c0.5-0.9,1.2-1.7,2.1-2.2c1.9-1.1,4.3-1.1,6.2,0
	c0.9,0.5,1.6,1.3,2.1,2.2c1,1.9,1,4.3,0,6.2c-0.5,0.9-1.2,1.7-2.1,2.2C289.1,68.1,286.8,68.1,284.8,67L284.8,67z M289.7,65.1
	c0.5-0.3,1-0.8,1.3-1.3c0.3-0.6,0.5-1.3,0.5-2c0-0.7-0.2-1.4-0.5-2c-0.3-0.6-0.7-1-1.3-1.3c-0.5-0.3-1.1-0.5-1.8-0.5
	c-0.6,0-1.2,0.2-1.8,0.5c-0.5,0.3-1,0.8-1.3,1.3c-0.3,0.6-0.5,1.3-0.5,2c0,0.7,0.2,1.4,0.5,2c0.3,0.6,0.8,1,1.3,1.3
	c0.5,0.3,1.1,0.5,1.8,0.5C288.6,65.5,289.2,65.4,289.7,65.1L289.7,65.1z"/>
<path class="st1" d="M296,55.9h5.7c0.6,0,1.2,0.1,1.8,0.4c0.5,0.2,1,0.6,1.3,1.1c0.3,0.4,0.5,1,0.5,1.5c0,0.5-0.1,1.1-0.4,1.5
	c-0.2,0.4-0.6,0.8-1,1v0.1c0.5,0.2,1,0.5,1.3,1c0.3,0.5,0.5,1,0.5,1.6c0,0.6-0.2,1.2-0.5,1.7c-0.3,0.5-0.8,0.9-1.3,1.2
	c-0.6,0.3-1.2,0.4-1.8,0.4H296L296,55.9z M301.5,60.6c0.4,0,0.7-0.1,1-0.4c0.5-0.5,0.5-1.4,0-1.9c0,0,0,0,0,0
	c-0.3-0.3-0.6-0.4-1-0.4h-3.1v2.6L301.5,60.6z M301.8,65.3c0.4,0,0.7-0.2,1-0.4c0.3-0.3,0.4-0.6,0.4-1c0-0.4-0.2-0.7-0.4-1
	c-0.3-0.3-0.6-0.4-1-0.4h-3.4v2.9L301.8,65.3z"/>
<path class="st1" d="M307.8,55.9h2.4v3.9h3.2c0.7,0,1.5,0.1,2.1,0.5c0.6,0.3,1.1,0.8,1.5,1.3c0.4,0.6,0.6,1.3,0.5,2
	c0,0.7-0.2,1.4-0.5,2c-0.4,0.6-0.9,1-1.5,1.3c-0.7,0.3-1.4,0.5-2.1,0.5h-5.6V55.9z M313.4,65.3c0.5,0,0.9-0.2,1.3-0.5
	c0.4-0.3,0.5-0.8,0.5-1.2c0-0.5-0.2-0.9-0.5-1.2c-0.4-0.3-0.8-0.5-1.3-0.5h-3.1v3.4L313.4,65.3z M319.2,55.9h2.4v11.5h-2.4V55.9z"/>
<path class="st1" d="M324.4,55.9h2.4v5.6l-0.1,2.2h0.1l5.4-7.8h2.5v11.5h-2.5v-5.6l0.1-2.2h-0.1l-5.4,7.8h-2.5L324.4,55.9z
	 M328.1,53.5c-0.5-0.3-0.8-0.6-1.1-1.1c-0.3-0.4-0.4-1-0.4-1.5h1.9c0,0.3,0.1,0.6,0.3,0.8c0.4,0.4,1.2,0.5,1.6,0c0,0,0,0,0,0
	c0.2-0.2,0.3-0.5,0.3-0.8h1.8c0,0.5-0.1,1-0.4,1.5c-0.3,0.4-0.6,0.8-1.1,1.1c-0.4,0.2-0.9,0.4-1.4,0.4
	C329.1,53.9,328.6,53.7,328.1,53.5L328.1,53.5z"/>
<path class="st1" d="M342.9,55.9h2.5V61h0.1l4.3-5.1h3v0.1l-4.6,5.3l4.9,5.9v0.1h-3l-4.5-5.6h-0.1v5.6h-2.5L342.9,55.9z"/>
<path class="st1" d="M354.7,67.4v-2.2c0.2,0.1,0.5,0.1,0.7,0.1c0.3,0,0.6-0.1,0.8-0.3c0.2-0.3,0.4-0.7,0.4-1.1
	c0.1-0.7,0.1-1.4,0.1-2.2v-5.8h9.9v11.5h-2.4v-9.2h-5.1v4.3c0,3.4-1.1,5.1-3.2,5.1C355.5,67.6,355.1,67.6,354.7,67.4z"/>
<path class="st1" d="M369.5,55.9h2.5v5.6l-0.1,2.2h0.1l5.4-7.8h2.5v11.5h-2.5v-5.6l0.1-2.2h-0.1l-5.4,7.8h-2.5L369.5,55.9z"/>
<path class="st1" d="M384.8,67c-0.9-0.5-1.6-1.3-2.1-2.2c-0.5-1-0.8-2-0.8-3.1c0-1.1,0.2-2.1,0.7-3.1c0.5-0.9,1.1-1.7,2-2.2
	c0.9-0.6,1.9-0.9,3-0.8c1.1,0,2.1,0.2,3,0.8c0.8,0.5,1.5,1.2,1.9,2.1c0.5,0.9,0.7,2,0.7,3c0,0.3,0,0.5-0.1,0.8h-8.8
	c0,1.9,1.6,3.4,3.5,3.3c0,0,0,0,0,0c0.6,0,1.3-0.2,1.8-0.5c0.5-0.3,1-0.8,1.3-1.3l2.1,1c-0.5,0.9-1.2,1.7-2.1,2.2
	C389.1,68.1,386.8,68.1,384.8,67L384.8,67z M390.8,60.4c0-0.4-0.2-0.8-0.4-1.2c-0.2-0.4-0.6-0.8-1-1c-0.5-0.3-1.1-0.4-1.7-0.4
	c-0.7,0-1.4,0.2-2,0.7c-0.6,0.5-1,1.2-1.1,1.9H390.8z"/>
<path class="st1" d="M395.6,55.9h2.5v4.6h5.5v-4.6h2.5v11.5h-2.5v-4.6H398v4.6h-2.5V55.9z"/>
<path class="st1" d="M411.8,58.3h-3.7v-2.3h9.8v2.3h-3.7v9.2h-2.5V58.3z"/>
<path class="st1" d="M420.3,67.1c-0.3-0.3-0.5-0.8-0.5-1.2c0-0.5,0.2-0.9,0.5-1.2c0.7-0.7,1.8-0.7,2.4,0c0.3,0.3,0.5,0.8,0.5,1.2
	c0,1-0.8,1.7-1.7,1.7C421.1,67.6,420.6,67.4,420.3,67.1z M420.3,56.2v-4.9h2.5v4.9l-0.3,6h-2L420.3,56.2z"/>
<path class="st2" d="M441,49c5.8,0,10.5,4.7,10.5,10.6s-4.7,10.5-10.6,10.5c-5.8,0-10.5-4.7-10.5-10.5C430.5,53.7,435.2,49,441,49
	L441,49"/>
<path class="st3" d="M442.4,55.5c-0.9,0.4-1.8,0.4-2.7,0c-0.9-0.5-2-0.7-3-0.8c-1.7-0.2-3.3,0-4.9,0.3c-0.1,0-0.3,0.1-0.4,0.2
	c-0.1,0-0.1,0.1-0.1,0.2v0.2c0,0.4,0,0.2,0.2,0.4c0.5,0.3,0.8,1,0.9,2c0.1,1.3,0.9,2.4,2.1,2.9c1.1,0.4,2.3,0.4,3.4,0
	c0.6-0.2,1.2-0.7,1.5-1.2c0.7-1.1,0.5-1.7,0.9-2.6c0.1-0.4,0.6-0.7,1-0.6c0.3,0.1,0.5,0.3,0.6,0.6c0.4,0.9,0.2,1.6,0.9,2.6
	c0.4,0.6,0.9,1,1.5,1.2c1.1,0.4,2.3,0.4,3.4,0c1.2-0.4,2-1.6,2.1-2.9c0.1-1,0.4-1.8,0.9-2c0.2-0.1,0.2,0,0.2-0.4v-0.2
	c0-0.1,0-0.2-0.1-0.2c-0.1-0.1-0.3-0.1-0.4-0.2c-1.6-0.4-3.3-0.5-4.9-0.3C444.4,54.8,443.4,55.1,442.4,55.5"/>
<path class="st4" d="M445.5,63.2c-2.6,2-6.2,2-8.8,0c-0.3-0.2-0.7,0.2-0.4,0.6c1.7,2.7,5.2,3.5,7.9,1.8c0.7-0.5,1.4-1.1,1.8-1.8
	C446.1,63.4,445.8,62.9,445.5,63.2z"/>
<path class="st5" d="M353.6,282.7c0,41.4-30,67.5-69.9,83.4c-9.3,3.7-18.9,6.8-28.6,9.3c-21.2,5.4-42.7,9-64.5,10.6
	c-12.6,1-24.8,1.5-36.1,1.5c-24.4,0-45.5-4.4-63.5-12.1C26.2,347.7,0,277.3,0,212.4c0-83.1,75.2-107.3,154.5-116.2
	C315.2,78.1,353.6,199.7,353.6,282.7z"/>
<path class="st6" d="M184.3,109.3c6.4,1.6,13,1.9,19.5,0.9c-1-0.6-2-1.2-3.1-1.8c0.5-3.1,1-6,1.3-8.6c0.7-5.1,1.2-10.2,1.3-15.3
	L191.6,75l-17.3-13.9c0.6,17.7-5.3,30.3-10.8,38c0.1,0.1,0.9,0.8,2.2,1.7C171.3,104.7,177.6,107.6,184.3,109.3z"/>
<path class="st7" d="M99,666.1H72.2c-3.4-1.8-6.4-6-7.3-12.3c-1.3-8.6-11-13.3-13-20.4s8.6-17,8.6-17l1.8-2.3l1.9-2.4l17.7,4.2
	c0,0,0.4,4.2,0.7,9.6c0.2,3.9,0.3,8.4,0.1,12.3c-0.5,9.4,2.6,19.5,11,21.3C99.8,660.6,99.5,664.3,99,666.1z"/>
<path class="st7" d="M254.1,666.1H193c-2.9-3.6-1.9-16.8-1.4-21.2c0.1-0.9,0.2-1.4,0.2-1.4s20.9-16.7,23.8-3.9
	c0.1,0.4,0.2,0.8,0.3,1.2c3.6,12,19.8,17.4,29.2,18.9C251.1,660.7,253.3,663.9,254.1,666.1z"/>
<path class="st0" d="M242.5,324.8c0,0-3.2,39.6-6.9,87.1c-5.1,64.6-11.2,143.9-11.8,159c-1,26.1-5.2,67.8-5.2,67.8
	s-9.9,9.9-29.8,5.7c0,0-17.7-59.6-22.7-122.7c-0.1-1-0.2-2.1-0.2-3.1c-4.7-64.2-12-199.4-12-199.4L242.5,324.8z"/>
<path class="st8" d="M242.5,324.8c0,0-3.2,39.6-6.9,87.1l-69.5,109.9c-0.1-1-0.2-2.1-0.2-3.1c-4.7-64.2-12-199.4-12-199.4
	L242.5,324.8z"/>
<path class="st0" d="M228,329.5c0,0-57.2,143.3-94.7,210.6S84,626.2,84,626.2s-21.5-8.6-23.5-14.5c0,0,14.4-130,39.5-161.7
	c14.2-17.9,30.9-71.6,31.7-90.4s5.1-56,5.1-56L228,329.5z"/>
<path class="st1" d="M203.7,117.1c0,0,46.3,80.7,63.1,95.6l61.6-45.9c0,0,8.9,2.7,12.8,11.7c0,0-37.4,76.2-74.2,79.4
	s-88.5-91.3-88.5-91.3L203.7,117.1z"/>
<path class="st9" d="M203.7,111.1l0.3-0.1l-0.2-0.4L203.7,111.1z"/>
<path class="st1" d="M245.5,270.5c0-1.2,0-2.6-0.1-3.8v-0.4c-0.1-12.4-0.6-25.5-1.1-38.5c-1.2-28.6-3.5-56.3-7.3-71.6
	c-3.5-14.1-10.6-24.4-18-32.4c-3.5-2.1-12.1-7.5-15-12.8l-0.3,0.1c-1.1,3-5,12.6-10.9,16.3c0,0-34-6.2-39.7-19
	c-13,18.2-19.5,53-19.3,91.8c0,6.2,0.2,12.4,0.6,18.8c2,34,0,63.4-1.2,80.5c-0.3,4.9-0.6,8.8-0.7,11.5c-0.1,2.5,5,5.2,7.2,6.1
	c16.6,7.4,32,12.6,49.5,14.3c20.7,2.1,45.2-2.5,53.5-2.4c0.9,0,1.7-0.3,2.3-0.9C245.5,327.6,246,302.4,245.5,270.5z"/>
<path class="st10" d="M359.3,154.3c-2.8,7.5-7.6,16.2-12.7,18.3c-5.7,2.4-8.1,5.9-8.1,5.9l-4.6-2.7l-5.5-3.2c0,0,0.1-0.6,0.4-1.6
	s0.7-2.4,1.2-3.9c1-1.4,1.3-3.3,0.7-5c-1.1-3.2-0.8-6.7,0.9-9.5c1.8-2.6,3.5-8.9,4.6-8.7c2.6,0.4-1.3,9.2-0.2,10.8
	c0.5,0.9,1.6,1.3,2.5,0.9l0,0c7.3-3.2,16.1-20.4,20-18.1C359.8,138.3,360.4,151.1,359.3,154.3z"/>
<path class="st7" d="M334.2,164.7l9.1,6.4c0.6,0.5,1.5,0.3,2-0.3l0,0l23.3-33.1c0.5-0.6,0.3-1.5-0.3-2c0,0,0,0,0,0l-9.1-6.4
	c-0.6-0.5-1.5-0.3-2,0.3l-23.3,33.1C333.4,163.3,333.5,164.2,334.2,164.7z"/>
<path class="st11" d="M342.5,170.5l5.3,3.8c0.5,0.3,1.2,0.2,1.5-0.3l23.7-33.7c0.3-0.5,0.2-1.2-0.3-1.5l0,0l-5.3-3.7
	c-0.5-0.3-1.2-0.2-1.5,0.3l-23.7,33.7C341.9,169.6,342,170.2,342.5,170.5z"/>
<path class="st12" d="M203.3,84.5c-0.2,5.1-0.6,10.2-1.3,15.3c-13-2.2-27.7-23.2-27.7-23.2c5.6-1.7,11.5-2.3,17.4-1.6L203.3,84.5z"
	/>
<path class="st6" d="M210.8,83.8c0,0-41,6.8-44.8-18.8s-11.7-41.9,14.3-47.4s32.6,3.6,35.9,11.8S221.3,81.4,210.8,83.8z"/>
<path class="st11" d="M127.2,345.9l-82.1-11.7c-10.8-1.5-20.7,6-22.3,16.7l-5,35.6c-1.5,10.7,6,20.6,16.7,22.2l82.1,11.7
	c10.7,1.5,20.6-6,22.2-16.7l5.1-35.6C145.4,357.4,138,347.5,127.2,345.9z"/>
<path class="st7" d="M131.8,356.6L131.8,356.6c-2.3-5.9-7.4-10.4-13.6-11.9l0,0c-0.6-0.2-1.3-0.3-1.9-0.4L100,342l1.1-7.7
	c0.5-3.6-2-6.8-5.5-7.3l-4.3-0.6l-17.2-2.4l-3.1-0.4c-3.5-0.5-6.8,1.9-7.3,5.5c0,0,0,0,0,0l0,0l-1.1,7.7l-28.2-4
	c-10.8-1.5-20.7,6-22.3,16.7l-5.1,36c-1.5,10.7,6,20.7,16.7,22.3l82,11.7c1.4,0.2,2.8,0.2,4.3,0.1l0,0c2.2-0.2,4.4-0.7,6.4-1.6
	c6.2-2.8,10.6-8.5,11.5-15.3l5.1-36C133.5,363.2,133.1,359.8,131.8,356.6z M67.7,329.6c0.2-1,1-1.8,2-2c0.2,0,0.5,0,0.7,0l3.7,0.5
	l13.5,1.9l7.4,1c1.3,0.2,2.2,1.4,2.1,2.7c0,0,0,0,0,0l-1.1,7.7l-29.3-4.1L67.7,329.6z"/>
<path class="st10" d="M92.4,312.1c0-0.4,0-0.9,0.1-1.4c0.2-2.3,4.5-8,4.5-8l-10.8-5.6l-4.3,7.1c-6.5,5.1-6.6,5.2-5.4,15.1
	c1,8.5-4.6,8.6-4.4,14.7s8,3.1,8,3.1c12.2-5.7,13.2-8.6,12.8-14.4c1.2,1.6,2.5,2.6,3.5,1.9s-1-3.1-1.8-8.9
	C94.1,314.4,93.3,313.1,92.4,312.1z"/>
<path class="st7" d="M152.5,24.5c1.5-8,10.9-13.9,16.3-16.7l0.3-0.2c1.1-0.6,2.1-1,2.7-1.3l0.9-0.4l-0.1-0.4
	c-0.5-1.5-1.4-2.9-2.6-3.9c11.1-3.1,22.9-1.8,33.1,3.4c-0.3-1.2-0.4-2.4-0.3-3.7c1.8,1.1,3.6,2.3,5.2,3.7c1.9,1.6,3.6,3.4,5.1,5.4
	l0.7,0.9c0.2,0.4,0.4,0.8,0.6,1.2c-0.4-0.9,0.1,0.1,0.1,0.3c7,15.9,2.6,20,2.6,20c-1.1,1-2.4,1.1-4.7,1.1
	c-5.5,0.1-20.5-0.8-24.1,1.4c-6.3,3.8-2,12.1-8.8,13.9s-12,1.1-11.8,7.3c0.3,3.4-0.7,6.7-2.8,9.3c0,0-1-3.1-2.5-7.2
	c-2-5.8-4.5-11.3-7.6-16.6c-2.2-3.5-1.9-12,1.6-20.1C155,22.7,153.7,23.6,152.5,24.5z"/>
<path class="st6" d="M179.6,42.7c1.4,3.7,1.6,7.7,0.5,11.5c-1.4,5-5.8,4.4-8.4,0.5s-4.4-10.4-1.5-14.1S177.8,38.3,179.6,42.7z"/>
<path class="st13" d="M133.1,299.4c1.2-17.1,3.2-46.5,1.2-80.5c-0.4-6.3-0.6-12.6-0.6-18.8c7.6-18.5,13.9-32,13.9-32h19.3
	C166.9,168.2,181,264.6,133.1,299.4z"/>
<path class="st1" d="M86,307.2c4.8,0.8,9.6,1.1,14.5,0.8c0,0,20.6-63.6,23.2-69.4s61.2-74.6,61.2-74.6l-24.4-61
	c0,0-63.3,105.7-69.7,120.5c-10.6,24.6-14.3,79.6-14.3,79.6C79.3,305.1,82.6,306.4,86,307.2z"/>
<path class="st7" d="M211.8,116.4l-0.4-0.4l-3.4-2.7l-2.2-1.8c-0.7-0.5-1.3-0.9-2.1-1.4c-6.5,1-13.1,0.7-19.5-0.9
	c-6.7-1.7-12.9-4.6-18.6-8.5c-1.3-0.9-2.1-1.5-2.2-1.7l0,0c0,0-0.6,0.3-1.4,0.7c-0.6,0.3-1.4,0.7-2.3,1.2c-2.5,2.1-4.8,4.6-6.7,7.3
	c5.7,12.7,39.7,19,39.7,19c2.1-1.4,4-3.3,5.4-5.4c2.3-3.4,4.1-7,5.5-10.8l0.2-0.4l0.2,0.4c2,3.6,6.7,7.3,10.6,10
	c1.7,1.2,3.3,2.1,4.4,2.8s1.6,0.9,1.6,0.9l0.1-0.1C217.9,121.7,214.9,119,211.8,116.4z"/>
</svg>
