<?xml version="1.0" encoding="utf-8"?>
<!-- Generator: Adobe Illustrator 24.1.2, SVG Export Plug-In . SVG Version: 6.00 Build 0)  -->
<svg version="1.1" id="Слой_1" xmlns="http://www.w3.org/2000/svg" xmlns:xlink="http://www.w3.org/1999/xlink" x="0px" y="0px"
	 viewBox="0 0 500.3 665.3" style="enable-background:new 0 0 500.3 665.3;" xml:space="preserve">
<style type="text/css">
	.st0{fill:#057BE9;}
	.st1{fill:#FFFFFF;}
	.st2{fill:#52C18E;}
	.st3{fill:#D0D5D8;}
	.st4{opacity:0.11;fill:#3B9CD0;enable-background:new    ;}
	.st5{fill:#333333;}
	.st6{fill:#0672C9;}
	.st7{fill:#FFAB7D;}
	.st8{opacity:0.2;enable-background:new    ;}
	.st9{fill:#686868;}
	.st10{fill:#E18D5B;}
</style>
<path class="st0" d="M14.9,26.7h229.5c8.2,0,14.9,6.7,14.9,14.9l0,0v9.9c0,0.3,0.1,0.5,0.1,0.7c1.5,6.7,6.7,11.9,13.4,13.3
	c-4.5,3-9.8,5.2-15.2,4.5c-2.5,5-7.7,8.2-13.3,8.2H14.9C6.7,78.3,0,71.6,0,63.4V41.6C0,33.4,6.7,26.7,14.9,26.7L14.9,26.7z"/>
<path class="st1" d="M16.6,58.5c-1.3-0.7-2.3-1.7-3-3c-1.5-2.7-1.5-5.9,0-8.6c0.7-1.3,1.7-2.3,3-3s2.8-1.1,4.3-1.1
	c1.1,0,2.3,0.2,3.3,0.7s1.9,1.1,2.6,2L25,47.2c-0.5-0.6-1.1-1.1-1.8-1.5c-0.7-0.3-1.5-0.5-2.3-0.5c-1,0-2.1,0.2-3,0.7
	s-1.6,1.2-2.1,2.1c-1,2-1,4.3,0,6.3c0.5,0.9,1.2,1.6,2.1,2.1s2,0.8,3,0.7c1.8,0,3.5-0.8,4.6-2.3l1.8,1.8c-0.8,0.9-1.7,1.6-2.8,2.1
	C22,60.1,19.1,60,16.6,58.5L16.6,58.5z"/>
<path class="st1" d="M32.1,50.1h-3.6v-2.3h9.8v2.3h-3.7v9.2h-2.5V50.1z"/>
<path class="st1" d="M41.8,59.2c-0.6-0.3-1.1-0.8-1.5-1.4c-0.4-0.6-0.5-1.3-0.5-2c0-1.1,0.5-2.2,1.3-2.8c1-0.7,2.2-1.1,3.4-1
	c0.6,0,1.2,0.1,1.8,0.2c0.4,0.1,0.9,0.2,1.3,0.4V52c0-0.7-0.3-1.3-0.8-1.7c-0.6-0.5-1.3-0.7-2-0.7c-0.6,0-1.1,0.1-1.6,0.4
	c-0.5,0.2-0.9,0.6-1.3,1l-1.7-1.3c0.5-0.7,1.2-1.3,2-1.6c0.8-0.4,1.8-0.6,2.7-0.6c1.4-0.1,2.8,0.3,3.9,1.2c0.9,0.9,1.4,2.2,1.4,3.5
	v7.2h-2.4V58h-0.1c-0.4,0.5-0.8,0.9-1.4,1.2c-0.6,0.3-1.3,0.5-2.1,0.5C43.2,59.7,42.5,59.5,41.8,59.2z M46,57.2
	c0.5-0.3,0.9-0.7,1.1-1.1c0.3-0.5,0.4-1,0.4-1.5c-0.4-0.2-0.8-0.4-1.2-0.5c-0.5-0.1-0.9-0.2-1.4-0.2c-0.7-0.1-1.5,0.1-2.1,0.5
	c-0.4,0.4-0.7,0.9-0.6,1.4c0,0.5,0.2,1,0.6,1.3c0.4,0.4,1,0.5,1.6,0.5C44.9,57.6,45.5,57.5,46,57.2z"/>
<path class="st1" d="M55.5,50.1h-3.6v-2.3h9.8v2.3H58v9.2h-2.5V50.1z"/>
<path class="st1" d="M63.7,47.8h2.5v5.6l-0.1,2.2h0.1l5.4-7.8h2.5v11.5h-2.5v-5.6l0.1-2.2h-0.1l-5.4,7.8h-2.5
	C63.7,59.3,63.7,47.8,63.7,47.8z"/>
<path class="st1" d="M79.1,58.9c-0.9-0.5-1.6-1.3-2.1-2.2c-1-2-1-4.3,0-6.3c0.5-0.9,1.2-1.7,2.1-2.2s2-0.8,3.1-0.8s2.3,0.3,3.2,0.9
	c0.9,0.6,1.5,1.4,1.9,2.3l-2.3,1c-0.5-1.2-1.6-1.9-2.9-1.8c-0.6,0-1.2,0.2-1.7,0.5s-1,0.8-1.2,1.3c-0.3,0.6-0.5,1.3-0.5,2
	s0.1,1.4,0.5,2c0.3,0.6,0.7,1,1.2,1.4c0.5,0.3,1.1,0.5,1.7,0.5c0.7,0,1.3-0.1,1.9-0.5c0.5-0.3,0.9-0.8,1.2-1.4l2.2,1
	c-0.4,1-1.1,1.8-2,2.3c-1,0.6-2.1,0.9-3.2,0.9C81.1,59.7,80,59.4,79.1,58.9z"/>
<path class="st1" d="M92.3,50.1h-3.6v-2.3h9.8v2.3h-3.7v9.2h-2.5C92.3,59.3,92.3,50.1,92.3,50.1z"/>
<path class="st1" d="M100.5,47.8h2.5v5.6l-0.1,2.2h0.1l5.4-7.8h2.5v11.5h-2.5v-5.6l0.1-2.2h-0.1l-5.4,7.8h-2.5V47.8z"/>
<path class="st1" d="M113.8,47.8h2.5v5.1h0.1l4.3-5.1h3v0.1l-4.6,5.3l4.9,5.9v0.1h-3l-4.5-5.6h-0.1v5.6h-2.5V47.8H113.8z"/>
<path class="st1" d="M126.6,59.2c-0.6-0.3-1.2-0.8-1.5-1.4c-0.4-0.6-0.5-1.3-0.5-2c0-1.1,0.5-2.2,1.3-2.8c1-0.7,2.2-1.1,3.4-1
	c0.6,0,1.2,0.1,1.8,0.2c0.4,0.1,0.9,0.2,1.3,0.4V52c0-0.7-0.3-1.3-0.8-1.7c-0.6-0.5-1.3-0.7-2-0.7c-0.6,0-1.1,0.1-1.7,0.4
	c-0.5,0.2-0.9,0.6-1.2,1l-1.7-1.3c0.5-0.7,1.2-1.3,2-1.6c0.8-0.4,1.8-0.6,2.7-0.6c1.4-0.1,2.8,0.3,3.9,1.2c0.9,0.9,1.4,2.2,1.4,3.5
	v7.2h-2.4V58h-0.2c-0.4,0.5-0.8,0.9-1.4,1.2c-0.6,0.3-1.3,0.5-2.1,0.5C128,59.7,127.3,59.5,126.6,59.2z M130.8,57.2
	c0.5-0.3,0.9-0.7,1.1-1.1c0.3-0.5,0.4-1,0.4-1.5c-0.4-0.2-0.8-0.4-1.2-0.5c-0.5-0.1-0.9-0.2-1.4-0.2c-0.7-0.1-1.5,0.1-2,0.5
	c-0.4,0.4-0.7,0.9-0.6,1.4c0,0.5,0.2,1,0.6,1.3c0.4,0.4,1,0.5,1.6,0.5C129.8,57.6,130.3,57.5,130.8,57.2z"/>
<path class="st1" d="M142.7,47.8h2.4v1.5h0.1c0.4-0.6,0.9-1,1.5-1.3c0.7-0.4,1.4-0.6,2.2-0.5c1,0,2,0.3,2.8,0.8
	c0.9,0.5,1.5,1.3,2,2.2c1,2,1,4.3,0,6.3c-0.5,0.9-1.2,1.6-2,2.2c-0.8,0.5-1.8,0.8-2.8,0.8c-0.8,0-1.5-0.2-2.2-0.5
	c-0.6-0.3-1.1-0.8-1.5-1.3H145l0.1,1.6v4.8h-2.5L142.7,47.8z M150.1,56.9c0.5-0.3,1-0.8,1.3-1.4c0.3-0.6,0.5-1.3,0.5-2
	s-0.1-1.4-0.5-2c-0.3-0.6-0.7-1-1.3-1.3c-0.5-0.3-1.1-0.5-1.7-0.5c-0.6,0-1.2,0.2-1.7,0.5s-1,0.8-1.2,1.3c-0.3,0.6-0.5,1.3-0.5,2
	s0.2,1.4,0.5,2s0.7,1,1.2,1.4c0.5,0.3,1.1,0.5,1.7,0.5S149.6,57.2,150.1,56.9L150.1,56.9z"/>
<path class="st1" d="M158,59.2c-0.6-0.3-1.2-0.8-1.5-1.4c-0.4-0.6-0.5-1.3-0.5-2c0-1.1,0.5-2.2,1.3-2.8c1-0.7,2.2-1.1,3.4-1
	c0.6,0,1.2,0.1,1.8,0.2c0.4,0.1,0.9,0.2,1.3,0.4V52c0-0.7-0.3-1.3-0.8-1.7c-0.6-0.5-1.3-0.7-2-0.7c-0.6,0-1.1,0.1-1.7,0.4
	c-0.5,0.2-0.9,0.6-1.3,1l-1.7-1.3c0.5-0.7,1.2-1.3,2-1.6c0.8-0.4,1.8-0.6,2.7-0.6c1.4-0.1,2.8,0.3,3.9,1.2c0.9,0.9,1.4,2.2,1.4,3.5
	v7.2h-2.4V58h-0.1c-0.4,0.5-0.9,0.9-1.4,1.2c-0.6,0.3-1.3,0.5-2.1,0.5C159.4,59.7,158.7,59.5,158,59.2z M162.2,57.2
	c0.9-0.6,1.5-1.6,1.5-2.7c-0.4-0.2-0.8-0.4-1.2-0.5c-0.5-0.1-0.9-0.2-1.4-0.2c-0.7-0.1-1.5,0.1-2,0.5c-0.4,0.3-0.7,0.9-0.6,1.4
	c0,0.5,0.2,1,0.6,1.3c0.4,0.4,1,0.5,1.6,0.5C161.2,57.6,161.8,57.5,162.2,57.2L162.2,57.2z"/>
<path class="st1" d="M171,58.9c-0.9-0.5-1.6-1.3-2.1-2.2c-1-2-1-4.3,0-6.3c0.5-0.9,1.2-1.7,2.1-2.2c0.9-0.5,2-0.8,3.1-0.8
	s2.3,0.3,3.2,0.9c0.9,0.6,1.5,1.4,1.9,2.3l-2.3,1c-0.5-1.2-1.6-1.9-2.9-1.8c-0.6,0-1.2,0.2-1.7,0.5s-1,0.8-1.2,1.3
	c-0.3,0.6-0.5,1.3-0.5,2s0.1,1.4,0.5,2c0.3,0.6,0.7,1,1.2,1.4c0.5,0.3,1.1,0.5,1.7,0.5c0.7,0,1.3-0.1,1.9-0.5
	c0.5-0.3,0.9-0.8,1.2-1.4l2.2,1c-0.4,1-1.1,1.8-2,2.3c-1,0.6-2.1,0.9-3.2,0.9C173,59.7,171.9,59.4,171,58.9z"/>
<path class="st1" d="M184.3,50.1h-3.6v-2.3h9.8v2.3h-3.7v9.2h-2.5V50.1z"/>
<path class="st1" d="M194.5,58.9c-0.9-0.5-1.6-1.3-2.1-2.2c-0.5-1-0.8-2-0.8-3.1s0.2-2.1,0.7-3s1.1-1.7,2-2.2c0.9-0.6,1.9-0.9,3-0.8
	c1.1,0,2.1,0.2,3,0.8c0.8,0.5,1.5,1.2,1.9,2.1c0.5,0.9,0.7,2,0.7,3c0,0.3,0,0.5-0.1,0.8H194c0,0.9,0.4,1.8,1.1,2.5
	c0.6,0.6,1.5,0.9,2.3,0.9c0.6,0,1.3-0.2,1.8-0.5s0.9-0.8,1.3-1.3l2.1,1c-0.5,0.9-1.2,1.7-2.1,2.2c-0.9,0.6-2,0.8-3.1,0.8
	C196.4,59.7,195.4,59.4,194.5,58.9z M200.5,52.2c-0.1-0.9-0.6-1.8-1.4-2.2c-0.5-0.3-1.1-0.4-1.7-0.4c-0.7,0-1.4,0.2-2,0.7
	s-1,1.2-1.1,1.9H200.5z"/>
<path class="st1" d="M207.8,50.1h-3.6v-2.3h9.8v2.3h-3.7v9.2h-2.5V50.1z"/>
<path class="st1" d="M216.4,58.9c-0.3-0.3-0.5-0.8-0.5-1.2c0-0.5,0.2-0.9,0.5-1.2s0.8-0.5,1.2-0.5c0.5,0,0.9,0.2,1.2,0.5
	s0.5,0.8,0.5,1.2c0,0.5-0.2,0.9-0.5,1.2s-0.8,0.5-1.2,0.5C217.1,59.4,216.7,59.2,216.4,58.9z M216.4,48.1v-4.9h2.5v4.9l-0.2,6h-2
	L216.4,48.1z"/>
<rect x="225.8" y="40.2" class="st1" width="22.5" height="22.5"/>
<polygon class="st2" points="246.5,42 244.5,42 239,49.1 235.6,45.2 225.8,59.3 225.8,62.7 228.1,62.7 235.9,51.3 239.1,55 
	246.5,45.6 "/>
<path class="st3" d="M247.6,56.5h-4.7v-4.7h4.7V56.5z M247.6,61.9h-4.7v-4.7h4.7V61.9z M242.1,61.9h-4.7v-4.7h4.7V61.9z M231.3,45.6
	h-4.7v-4.7h4.7V45.6z M248.3,40.2h-22.5V58l1-1.5h-0.3v-4.7h3.5l0.5-0.8h-4v-4.7h4.7v3.8L232,49v-2.7h1.8l0.5-0.8H232v-4.7h4.7v4.5
	l0.9,1h2.6l0.6-0.8h-3.3v-4.7h4.7v2.9l0.8-1v-2h4.7v4.7h-0.3v0.3l-0.4,0.5h0.7V51h-4.4l-1,1.3v4.1h-4.7v-2.2l-0.8-0.9v3.1h-3.5
	l-0.5,0.8h4v4.7H232v-3.6l-0.8,1.1V62h-1.8l-0.5,0.8h19.4L248.3,40.2z"/>
<path class="st4" d="M500.3,432.8c0,52.2-37.9,85.2-88.1,105.1c-11.8,4.6-23.8,8.5-36,11.7c-26.6,7-54.7,11.2-81.4,13.4
	c-15.9,1.3-31.3,1.9-45.5,1.9c-30.7,0-57.3-5.5-80.1-15.2C87.4,514.8,54.4,426,54.4,344.2c0-104.6,94.8-135.3,194.8-146.5
	C451.8,174.9,500.3,328.2,500.3,432.8z"/>
<path class="st5" d="M454.3,614.8c0,0,10.8,9.9,8.7,16.9s-11.9,11.7-13.2,20.3s-6.6,13.3-11.4,13.3h-22.7c0,0-3.5-6,5-7.9
	s11.6-11.9,11.1-21.3c-0.2-7.3,0-14.6,0.8-21.9l18-4.2L454.3,614.8z"/>
<path class="st5" d="M321.3,640.4c0,0,2,22.5-2.8,24.8l-60.9-0.1c0,0,0-7,9.8-8.6s27-7.3,29.9-20S321.3,640.4,321.3,640.4z"/>
<path class="st0" d="M269.9,322.6c0,0,3.2,39.4,7,86.8c5.1,64.4,11.3,143.5,11.9,158.5c1,26,5.3,67.7,5.3,67.7s10,9.9,30.1,5.7
	c0,0,17.9-59.4,23-122.3c0.1-1,0.2-2.1,0.2-3.1c4.8-64,12.2-198.8,12.2-198.8L269.9,322.6z"/>
<path class="st6" d="M269.9,322.6c0,0,3.2,39.4,7,86.8L347.3,519c0.1-1,0.2-2.1,0.2-3.1c4.8-64,12.2-198.8,12.2-198.8L269.9,322.6z"
	/>
<path class="st0" d="M284.6,327.3c0,0,57.9,142.8,95.9,210s49.9,85.9,49.9,85.9s21.8-8.6,23.8-14.5c0,0-14.5-129.6-40-161.2
	c-14.4-17.8-31.3-71.4-32.1-90.2s-5.2-55.8-5.2-55.8L284.6,327.3z"/>
<path class="st7" d="M360.7,107.2c0,0-39.2,18.9-61.7,11.9c4.3-5,9.4-9.2,15.2-12.3c-0.8-4.5-1.4-8.5-1.7-11.8c-0.5-4-0.9-8-1-12.1
	L326.6,71L341,59.7C339.9,91.7,360.7,107.2,360.7,107.2z"/>
<path class="st1" d="M312.5,126.6c-20.2,8.6-64.5,61.9-71.2,58.1c-7.6-4.3-67.9-44.3-67.9-44.3c-0.2,0-0.4,0-0.5,0
	c-8.4-1-12.3,1.9-14,4.1c-0.5,0.7-1,1.5-1.3,2.3c0,0,61.9,89.8,89.2,81.8C334.1,203.1,350,125.2,350,125.2
	C337.8,120.9,324.4,121.4,312.5,126.6z"/>
<path class="st8" d="M342,123.1c-5.9,18.9-29.1,76-101.5,97.1c-19.5,5.7-56.7-38.6-76.3-64.3c16.7,22.7,60.8,79,82.6,72.6
	C334.1,203.1,350,125.2,350,125.2C347.4,124.2,344.7,123.5,342,123.1z"/>
<path class="st1" d="M380.7,297.3c-1.2-17-3.3-46.4-1.2-80.3c0.3-6.2,0.5-12.6,0.5-18.7c0.2-15.7-1-31.5-3.6-47
	c-2.9-16.9-7.5-31.2-13.9-41.4c-9.4,11.8-42.2,17.6-42.2,17.6c-5.2-3.1-9-10.2-10.9-14.6c-0.6-1.4-1.1-2.5-1.3-3.2
	c-0.6,1.1-1.4,2.2-2.2,3.2c-3.5,3.9-9,7.6-12.6,9.8l-0.1,0.1c-8.5,8.9-14.6,19.9-17.7,31.8c-3.8,15.2-6.1,42.7-7.3,71.3
	c-0.6,13-1,26-1.2,38.4v0.4c-0.1,1.3-0.1,2.6-0.1,3.9c-0.4,31.7,0,56.9,0.6,57.3c0.6,0.6,1.5,0.9,2.3,0.9c8.5-0.2,33.3,4.5,54.2,2.4
	c17.7-1.7,33.3-6.8,50.1-14.2c2.3-1,7.4-3.8,7.3-6.2C381.3,306.1,381,302.2,380.7,297.3z"/>
<path class="st8" d="M378.1,312.7c1.8-1.2,3.3-2.6,3.2-3.9c-0.1-2.7-0.3-6.6-0.7-11.5c-1.2-17-3.3-46.4-1.2-80.3
	c0.3-6.2,0.5-12.6,0.5-18.7c0.1-12.2-0.6-24.4-2-36.5l-2.6,2.9C375.4,164.8,345.1,301.2,378.1,312.7z"/>
<path class="st7" d="M172.9,140.3l-1.9-3.6c0,0,2.2-14.8-16.3-24.1c0,0-6.8-2.8-10.6,2.8c-3.5,5.1,6.7,4.2,6.1,12.8
	c-0.5,8.3,3.3,13.3,8.6,16.2C160.5,142.2,164.5,139.3,172.9,140.3z"/>
<rect x="148.8" y="83.2" transform="matrix(0.1518 -0.9884 0.9884 0.1518 10.3237 260.5313)" class="st5" width="16.3" height="82.1"/>
<polygon class="st9" points="97.5,115.1 115.1,126 117.6,109.9 "/>
<path class="st9" d="M207.3,129.2l-0.8,5.1c-0.5,3.1-3.4,5.3-6.5,4.8l0,0l-3.8-0.6l2.5-16.1l4.1,0.6
	C205.7,123.5,207.7,126.2,207.3,129.2L207.3,129.2z"/>
<path class="st7" d="M170.9,136.3c0,0,1.3-5.1-2.2-7.4c-3.5-2.3-6.8-8.5-8.3-7.7c-3.1,1.7,1.7,7.2,0.8,13.9
	C160.9,137.6,166.4,143.8,170.9,136.3z"/>
<path class="st7" d="M409.8,321c0,0-2,19.1-4.1,22.7s-11.3,15.1-15.2,17.5s2.4-15.2,1.6-18.6s-3.2,6.2-4.9,6.4s-1.3-8.4-1.3-11.6
	s8.4-10.9,11.3-17.6S409.8,321,409.8,321z"/>
<path class="st10" d="M341.3,71.9c0,0-9.9,18-28.7,23.1c-0.5-4-0.9-8-1-12.1L326.7,71L341.3,71.9z"/>
<path class="st7" d="M304.7,82.4c0,0,37.4,6.1,40.9-16.9s10.7-37.6-13-42.5s-29.7,3.2-32.7,10.6S295.1,80.3,304.7,82.4z"/>
<path class="st1" d="M352.3,98.3c0,0,23.6,11.2,35,28.4c17.6,26.7,37.9,123.9,38.3,133s-14.9,72.5-14.9,72.5s-15.5-1-19.5-8.8
	c0,0,3.1-65.3,1.1-69.5S328,166.2,335,148.4S352.3,98.3,352.3,98.3z"/>
<path class="st5" d="M363.5,30.9c-0.4-8.5-9.2-15.9-14.4-19.6l-0.3-0.2c-1.1-0.8-2-1.3-2.6-1.7L345.3,9l0.2-0.4
	c0.5-0.9,1.8-3,3.2-3.7c-17.7-8.1-34.6-1.1-34.6-1.1s1-2.9,0.8-3.8c-2.1,0.8-4,1.8-5.9,3c-2.2,1.4-4.2,3-6,4.8
	c-0.5,0.4-0.6,0.6-0.9,0.9s-1.4,2-0.8,1.2s-0.1,0.1-0.2,0.3c-9.4,15.4-5.5,20.2-5.5,20.2c1,1.2,2.3,1.5,4.7,1.9
	c5.7,0.8,21.2,2.1,24.6,4.8c6,4.8,0.3,12.8,7.1,15.6s12.2,2.8,11.1,9.1s1.6,10,1.6,10s1.4-3,3.5-7c2.7-5.2,6.7-12,10.2-16
	c2.8-3.2,3.7-12.1,1.3-20.9C361.1,28.7,362.4,29.8,363.5,30.9z"/>
<path class="st7" d="M331.6,47.1c-1,4-0.7,8.2,0.8,11.9c2.1,5,6.5,3.8,8.7-0.6c2-4,3.2-11.3-0.3-14.8S332.9,42.3,331.6,47.1z"/>
<path class="st5" d="M358.9,100.7c-1.6-0.9-3.3-1.8-4.5-2.3c-1-0.5-1.7-0.8-1.7-0.8s-0.4,0.3-1,0.8s-1.3,0.9-2.2,1.5
	c-7,4.5-14.8,7.6-23,9.2c-5.2,0.9-10.5,1.1-15.8,0.6c-0.5,0-0.9-0.1-1.3-0.1l-0.9-0.1l-0.5-0.1h-0.1l-2.4,1.9l-0.5,0.4l-5.6,4.4
	c-3.2,2.6-6.5,5.5-9.7,8.7l0.1,0.1c0,0,1.4-0.7,3.4-2l0.1-0.1c3.6-2.2,9.2-5.9,12.6-9.8c0.9-1,1.6-2,2.2-3.2
	c0.2,0.6,0.7,1.7,1.3,3.2c1.9,4.4,5.7,11.5,10.9,14.6c0,0,32.8-5.8,42.2-17.6c0.8-1,1.5-2.1,1.9-3.3c0.1-0.3,0.2-0.5,0.3-0.8
	C365.1,104.6,362,102.5,358.9,100.7z"/>
</svg>
