<svg id="Слой_1" data-name="Слой 1" xmlns="http://www.w3.org/2000/svg" viewBox="0 0 148.25 157.47"><defs><style>.cls-1{fill:#3b9cd0;opacity:0.11;}.cls-2{fill:#057be9;}</style></defs><path class="cls-1" d="M612.51,563.91c6.57-15.09-.23-29.38-12.24-41.46a99.37,99.37,0,0,0-8.94-7.9,150.1,150.1,0,0,0-21.84-14.1c-4.43-2.37-8.8-4.47-12.93-6.26a63.7,63.7,0,0,0-25.06-5.67c-28-.21-48.7,21.3-59,45-13.15,30.25,10.39,51,37.89,66.84C566.08,632.34,599.36,594.15,612.51,563.91Z" transform="translate(-466.81 -461.27)"/><path class="cls-2" d="M520.81,557.47V530a3.88,3.88,0,0,0-1.71-3.19,8.94,8.94,0,0,1-4-7.47V490.82A21.88,21.88,0,0,1,536.92,469h6.16a21.88,21.88,0,0,1,21.83,21.83v28.49a9,9,0,0,1-4,7.47,3.76,3.76,0,0,0-1.71,3.19v27.5a5.14,5.14,0,0,0,2.88,4.6,220.88,220.88,0,0,1,39.79,25.55,10,10,0,0,1,3.62,7.71v19.53a3.86,3.86,0,0,0,7.71,0V595.33a17.61,17.61,0,0,0-6.42-13.66,229.47,229.47,0,0,0-39.88-25.79v-24a16.66,16.66,0,0,0,5.72-12.61V490.82a29.52,29.52,0,0,0-29.52-29.55H536.9a29.53,29.53,0,0,0-29.51,29.55v28.49a16.72,16.72,0,0,0,5.72,12.59v24a230.87,230.87,0,0,0-39.88,25.8,17.57,17.57,0,0,0-6.42,13.65v19.53a3.86,3.86,0,0,0,7.71,0V595.37a10,10,0,0,1,3.62-7.71,224.18,224.18,0,0,1,39.8-25.56,5.24,5.24,0,0,0,2.88-4.63Z" transform="translate(-466.81 -461.27)"/><path class="cls-2" d="M551.89,572.52a2.79,2.79,0,0,0-3.67,1.47L531.45,613.1a2.8,2.8,0,0,0,5.14,2.21l16.76-39.12a2.8,2.8,0,0,0-1.46-3.67Zm0,0" transform="translate(-466.81 -461.27)"/><path class="cls-2" d="M527.82,581.73a2.8,2.8,0,0,0-3.93-.44l-14,11.18a2.8,2.8,0,0,0,0,4.36l14,11.18a2.8,2.8,0,1,0,3.49-4.37l-11.24-9,11.24-9a2.79,2.79,0,0,0,.44-3.92Zm0,0" transform="translate(-466.81 -461.27)"/><path class="cls-2" d="M574.88,592.47l-14-11.18a2.79,2.79,0,1,0-3.49,4.36l11.24,9-11.24,9a2.8,2.8,0,0,0,3.49,4.37l14-11.18a2.79,2.79,0,0,0,0-4.36Zm0,0" transform="translate(-466.81 -461.27)"/></svg>