<svg id="Слой_1" data-name="Слой 1" xmlns="http://www.w3.org/2000/svg" viewBox="0 0 589.52 1082"><defs><style>.cls-1{fill:#ffab7d;}.cls-2{fill:#e18d5b;}.cls-3{fill:#333;}.cls-4{fill:#057be9;}.cls-5{fill:#0672c9;}.cls-6{fill:#fff;}.cls-7{opacity:0.2;isolation:isolate;}.cls-8{fill:#ffdd67;}.cls-9{fill:#917524;}.cls-10{fill:#664e27;}.cls-11{fill:#cccfd4;}</style></defs><path class="cls-1" d="M399.1,125v7s-1.92,22.06,25.24,25.28,47.74-8.61,47-25.62c-2.46-13.18-5.14-22.22-5.31-33.13a75.93,75.93,0,0,1,1-13.21l-52.63-1.08-15.5,2.53Z" transform="translate(-200.93 36)"/><path class="cls-2" d="M398.89,86.81,399.1,125a44.66,44.66,0,0,0,19,4.19c24.19,0,39.82-17.73,48-30.61a76.92,76.92,0,0,1,1-13.21l-52.63-1.08Z" transform="translate(-200.93 36)"/><path class="cls-1" d="M395.83,105.34s67.4,13.62,75.23-28.49,21.83-68.7-20.9-79.17-54.09,4-60.11,17.45S378.5,100.72,395.83,105.34Z" transform="translate(-200.93 36)"/><path class="cls-3" d="M502.41,17.84c-.66-14.75-16-27.74-25.14-34.06l-.54-.38c-1.91-1.31-3.49-2.31-4.56-3s-1.5-.89-1.5-.89l.36-.64c.85-1.5,3.24-5.29,5.55-6.43-30.84-14.06-60.21-2-60.21-2s1.8-5,1.46-6.49c-4.56,1.22-15.21,7.37-22.89,16.62a119.23,119.23,0,0,1-18,3.24c0,1.32-3.06,25.1,7.23,33.07a41.84,41.84,0,0,0,4.75,2.58,18.59,18.59,0,0,0,3.48.66c9.88,1.33,36.92,3.58,42.92,8.42,10.36,8.4.48,22.24,12.34,27.17s21.24,4.94,19.27,15.8S469.71,89,469.71,89s2.47-5.28,6.17-12.27c4.77-9,11.6-20.92,17.72-27.88,4.9-5.56,6.38-21.16,2.22-36.43A40.79,40.79,0,0,1,502.41,17.84Z" transform="translate(-200.93 36)"/><path class="cls-1" d="M352-3.83s27.46-29.94,36-30.95S431.37-19,433.39-12.43,395-19,392.71-12.43,388-1.34,376.49-.84s-21.47,7-21.47,7Z" transform="translate(-200.93 36)"/><path class="cls-3" d="M319.05,1046c8.72-5.33,3.76-45,3.76-45s-40.64-32.52-46.23-7.57-38.61,36.08-57.41,39.12c-13,2.16-17,9.29-18.24,13.54Z" transform="translate(-200.93 36)"/><path class="cls-4" d="M326.29,1020.71c10.42-3.93,66.92-198.42,68.5-210.67,4.39-33.87,13.29-95.3,16.52-108,12.33-48.46,28-106.09,38.87-152-19.47-43.6-44.35-81.75-67.21-94.79-16.31,2-32,5-43.66,7.58A202.89,202.89,0,0,0,317.94,477c-1.81,9-4.45,24.11-6.58,43.53-1.37,12.71-2.53,27.28-3.07,43.27-3.87,113.07,15.89,236-34.51,436.49C272.41,1005.77,310.21,1026.8,326.29,1020.71Z" transform="translate(-200.93 36)"/><path class="cls-5" d="M311.4,520.47c8.4,42,28.61,131.89,99.94,181.61,12.34-48.46,28-106.09,38.87-152-19.47-43.6-44.35-81.75-67.21-94.79-16.3,2-32,5-43.66,7.58A202.89,202.89,0,0,0,318,477C316.17,486,313.53,501.05,311.4,520.47Z" transform="translate(-200.93 36)"/><path class="cls-3" d="M444.35,1046s3.68-20.16,9.52-31.82,42.95-4.24,42.95-4.24,7.42,6.36,9,36.06Z" transform="translate(-200.93 36)"/><path class="cls-4" d="M371.62,477.61s36.94,164.61,48.79,238.92c4.42,27.79,13.66,116.83,15.14,145,2,38.59,14.71,156.66,14.71,156.66s21.46-13.55,53.3-.89c0,0,8-52.94,13.15-163.8,1.51-32.51-4.78-81.32-4-97.17,3.74-78,28.65-279.54,8.85-292.47S371.62,477.61,371.62,477.61Z" transform="translate(-200.93 36)"/><path class="cls-6" d="M359-18.4s5.67,2.31,9.09,10.33c4.33,10.27.8,15.87.8,15.87s-71.32,64.69-66.68,76.48c2.42,6.14,57.68,38.55,80.64,51.8,9.44-.78,16.75-.71,17-.71h0s15.62,47.6,71.56-3.71c9.82,14.29,86,49.39,72.77,110Q539.45,263,536,282c-15.72,85.83-14.5,136.47-11.42,164.44,2.38,21.79,11.42,24,3.33,29.78,0,0-15.73,7.05-45.17,13.14a447,447,0,0,1-87.48,8.8c-57.55.36-79.33-19.47-79.33-19.47-15.23-14.9,14.9-73.57,12.48-115.84-1.23-21.72.13-96.05.34-130.2h0c-2.76-3-86.95-95.64-103.52-148.21h0a68.83,68.83,0,0,1-2-7.63C218.19,50.76,359-18.4,359-18.4Z" transform="translate(-200.93 36)"/><path class="cls-7" d="M524.6,446.37c-3.07-27.94-4.33-78.58,11.42-164.44q-1.62-5.12-3.24-9.82c-4.77-14.15-25-13.45-28.76,1C492.45,318.06,482,394.41,524.6,446.37Z" transform="translate(-200.93 36)"/><path class="cls-1" d="M541.78,399.44S506.79,378.29,496,381,461.58,393.88,463,400.11s28.78,10.51,33.54,9.73,12.43.13,15.54,2.82,27.91,3.69,30.93-3.57S541.78,399.44,541.78,399.44Z" transform="translate(-200.93 36)"/><path class="cls-6" d="M471.37,131.66s42.89,3.1,66.19,16.77C552.64,157.26,640,296.48,640,317s-91.76,93.18-91.76,93.18-17,5.66-17.63-21.47c0,0,45.76-67.65,43.36-75.48-1.51-4.93-69-59-69-59Z" transform="translate(-200.93 36)"/><path class="cls-7" d="M225.19,84.3C241.76,136.87,326,229.49,328.7,232.5h0c.24-.92,7.19-27.41-9.39-46.36C302.49,166.91,244.29,118.58,225.19,84.3Z" transform="translate(-200.93 36)"/><path class="cls-3" d="M487.55,134.17c.18-3.72-17.38-8.84-17.38-8.84S450,153.27,416.84,153.75c0,0,9.45,18.39,20.61,23.18C437.39,176.91,486.4,156.24,487.55,134.17Z" transform="translate(-200.93 36)"/><path class="cls-3" d="M416.79,153.73s-17.6-10.42-17.66-21.73c0,0-11.35-1.41-16.31,4.09,0,0-4.17,19.37,1.36,30.62C384.18,166.71,409.5,162.85,416.79,153.73Z" transform="translate(-200.93 36)"/><path class="cls-1" d="M446.79,45.91a32.53,32.53,0,0,0,1.49,20.81c3.72,8.65,11.34,6.66,15.14-1C466.84,58.84,469,46,463,39.92S449.09,37.62,446.79,45.91Z" transform="translate(-200.93 36)"/><path class="cls-4" d="M766.24,42.76H552.61A24.2,24.2,0,0,0,528.41,67V83.11c-.07.4-.13.81-.21,1.2A28.24,28.24,0,0,1,506.31,106c7.28,4.92,16,8.49,24.69,7.42a24.18,24.18,0,0,0,21.61,13.35H766.24a24.21,24.21,0,0,0,24.21-24.21V67A24.21,24.21,0,0,0,766.24,42.76Z" transform="translate(-200.93 36)"/><path class="cls-6" d="M586.46,82.57,578.36,70h5l5.79,9.35h.22L595.11,70h5L592,82.57l8.72,13.63h-5l-6.37-10.15h-.22L582.76,96.2h-5Z" transform="translate(-200.93 36)"/><path class="cls-6" d="M603.35,77.51h4.8L614,88.76h.19l5.75-11.25h4.84V96.2h-4V87.29l.22-3.51h-.22l-5.31,10.07h-2.82l-5.35-10.07h-.22l.22,3.51V96.2h-4Z" transform="translate(-200.93 36)"/><path class="cls-6" d="M629.36,77.51h4.8L640,88.76h.18l5.75-11.25h4.84V96.2h-4V87.29l.22-3.51h-.22l-5.31,10.07h-2.82l-5.35-10.07h-.22l.22,3.51V96.2h-4Z" transform="translate(-200.93 36)"/><path class="cls-6" d="M655.94,95.59a2.7,2.7,0,0,1-.82-2,2.63,2.63,0,0,1,.82-2,2.86,2.86,0,0,1,4,0,2.64,2.64,0,0,1,.83,2,2.82,2.82,0,0,1-4.82,2Z" transform="translate(-200.93 36)"/><path class="cls-6" d="M665.69,95.59a2.71,2.71,0,0,1-.83-2,2.64,2.64,0,0,1,.83-2,2.86,2.86,0,0,1,4,0,2.63,2.63,0,0,1,.82,2,2.7,2.7,0,0,1-.82,2,2.81,2.81,0,0,1-4,0Z" transform="translate(-200.93 36)"/><path class="cls-6" d="M675.43,95.59a2.7,2.7,0,0,1-.82-2,2.63,2.63,0,0,1,.82-2,2.75,2.75,0,0,1,2-.81,2.72,2.72,0,0,1,2,.81,2.64,2.64,0,0,1,.83,2,2.82,2.82,0,0,1-4.82,2Z" transform="translate(-200.93 36)"/><path class="cls-6" d="M689.59,86.16a5.86,5.86,0,0,1,.7-2.93,11.5,11.5,0,0,1,2.53-2.86,13.41,13.41,0,0,0,1.85-2,3.34,3.34,0,0,0,.56-1.94,3.1,3.1,0,0,0-1-2.35,3.69,3.69,0,0,0-2.65-.91,3.57,3.57,0,0,0-2.61,1,5.69,5.69,0,0,0-1.42,2.33L683.91,75a8.77,8.77,0,0,1,2.7-3.89,7.34,7.34,0,0,1,5-1.68,8.62,8.62,0,0,1,4,.9,6.6,6.6,0,0,1,2.73,2.49,6.69,6.69,0,0,1,1,3.57,5.81,5.81,0,0,1-.93,3.32,17.94,17.94,0,0,1-2.47,2.83,8.21,8.21,0,0,0-1.71,2,4.33,4.33,0,0,0-.49,2.09v1.06h-4.07Zm0,9.43a2.7,2.7,0,0,1-.82-2,2.63,2.63,0,0,1,.82-2,2.74,2.74,0,0,1,2-.81,2.77,2.77,0,0,1,2.78,2.79,2.73,2.73,0,0,1-.81,2,2.64,2.64,0,0,1-2,.83A2.72,2.72,0,0,1,689.61,95.59Z" transform="translate(-200.93 36)"/><circle class="cls-8" cx="728.21" cy="82.23" r="16.03" transform="translate(404.9 840.77) rotate(-86.83)"/><path class="cls-9" d="M718,71.91a7.59,7.59,0,0,1,6.44-.57c.29.12.76-1,.4-1.1a8.78,8.78,0,0,0-7.43.65C717.09,71.09,717.74,72.07,718,71.91Z" transform="translate(-200.93 36)"/><path class="cls-9" d="M731.75,73.62a7.62,7.62,0,0,1,6.44-.56c.29.11.76-1,.4-1.1a8.78,8.78,0,0,0-7.43.65C730.83,72.81,731.48,73.78,731.75,73.62Z" transform="translate(-200.93 36)"/><path class="cls-10" d="M723.71,84.93a10.76,10.76,0,0,1,8.61,1.48c.62.43-.53,2-1.14,1.55a8.8,8.8,0,0,0-6.95-1.19C723.5,87,722.94,85.14,723.71,84.93Z" transform="translate(-200.93 36)"/><path class="cls-6" d="M734.39,81.74A4.3,4.3,0,0,1,731,74.85a11.94,11.94,0,0,1,3.19-.43,11.37,11.37,0,0,1,3.82.63,4.25,4.25,0,0,1,.73,2.39A4.31,4.31,0,0,1,734.39,81.74Z" transform="translate(-200.93 36)"/><path class="cls-10" d="M735,74.45a2.09,2.09,0,0,1,.39,1.23,2.15,2.15,0,0,1-4.3,0,2.18,2.18,0,0,1,.21-.92,11.88,11.88,0,0,1,2.87-.34C734.43,74.42,734.71,74.43,735,74.45Z" transform="translate(-200.93 36)"/><path class="cls-6" d="M722,81.74a4.31,4.31,0,0,1-4.31-4.3,4.24,4.24,0,0,1,.88-2.59,11.83,11.83,0,0,1,3.19-.43,11.41,11.41,0,0,1,3.82.63,4.24,4.24,0,0,1,.72,2.39A4.3,4.3,0,0,1,722,81.74Z" transform="translate(-200.93 36)"/><path class="cls-10" d="M722.61,74.45a2.15,2.15,0,1,1-3.92,1.23,2,2,0,0,1,.22-.92,11.88,11.88,0,0,1,2.87-.34C722.06,74.42,722.34,74.43,722.61,74.45Z" transform="translate(-200.93 36)"/><path class="cls-6" d="M728.57,90.26c-2.41.59-8.5,1.31-9.63.18-.5-.51-.41-1.27-.25-2.58a2.84,2.84,0,0,0-2-2.82c-1.1-.14-1.74.66-1.35,1.83.86,2.55-.77,3.37-.84,5.27a7,7,0,0,0,1.27,5.26c1.87,2.64,5.14,2.67,6.27,2.64,1.33-.05,1.89-.1,2.2-.71s.19-.83.33-1.07c.31-.53.47-.47.61-1.06s-.3-1-.19-1.34c.23-.66.81-.56.23-2.14a12.17,12.17,0,0,0,4.38-1.26C731.67,91.28,729.85,90,728.57,90.26Z" transform="translate(-200.93 36)"/><path class="cls-11" d="M715.53,86.33c.42,1.91.54,2.56-.19,4.1-1,2.1-1.41,7.92,4.73,9,3.74.67,4.29-.25,4.13-1.22-.1-.63.43-.87.55-1.09.4-.71-.19-1-.2-1.3,0-.53.52-.51.6-1,.16-.93-.95-1.25,0-1.32a8.09,8.09,0,0,0,4.26-1.21c1-.72.31-2.11-1.07-1.82-3.22.68-8,1.51-9.64,0-.74-.68-.14-1.47-.21-3C718.43,85.38,715.15,84.6,715.53,86.33Zm4.35,14.07h0a6.85,6.85,0,0,1-4.56-2.73,7.25,7.25,0,0,1-1.39-5.19c0-.13,0-.26,0-.37a5.37,5.37,0,0,1,.59-2,3.57,3.57,0,0,0,.28-3,1.94,1.94,0,0,1,.26-1.94,1.85,1.85,0,0,1,1.65-.53h.08a3.35,3.35,0,0,1,2.41,3.38c-.15,1.25-.21,1.86.11,2.17,0,.06.25.2.86.31a27,27,0,0,0,8.23-.64,2.43,2.43,0,0,1,1,0A1.94,1.94,0,0,1,731,91.07c.08.39,0,1.14-1.17,1.83a11.45,11.45,0,0,1-4,1.22c.44,1.14-.63,1.57-.42,2a1.31,1.31,0,0,1-.42,1.75c-.46.43.1.91-.34,1.7s-1.37.93-2.64,1A10.39,10.39,0,0,1,719.88,100.4Z" transform="translate(-200.93 36)"/></svg>