<?xml version="1.0" encoding="utf-8"?>
<!-- Generator: Adobe Illustrator 24.1.2, SVG Export Plug-In . SVG Version: 6.00 Build 0)  -->
<svg version="1.1" id="Слой_1" xmlns="http://www.w3.org/2000/svg" xmlns:xlink="http://www.w3.org/1999/xlink" x="0px" y="0px"
	 viewBox="0 0 501 501" style="enable-background:new 0 0 501 501;" xml:space="preserve">
<style type="text/css">
	.st0{fill:#F3F3F3;}
	.st1{fill:#686868;}
</style>
<circle class="st0" cx="250.5" cy="250.5" r="250.5"/>
<g>
	<path class="st1" d="M185.7,328.3h-26.3v-24.2h26.3v-30.8h-26.3v-24.5h26.3V132.3h79.2c13.8,0,26.6,2.9,38.4,8.8
		c11.7,5.9,21.1,14.2,28,24.9c6.9,10.7,10.4,23,10.4,36.8c0,13.8-3.5,26.1-10.4,36.8c-6.9,10.7-16.2,19-28,24.9
		c-11.8,5.9-24.5,8.8-38.4,8.8h-49.8v30.8h47.4v24.2h-47.4v40.4h-29.4V328.3z M265.9,245.3c9.2,0,17.3-2,24.2-5.9
		c6.9-3.9,12.3-9.2,16.1-15.7c3.8-6.6,5.7-13.5,5.7-20.9c0-7.4-1.9-14.3-5.7-20.9c-3.8-6.6-9.2-11.8-16.1-15.7
		c-6.9-3.9-15-5.9-24.2-5.9h-50.8v85H265.9z"/>
</g>
</svg>
