<svg id="Слой_1" data-name="Слой 1" xmlns="http://www.w3.org/2000/svg" viewBox="0 0 501 501"><defs><style>.cls-1{fill:#f3f3f3;}.cls-2{fill:#686868;}</style></defs><circle class="cls-1" cx="250.5" cy="250.5" r="250.5"/><path class="cls-2" d="M676.77,466.51h0L643.5,418.83a9.6,9.6,0,0,0-8-4.15H444.44a9.62,9.62,0,0,0-7.94,4.15l-33.25,47.64h0A9.61,9.61,0,0,0,401.5,472v32.21A41.9,41.9,0,0,0,421,539.57V655.64a9.69,9.69,0,0,0,9.69,9.69H649.29a9.69,9.69,0,0,0,9.69-9.67V539.57a41.86,41.86,0,0,0,19.52-35.35V472A9.64,9.64,0,0,0,676.77,466.51ZM449.5,434.07h181l19.71,28.25H429.79ZM549.7,481.7h45v22.52a22.51,22.51,0,0,1-45,0Zm-64.4,0h45v22.52a22.51,22.51,0,0,1-45,0Zm-64.4,0h45v22.52a22.51,22.51,0,0,1-45,0ZM639.59,645.94H440.41v-100c1,.07,2,.14,3,.14A41.77,41.77,0,0,0,475.61,531a41.83,41.83,0,0,0,58.9,5.49A41.35,41.35,0,0,0,540,531a41.83,41.83,0,0,0,58.9,5.49,41.35,41.35,0,0,0,5.5-5.49,41.78,41.78,0,0,0,32.19,15.13c1,0,2-.07,3-.14Zm19.52-141.72a22.51,22.51,0,0,1-45,0V481.7h45Z" transform="translate(-289.5 -289.5)"/></svg>