<svg id="Слой_1" data-name="Слой 1" xmlns="http://www.w3.org/2000/svg" viewBox="0 0 501 501"><defs><style>.cls-1{fill:#f3f3f3;}.cls-2{fill:#686868;}</style></defs><circle class="cls-1" cx="250.5" cy="250.5" r="250.5"/><path class="cls-2" d="M540,388.67A151.33,151.33,0,1,0,691.33,540,151.24,151.24,0,0,0,540,388.67Zm0,279A127.69,127.69,0,1,1,667.69,540,127.62,127.62,0,0,1,540,667.69Zm0,0" transform="translate(-289.5 -289.5)"/><path class="cls-2" d="M540,515.37a11.82,11.82,0,0,0-11.82,11.82v76.14a11.82,11.82,0,1,0,23.64,0V527.19A11.82,11.82,0,0,0,540,515.37Zm0,0" transform="translate(-289.5 -289.5)"/><path class="cls-2" d="M556,484.93a16,16,0,1,1-16-16,16,16,0,0,1,16,16Zm0,0" transform="translate(-289.5 -289.5)"/></svg>