<svg id="Слой_1" data-name="Слой 1" xmlns="http://www.w3.org/2000/svg" viewBox="0 0 501 501"><defs><style>.cls-1{fill:#f3f3f3;}.cls-2{fill:#686868;}</style></defs><circle class="cls-1" cx="250.5" cy="250.5" r="250.5"/><path class="cls-2" d="M674.73,521.48h0l-116.2-116.2a26.21,26.21,0,0,0-37.07,0h0L405.32,521.39l-.12.13a26.21,26.21,0,0,0,17.45,44.67h5.44v85.5a30.71,30.71,0,0,0,30.68,30.67h45.47a8.34,8.34,0,0,0,8.34-8.34V607a14,14,0,0,1,14-14h26.84a14,14,0,0,1,14,14v67a8.34,8.34,0,0,0,8.34,8.35h45.46a30.73,30.73,0,0,0,30.69-30.69v-85.5h4.29a26.23,26.23,0,0,0,18.56-44.75Zm-11.82,25.27a9.46,9.46,0,0,1-6.73,2.79H643.54a8.34,8.34,0,0,0-8.35,8.32v0h0v93.85a14,14,0,0,1-14,14H584.08V607a30.71,30.71,0,0,0-30.66-30.65H526.58a30.72,30.72,0,0,0-30.69,30.68v58.7H458.77a14,14,0,0,1-14-14v-93.9a8.34,8.34,0,0,0-8.34-8.34H423.62a9.51,9.51,0,0,1-6.56-16.25h0L533.24,417.08a9.54,9.54,0,0,1,13.48,0l116.16,116.2,0,.05a9.54,9.54,0,0,1,0,13.47Z" transform="translate(-289.5 -289.5)"/></svg>