<svg id="Слой_1" data-name="Слой 1" xmlns="http://www.w3.org/2000/svg" viewBox="0 0 501 501"><defs><style>.cls-1{fill:#f3f3f3;}.cls-2{fill:#686868;}</style></defs><circle class="cls-1" cx="250.5" cy="250.5" r="250.5"/><path class="cls-2" d="M460.11,681.52a18.6,18.6,0,0,1-18.28-21.72l13.64-79.55-57.79-56.33A18.56,18.56,0,0,1,408,492.25l79.87-11.6,35.72-72.38a18.57,18.57,0,0,1,33.29,0l35.72,72.38,79.87,11.6a18.47,18.47,0,0,1,15,12.63h0a18.44,18.44,0,0,1-4.69,19l-57.8,56.34,13.64,79.55a18.55,18.55,0,0,1-18.3,21.7,18.67,18.67,0,0,1-8.63-2.13L540.2,641.81l-71.43,37.56A18.6,18.6,0,0,1,460.11,681.52Zm-44.24-169.2L478,572.92l-14.68,85.56,76.84-40.4L617,658.48l-14.68-85.56,62.18-60.6-85.91-12.48L540.21,422l-38.43,77.85Z" transform="translate(-289.5 -289.5)"/></svg>