<svg id="Слой_1" data-name="Слой 1" xmlns="http://www.w3.org/2000/svg" viewBox="0 0 501 501"><defs><style>.cls-1{fill:#f3f3f3;}.cls-2{fill:#686868;}</style></defs><circle class="cls-1" cx="250.5" cy="250.5" r="250.5"/><path class="cls-2" d="M646.29,467.48H589.1V444.43a19.93,19.93,0,0,0-19.9-19.9H510.8a19.93,19.93,0,0,0-19.9,19.9v23.05H433.71a26.45,26.45,0,0,0-26.42,26.42V629.05a26.45,26.45,0,0,0,26.42,26.42H646.29a26.45,26.45,0,0,0,26.42-26.42V493.9a26.45,26.45,0,0,0-26.42-26.42ZM507.76,444.43a3,3,0,0,1,3-3h58.4a3,3,0,0,1,3,3v23.05H507.76ZM424.14,493.9a9.58,9.58,0,0,1,9.57-9.57H646.29a9.58,9.58,0,0,1,9.57,9.57v12.48a26.61,26.61,0,0,1-19.08,25.42l-88.15,25.67a30.89,30.89,0,0,1-17.26,0L443.22,531.8a26.61,26.61,0,0,1-19.08-25.42ZM646.29,638.62H433.71a9.58,9.58,0,0,1-9.57-9.57V540.69a43.11,43.11,0,0,0,14.37,7.3c97.38,28.35,92.37,27.57,101.49,27.57s4,.81,101.49-27.57a43.11,43.11,0,0,0,14.37-7.3v88.36a9.58,9.58,0,0,1-9.57,9.57Zm0,0" transform="translate(-289.5 -289.5)"/></svg>