<?xml version="1.0" encoding="utf-8"?>
<!-- Generator: Adobe Illustrator 24.1.2, SVG Export Plug-In . SVG Version: 6.00 Build 0)  -->
<svg version="1.1" id="Слой_1" xmlns="http://www.w3.org/2000/svg" xmlns:xlink="http://www.w3.org/1999/xlink" x="0px" y="0px"
	 viewBox="0 0 396.7 127.3" style="enable-background:new 0 0 396.7 127.3;" xml:space="preserve">
<style type="text/css">
	.st0{fill:#FFFFFF;}
</style>
<path class="st0" d="M53.5,43.7h6.7v16.7H82V43.7h6.6v40H82v-17H60.2v17h-6.7V43.7z"/>
<path class="st0" d="M105.9,82.1c-3.1-1.8-5.6-4.5-7.3-7.7c-3.5-6.7-3.5-14.7,0-21.5c1.7-3.2,4.2-5.8,7.3-7.7
	c6.5-3.8,14.6-3.8,21.2,0c3.1,1.8,5.6,4.5,7.3,7.7c3.5,6.7,3.5,14.7,0,21.5c-1.7,3.2-4.2,5.8-7.3,7.7
	C120.5,85.8,112.4,85.8,105.9,82.1z M123.3,77.1c2.1-1.3,3.9-3.1,5.1-5.3c2.6-5.1,2.6-11.1,0-16.2c-1.2-2.2-2.9-4-5.1-5.3
	c-2.1-1.2-4.4-1.9-6.9-1.8c-5,0-9.6,2.7-12,7.1c-2.6,5.1-2.6,11.1,0,16.2c2.4,4.4,7,7.1,12,7.1C118.8,78.9,121.2,78.3,123.3,77.1
	L123.3,77.1z"/>
<path class="st0" d="M143.9,43.7h19.2c2.1,0,4.1,0.5,6,1.4c1.8,0.9,3.2,2.2,4.3,3.8c1,1.6,1.6,3.4,1.6,5.3c0,1.9-0.4,3.7-1.4,5.3
	c-0.9,1.5-2.1,2.7-3.7,3.5v0.3c1.8,0.7,3.4,1.9,4.7,3.4c1.2,1.5,1.8,3.4,1.8,5.3c0,2.1-0.5,4.2-1.7,6c-1.1,1.7-2.6,3.2-4.5,4.1
	c-1.9,1-4,1.5-6.1,1.5h-20.3L143.9,43.7z M162.8,60.5c1.5,0,2.9-0.5,4-1.5c2.1-2.1,2.2-5.5,0.1-7.7c0,0-0.1-0.1-0.1-0.1
	c-1.1-1-2.6-1.6-4.1-1.5h-12.2v10.8H162.8z M163.7,77.6c1.6,0,3.1-0.6,4.3-1.7c1.2-1.1,1.8-2.6,1.8-4.2c0-1.6-0.6-3.1-1.8-4.1
	c-1.1-1.1-2.7-1.7-4.3-1.7h-13.1v11.7H163.7z"/>
<path class="st0" d="M183.8,43.7h6.7v22.5l-0.3,7.5h0.3l21.5-30h6.6v40H212V61.2l0.3-7.5H212l-21.5,30h-6.7V43.7z"/>
<path class="st0" d="M228.5,43.7h6.7v16.7H257V43.7h6.6v40H257v-17h-21.8v17h-6.7L228.5,43.7z"/>
<path class="st0" d="M273.4,43.7h6.7v18.1h0.3l16.8-18.1h8.4V44l-18,18.6l18.8,20.7v0.3h-8.2l-17.9-20.2H280v20.2h-6.6V43.7z"/>
<path class="st0" d="M315.8,83.2c-2.2-1.1-4-2.7-5.3-4.8c-1.3-2.1-1.9-4.4-1.9-6.9c-0.2-3.9,1.6-7.6,4.8-9.9
	c3.2-2.4,7.2-3.6,12.1-3.6c2.3,0,4.5,0.2,6.7,0.8c1.7,0.4,3.3,1,4.8,1.8v-2.4c0.1-2.7-1.1-5.4-3.1-7.2c-2.2-1.8-5-2.8-7.9-2.7
	c-2.2,0-4.3,0.5-6.2,1.5c-1.8,0.9-3.4,2.3-4.5,4l-5-3.8c1.6-2.4,3.8-4.4,6.5-5.7c2.8-1.4,6-2,9.1-2c5.4,0,9.7,1.4,12.8,4.3
	c3.1,2.8,4.6,6.7,4.6,11.6v25.3h-6.3v-5.7h-0.3c-1.3,2.1-3.1,3.8-5.2,4.9c-2.4,1.4-5,2-7.8,2C320.9,84.9,318.2,84.4,315.8,83.2z
	 M330.5,77.3c1.9-1.1,3.5-2.7,4.6-4.6c1.1-1.9,1.7-4.1,1.7-6.3c-1.4-0.9-3-1.6-4.6-2c-1.9-0.5-3.8-0.8-5.8-0.8
	c-3.7,0-6.4,0.8-8.3,2.3c-1.8,1.4-2.8,3.6-2.8,5.9c-0.1,2.1,0.9,4.1,2.5,5.3c1.8,1.4,4.1,2.1,6.3,2C326.5,79,328.6,78.4,330.5,77.3z
	"/>
<path class="st0" d="M333.1,127.3H63.7C28.5,126.9,0.4,98,0.8,62.9C1.2,28.3,29.1,0.4,63.7,0h269.4c35.2,0.4,63.3,29.3,62.9,64.5
	C395.5,99,367.6,126.9,333.1,127.3z M63.7,9.8c-29.8,0.4-53.5,24.9-53.1,54.6c0.4,29.2,24,52.7,53.1,53.1h269.4
	c29.8-0.4,53.5-24.9,53.1-54.6c-0.4-29.2-24-52.7-53.1-53.1H63.7z"/>
</svg>
