<svg id="Слой_1" data-name="Слой 1" xmlns="http://www.w3.org/2000/svg" viewBox="0 0 396.73 127.34"><defs><style>.cls-1{fill:#3b9cd0;}</style></defs><title>new</title><path class="cls-1" d="M568.3,625.27H575V642h21.78V625.27h6.59v40h-6.59v-17H575v17H568.3Z" transform="translate(-514.8 -581.58)"/><path class="cls-1" d="M620.66,663.67a19.75,19.75,0,0,1-7.33-7.68,23.24,23.24,0,0,1,0-21.48,19.66,19.66,0,0,1,7.33-7.67,21.24,21.24,0,0,1,21.15,0,19.66,19.66,0,0,1,7.33,7.67,23.32,23.32,0,0,1,0,21.48,19.75,19.75,0,0,1-7.33,7.68,21.24,21.24,0,0,1-21.15,0Zm17.43-5a13.79,13.79,0,0,0,5.09-5.29,17.94,17.94,0,0,0,0-16.15,13.58,13.58,0,0,0-5.09-5.29,13.39,13.39,0,0,0-6.86-1.84,13.63,13.63,0,0,0-12,7.13,17.94,17.94,0,0,0,0,16.15,13.59,13.59,0,0,0,12,7.12A13.48,13.48,0,0,0,638.09,658.62Z" transform="translate(-514.8 -581.58)"/><path class="cls-1" d="M658.74,625.27h19.2a13.36,13.36,0,0,1,6,1.37,10.7,10.7,0,0,1,4.31,3.8,9.61,9.61,0,0,1,1.57,5.33,10.25,10.25,0,0,1-1.37,5.29,9,9,0,0,1-3.65,3.49v.31a11.07,11.07,0,0,1,4.67,3.44,8.52,8.52,0,0,1,1.76,5.33,11,11,0,0,1-1.65,6,11.41,11.41,0,0,1-4.46,4.11,12.82,12.82,0,0,1-6.11,1.5h-20.3Zm18.89,16.85a5.59,5.59,0,0,0,4-1.54,5.42,5.42,0,0,0,0-7.75,5.73,5.73,0,0,0-4.07-1.52H665.4v10.81Zm.86,17.08a6,6,0,0,0,4.27-1.68,5.57,5.57,0,0,0,1.76-4.19,5.48,5.48,0,0,0-1.76-4.13,6,6,0,0,0-4.27-1.68H665.4V659.2Z" transform="translate(-514.8 -581.58)"/><path class="cls-1" d="M698.63,625.27h6.66v22.49l-.31,7.52h.31l21.55-30h6.59v40h-6.59V642.75l.32-7.53h-.32l-21.55,30h-6.66Z" transform="translate(-514.8 -581.58)"/><path class="cls-1" d="M743.29,625.27H750V642h21.78V625.27h6.58v40h-6.58v-17H750v17h-6.67Z" transform="translate(-514.8 -581.58)"/><path class="cls-1" d="M788.2,625.27h6.66v18.1h.31L812,625.27h8.39v.32l-18,18.64,18.81,20.69v.32H813l-17.87-20.15h-.31v20.15H788.2Z" transform="translate(-514.8 -581.58)"/><path class="cls-1" d="M830.59,664.77a13,13,0,0,1-5.32-4.75,12.62,12.62,0,0,1-1.88-6.86,11.69,11.69,0,0,1,4.77-9.91q4.79-3.57,12.08-3.56a27.28,27.28,0,0,1,6.69.78,17.92,17.92,0,0,1,4.75,1.8v-2.42a9,9,0,0,0-3.14-7.18,11.75,11.75,0,0,0-7.91-2.7,13.33,13.33,0,0,0-6.2,1.45,11.45,11.45,0,0,0-4.46,4l-5-3.76a16,16,0,0,1,6.47-5.65,20.37,20.37,0,0,1,9.13-2q8.15,0,12.81,4.26T858,639.92v25.32h-6.34v-5.72h-.32a14.3,14.3,0,0,1-5.17,4.93,15,15,0,0,1-7.76,2A17.31,17.31,0,0,1,830.59,664.77Zm14.74-5.89a13,13,0,0,0,4.62-4.62,12.16,12.16,0,0,0,1.73-6.35,17,17,0,0,0-4.63-2,21.42,21.42,0,0,0-5.79-.78c-3.66,0-6.42.77-8.27,2.28a7.22,7.22,0,0,0-2.79,5.87,6.54,6.54,0,0,0,2.51,5.33,9.68,9.68,0,0,0,6.35,2A12.09,12.09,0,0,0,845.33,658.88Z" transform="translate(-514.8 -581.58)"/><path class="cls-1" d="M847.86,708.93H578.47a63.68,63.68,0,0,1,0-127.35H847.86a63.68,63.68,0,0,1,0,127.35ZM578.47,591.38a53.88,53.88,0,0,0,0,107.75H847.86a53.88,53.88,0,0,0,0-107.75Z" transform="translate(-514.8 -581.58)"/></svg>