<svg id="Слой_1" data-name="Слой 1" xmlns="http://www.w3.org/2000/svg" viewBox="0 0 147.53 137.5"><defs><style>.cls-1,.cls-2{fill:#fff;}.cls-1{opacity:0.11;isolation:isolate;}</style></defs><path class="cls-1" d="M136.42,31.26c12.84,11.64,12.52,28.3,6.23,45.1a102.29,102.29,0,0,1-5.18,11.5,158.72,158.72,0,0,1-14.84,23c-3.22,4.19-6.51,8.1-9.69,11.62a67.3,67.3,0,0,1-21.56,16.34c-26.78,12.35-55.95.7-76.11-17.56C-10.47,97.93,3.11,67.79,22.65,40.67,62.18-14.28,110.68,7.94,136.42,31.26Z" transform="translate(-0.24 -6.42)"/><path class="cls-2" d="M145.16,35.87a2.46,2.46,0,0,0,1.55-4.47l-27-22.1a2.46,2.46,0,0,0-3,0c-31.87,23.91-29.42,22-29.79,22.39-40-11.42-37.1-10.73-38-10.56L2.23,31a2.47,2.47,0,0,0-1.94,1.9,2.44,2.44,0,0,0,1,2.52l15.05,11.2-15,11.57a2.45,2.45,0,0,0,1,4.34L50,71.81l6.51,4.91L59.22,92,39.78,138a2.45,2.45,0,0,0,4,2.65l48.67-51,23.94-7.17a2.44,2.44,0,0,0,1.74-2.18c2.92-44.44,2.46-33.64,2.46-46.65l24.55,2.21ZM96.59,83.25,115,53.05,113.24,78.2ZM49.4,127.6C66.44,87.43,62.69,96.46,68,83.06L86.6,88.63l-37.2,39Zm-29.09-78L40.86,65.06,8.45,58.85Zm34.91,20L8.57,34.69l38.87-8.18ZM114.37,44.7,90,84.43,67.3,77.61a2.44,2.44,0,0,0-3,1.59l-1.72,4.3L52.52,27Zm1.33-4.78L93.92,32.55,115.7,16.22Zm21.7-9.63-16.79-1.52V16.49Zm-16.79-13.8" transform="translate(-0.24 -6.42)"/></svg>