<svg id="Слой_1" data-name="Слой 1" xmlns="http://www.w3.org/2000/svg" viewBox="0 0 144.97 143.82"><defs><style>.cls-1{fill:#3b9cd0;opacity:0.11;isolation:isolate;}.cls-2{fill:#057be9;}</style></defs><path class="cls-1" d="M121.13,135.22c-10.95,13.44-27.61,14-44.72,8.59a103.46,103.46,0,0,1-11.75-4.57,157.23,157.23,0,0,1-23.73-13.62c-4.36-3-8.44-6.07-12.11-9.06A67.16,67.16,0,0,1,11.37,95.89C-2.37,69.79,7.73,40.05,24.91,19,46.85-8,77.66,4,105.76,22.1,162.72,58.7,143.06,108.3,121.13,135.22Z" transform="translate(-1.51 -3.19)"/><path class="cls-2" d="M146.44,29.64a.59.59,0,0,0,0-.17,3.41,3.41,0,0,0,0-.55v-.13a2.49,2.49,0,0,0-.25-.69l-.07-.12v0a0,0,0,0,1,0,0,.2.2,0,0,1,0-.09,2.35,2.35,0,0,0-.54-.55s-.1,0-.14-.08a2.55,2.55,0,0,0-.57-.29,2.14,2.14,0,0,1-.27-.06,3.19,3.19,0,0,0-.54,0l-.29,0h-.19l-140.1,29a2.42,2.42,0,0,0-.64,4.5L42.94,81.5,50,120.57a.26.26,0,0,0,0,.09,2.81,2.81,0,0,0,0,.58,1.26,1.26,0,0,0,0,.28,1.88,1.88,0,0,0,.26.64,1,1,0,0,0,0,.13.08.08,0,0,1,0,0l.1.11a2.23,2.23,0,0,0,.37.38.19.19,0,0,0,.07.06l.11.06a3.37,3.37,0,0,0,.45.25l.21.07a2.39,2.39,0,0,0,.66.1h.16a2.41,2.41,0,0,0,1.72-.76L81,104.78,109,123a2.53,2.53,0,0,0,1.33.38,2.17,2.17,0,0,0,.76-.13,2.35,2.35,0,0,0,1.5-1.45l33.79-91.69.07-.26s0-.07,0-.1a.28.28,0,0,0,0-.09ZM118.49,45.05,60.58,87.63a2.73,2.73,0,0,0-.25.23.76.76,0,0,1-.09.09c-.06.06-.09.12-.14.17a1.88,1.88,0,0,0-.12.18,2.17,2.17,0,0,0-.22.46s0,0,0,.08,0,0,0,0l-6.63,21.57L47.81,81.25Zm-61.68,70,6.58-21.73L73.63,100l2.94,1.9-10,6.64Zm70.33-79.89-82,42L11,59.2Zm-18.07,82.09L71.89,93.11l-5.64-3.66L139,35.94Zm0,0" transform="translate(-1.51 -3.19)"/></svg>