<svg id="Слой_1" data-name="Слой 1" xmlns="http://www.w3.org/2000/svg" viewBox="0 0 795.32 186.71"><defs><style>.cls-1{fill:#057be9;}</style></defs><path class="cls-1" d="M701.31,5.15A93.35,93.35,0,1,0,794.66,98.5,93.35,93.35,0,0,0,701.31,5.15Zm-13.43,76a62.57,62.57,0,0,0-6.53-2.06,24.14,24.14,0,0,0-5.68-.64,16.06,16.06,0,0,0-13.2,6q-4.89,6-4.88,15.23v36.48H638.78l0-73.23H656.4v9.78h1.14a21.65,21.65,0,0,1,8.51-8.57,24.48,24.48,0,0,1,12.65-3.42,25.89,25.89,0,0,1,9.18,1.58Zm76,22.39a37.14,37.14,0,0,1-2.76,14.71,25.88,25.88,0,0,1-7.54,10.22,33.72,33.72,0,0,1-10.85,5.78,42.55,42.55,0,0,1-13,1.95,45.66,45.66,0,0,1-10.55-1.2,33.66,33.66,0,0,1-9.36-3.77,28.78,28.78,0,0,1-7.52-6.32,28.08,28.08,0,0,1-5-9.23,38.47,38.47,0,0,1-1.82-12.14v-41h18.89v39.29c0,5.67,1.41,9.94,4.2,12.7s6.53,4.15,11.15,4.15,8.36-1.4,11.15-4.15,4.19-7,4.19-12.7V62.54h18.82Z" transform="translate(0.66 -5.15)"/><path class="cls-1" d="M-.66,52.64H21v12h1.4A26.51,26.51,0,0,1,32.87,54.13a30.12,30.12,0,0,1,15.52-4.2,31.86,31.86,0,0,1,11.27,1.94V75a76.93,76.93,0,0,0-8-2.53,29.69,29.69,0,0,0-7-.79q-10.22,0-16.21,7.41t-6,18.71v44.77H-.61Z" transform="translate(0.66 -5.15)"/><path class="cls-1" d="M186.38,52.69h21.68V64h1.46a30.15,30.15,0,0,1,11.36-10.32,33.71,33.71,0,0,1,15.93-3.8,30.16,30.16,0,0,1,16.57,4.49,25.51,25.51,0,0,1,10.06,11.37A33.82,33.82,0,0,1,275.5,54.22a35.75,35.75,0,0,1,18.06-4.42q15.35,0,23.37,9.43t8,25.46v57.84H302.05V88.94q0-8.46-4-13t-11-4.58a17.09,17.09,0,0,0-14.36,7.15q-5.35,7.14-5.36,18.78v45.26H244.26V88.92q0-8.46-4.15-13T228.37,71.3a16.13,16.13,0,0,0-13.66,7.15q-5.19,7.15-5.19,18.78V142.5H186.43Z" transform="translate(0.66 -5.15)"/><path class="cls-1" d="M346.25,52.76H368V63.65h1.4a29.65,29.65,0,0,1,10.75-9.79,32.71,32.71,0,0,1,16.21-4A41.59,41.59,0,0,1,434,73a52.93,52.93,0,0,1,5.67,24.67,52.88,52.88,0,0,1-5.63,24.77,42.22,42.22,0,0,1-15.58,16.93,41.57,41.57,0,0,1-22.12,6.08,33.65,33.65,0,0,1-16.31-3.87,27.18,27.18,0,0,1-10.66-9.69H368l1.43,12.69v36.14H346.29Zm58.22,68a24.39,24.39,0,0,0,9-9.34,29.85,29.85,0,0,0,0-27.49,24,24,0,0,0-21.19-12.5,23.4,23.4,0,0,0-12,3.27,23.89,23.89,0,0,0-9,9.22,29.89,29.89,0,0,0,0,27.48,24.54,24.54,0,0,0,9,9.34,23,23,0,0,0,12,3.36A23.38,23.38,0,0,0,404.47,120.76Z" transform="translate(0.66 -5.15)"/><path class="cls-1" d="M458,52.64h23.1l.06,89.89H458.08Z" transform="translate(0.66 -5.15)"/><path class="cls-1" d="M527.49,96.9l-31-44.22H523.8l17.07,25.69h1.06l16-25.75h28.2L554.63,96.88l31.58,45.63H558.89L541.6,116.26h-1.06l-16.9,26.27H496.32Z" transform="translate(0.66 -5.15)"/><path class="cls-1" d="M143.18,52.67v10.9h-1.4A29.64,29.64,0,0,0,131,53.78a32.55,32.55,0,0,0-16.21-4A41.57,41.57,0,0,0,77.08,72.88,53,53,0,0,0,71.4,97.56,52.91,52.91,0,0,0,77,122.33a42.15,42.15,0,0,0,15.58,16.93,41.66,41.66,0,0,0,22.12,6.08,33.49,33.49,0,0,0,14.19-2.86c.72-.31,1.42-.65,2.11-1a27.26,27.26,0,0,0,10.66-9.69h1.48l-1.2,10.7h22.87l0-89.81Zm-3.37,58.65a24.51,24.51,0,0,1-9,9.33,23,23,0,0,1-12,3.37,23.36,23.36,0,0,1-12.19-3.33,24.44,24.44,0,0,1-9-9.35,29.89,29.89,0,0,1,0-27.48,24,24,0,0,1,21.18-12.52,23.59,23.59,0,0,1,12,3.26,23.93,23.93,0,0,1,9,9.22A29.81,29.81,0,0,1,139.81,111.32Z" transform="translate(0.66 -5.15)"/><rect class="cls-1" x="458.67" y="11.16" width="23.16" height="23.16"/></svg>