<svg id="Слой_1" data-name="Слой 1" xmlns="http://www.w3.org/2000/svg" viewBox="0 0 506.63 708.16"><defs><style>.cls-1{fill:#3b9cd0;opacity:0.11;}.cls-2{fill:#333;}.cls-3{fill:#ffab7d;}.cls-4{fill:#fff;}.cls-5{opacity:0.2;}.cls-6{fill:#057be9;}.cls-7{fill:#0672c9;}.cls-8{fill:#e18d5b;}.cls-9{fill:#686868;}</style></defs><path class="cls-1" d="M792.86,527.8c0,97.36-86.37,150-191.66,161.49l-2.12.23q-9.78,1-19.75,1.56h0q-11.58.63-23.37.63h-1.38a341.45,341.45,0,0,1-40.44-2.49c-150.23-18.28-227.9-134.38-227.9-236.33,0-111,145.85-189.91,269.72-163.24C677.77,315.88,792.86,416.78,792.86,527.8Z" transform="translate(-286.23 -219.84)"/><path class="cls-2" d="M545.64,901.61s2.06,23.84-3,26.32l-64.51-.13s0-7.44,10.36-9.1,28.57-7.72,31.65-21.23S545.64,901.61,545.64,901.61Z" transform="translate(-286.23 -219.84)"/><path class="cls-2" d="M706.35,874.5s11.48,10.48,9.24,17.93-12.6,12.41-14,21.51-7,14.06-12,14.06h-24s-3.71-6.4,5.25-8.33S683.1,907,682.54,897.12s.84-23.17.84-23.17l19-4.41Z" transform="translate(-286.23 -219.84)"/><path class="cls-3" d="M399.82,296.5s10.63-18.88,0-22.72-15.43-.3-15.94,4S387.93,299,387.93,299Z" transform="translate(-286.23 -219.84)"/><path class="cls-4" d="M391.31,417.26a343.67,343.67,0,0,0,53.25,5.47,297.82,297.82,0,0,0,40.94-1.84c3.22-.37,6.31-.79,9.28-1.24,31.37-4.75,48.69-13.19,48.69-13.19s-28.66-60-51.81-57.68c-27.16,2.71-73.18,27.08-77.76,20.24-5.15-7.7-9.46-73.74-9.46-73.74-12-8.25-19.23.44-19.23.44S361.69,411.92,391.31,417.26Z" transform="translate(-286.23 -219.84)"/><path class="cls-5" d="M391.31,417.26a343.67,343.67,0,0,0,53.25,5.47,297.82,297.82,0,0,0,40.94-1.84c7.23-23,12.42-46.45-2.11-32.3C457.76,413.55,391.31,417.26,391.31,417.26Z" transform="translate(-286.23 -219.84)"/><path class="cls-6" d="M498.28,613c.32,15.59,1.07,31.68,2.53,46.13,7,68.6,9.42,151.48,10.42,167.45,1.74,27.74,7.22,72.05,7.22,72.05s10.86,10.32,32,5.4c0,0,17.55-63.83,21.47-131l.18-3.32c.46-8.88.93-19,1.42-30,3.22-73.37,6.73-182.37,6.73-182.37l-80.95-19S497.48,574.11,498.28,613Z" transform="translate(-286.23 -219.84)"/><path class="cls-7" d="M498.28,613c20.52,35.4,59.62,100.61,75.29,126.68,3.22-73.37,6.73-182.37,6.73-182.37l-80.95-19S497.48,574.11,498.28,613Z" transform="translate(-286.23 -219.84)"/><path class="cls-3" d="M703.26,544.41s13.17,15.49,14.36,19.79,3.29,19.77,2.16,24.42-9.89-13-13.07-14.85,2.39,7,1.3,8.49-7.38-5.19-9.83-7.44S696,560.41,693,553.22,703.26,544.41,703.26,544.41Z" transform="translate(-286.23 -219.84)"/><path class="cls-6" d="M512.1,559s75.79,162.14,116.11,233.29,52.93,91,52.93,91,23.11-9.1,25.21-15.31c0,0-15.42-137.35-42.43-170.83-15.26-18.92-33.19-75.69-34-95.55s-18.54-67.24-18.54-67.24Z" transform="translate(-286.23 -219.84)"/><path class="cls-4" d="M490,566.6s30.13,20.14,72.79,18.27c18.71-.82,55.85-6.12,61.84-21,1.41-3.49.37-7.93-1.74-14.74-5.48-17.69-18.24-51.39-14.39-126.1a122.15,122.15,0,0,0-.5-19.61c-4-36.8-25.11-58.59-45.49-65.71-49.71-17.38-66.29,6.69-66.29,6.69s-22,17.41-25.28,53.74C464.27,470.81,490,566.6,490,566.6Z" transform="translate(-286.23 -219.84)"/><path class="cls-3" d="M547.89,333.52s-22.81,13.88-47.55,10c0,0-4.89-1.24-2.49-7a75.55,75.55,0,0,1-2.19-7.66,115.34,115.34,0,0,1-2.83-12.5l14-14.76,13.29-14.1C523.84,321.17,547.89,333.52,547.89,333.52Z" transform="translate(-286.23 -219.84)"/><path class="cls-8" d="M522.29,300.25s-7.64,20.42-26.63,28.58c-2.17-7.93-3.58-16.22-3.58-16.22l14.79-11Z" transform="translate(-286.23 -219.84)"/><path class="cls-3" d="M477.07,315.61s43.54,5.45,46.6-21.31,10.74-44.07-16.94-48.68-34.24,5-37.47,13.7S465.83,313.51,477.07,315.61Z" transform="translate(-286.23 -219.84)"/><polygon class="cls-9" points="118.21 64.14 192.13 64.8 192.63 53.67 118.94 47.97 118.21 64.14"/><polygon class="cls-9" points="62.41 65.99 142.89 67.16 143.81 46.94 63.56 40.72 62.41 65.99"/><polygon class="cls-2" points="8.15 67.58 76.01 67.67 77.25 40.37 9.66 34.22 8.15 67.58"/><path class="cls-2" d="M293.41,292h0a3.8,3.8,0,0,1-3.62-4L291.38,253a3.79,3.79,0,0,1,4-3.61h0a3.78,3.78,0,0,1,3.61,4l-1.59,35.06A3.8,3.8,0,0,1,293.41,292Z" transform="translate(-286.23 -219.84)"/><path class="cls-9" d="M478.59,287h0a3.38,3.38,0,0,0,3.52-3.22l.42-9.1a3.38,3.38,0,0,0-3.22-3.52h0a3.38,3.38,0,0,0-3.52,3.22l-.42,9.1A3.38,3.38,0,0,0,478.59,287Z" transform="translate(-286.23 -219.84)"/><path class="cls-5" d="M622.84,549.12c-5.48-17.69-18.24-51.39-14.39-126.1a122.15,122.15,0,0,0-.5-19.61h0c-16.36-1.4-41.37,16.28-41.37,16.28S582,513.59,622.84,549.12Z" transform="translate(-286.23 -219.84)"/><path class="cls-4" d="M547.89,333.52s42,7.21,63.83,33.92,57.08,64.38,65.4,77.57S708.54,548,708.54,548s-1.52,2.89-7.89,4.57a15.08,15.08,0,0,1-10.53-.89s-30.6-52.38-42.12-78.55c-4.79-10.87-87.56-53.92-118.67-49.46C517.11,425.37,547.89,333.52,547.89,333.52Z" transform="translate(-286.23 -219.84)"/><path class="cls-3" d="M404.88,264.62s-9,5.52-14.42,3.18-4.92-4.47-4.92-4.47S401.85,258.81,404.88,264.62Z" transform="translate(-286.23 -219.84)"/><path class="cls-2" d="M533.7,321.12s5.83,1.31,19.18,12.4c0,0-13.27,28.17-41.27,31.54,0,0,.45-13.07-1.57-20.83C510,344.23,532.23,336.29,533.7,321.12Z" transform="translate(-286.23 -219.84)"/><path class="cls-2" d="M510,344.23s-13.66,7.25-14.67,18.55c0,0-5.23-8.27-3.71-14s6.19-12.29,6.19-12.29S497.39,343.39,510,344.23Z" transform="translate(-286.23 -219.84)"/><path class="cls-2" d="M543.3,254.27c-.41-9.47-10.24-17.7-16.06-21.76l-.34-.24c-1.22-.84-2.23-1.48-2.91-1.9l-1-.56s.09-.18.23-.41c.54-1,2-3.39,3.54-4.11-19.7-9-38.46-1.27-38.46-1.27s1.14-3.17.93-4.18a39.75,39.75,0,0,0-6.56,3.39,40.57,40.57,0,0,0-6.73,5.35c-.5.49-.68.67-1,1s-1.53,2.27-.91,1.28-.09.15-.19.32c-10.49,17.09-6.14,22.52-6.14,22.52,1.07,1.33,2.6,1.71,5.26,2.07,6.31.85,23.59,2.29,27.41,5.38,6.63,5.37.32,14.2,7.89,17.36s13.57,3.15,12.31,10.1,1.77,11.14,1.77,11.14,1.59-3.38,3.94-7.84c3.06-5.78,7.41-13.37,11.33-17.82,3.13-3.56,4.07-13.52,1.42-23.27A25.77,25.77,0,0,1,543.3,254.27Z" transform="translate(-286.23 -219.84)"/><path class="cls-3" d="M507.77,272.2a20.8,20.8,0,0,0,1,13.3c2.38,5.5,7.25,4.25,9.68-.64,2.19-4.4,3.58-12.57-.29-16.48S509.24,266.9,507.77,272.2Z" transform="translate(-286.23 -219.84)"/></svg>