<svg id="Capa_1" data-name="Capa 1" xmlns="http://www.w3.org/2000/svg" viewBox="0 0 435.16 420.66"><defs><style>.cls-1{fill:#057be9;}</style></defs><path class="cls-1" d="M451.82,45.67H60.18A21.78,21.78,0,0,0,38.42,67.43V444.57a21.78,21.78,0,0,0,21.76,21.76H451.82a21.78,21.78,0,0,0,21.76-21.76V67.43a21.78,21.78,0,0,0-21.76-21.76ZM60.18,60.18H451.82a7.26,7.26,0,0,1,7.26,7.25v36.26H52.92V67.43a7.26,7.26,0,0,1,7.26-7.25ZM451.82,451.82H60.18a7.26,7.26,0,0,1-7.26-7.25V118.2H459.08V444.57A7.26,7.26,0,0,1,451.82,451.82Z" transform="translate(-38.42 -45.67)"/><circle class="cls-1" cx="41.7" cy="37.33" r="10.7"/><circle class="cls-1" cx="127.1" cy="37.33" r="10.7"/><circle class="cls-1" cx="84.4" cy="37.33" r="10.7"/><path class="cls-1" d="M128.21,333.65q-10.73-7.86-14.8-22.06l16-6.49A30.11,30.11,0,0,0,138,319.68a20.9,20.9,0,0,0,14.72,5.66,22.16,22.16,0,0,0,13.6-4.15,13.45,13.45,0,0,0,5.59-11.41A13.93,13.93,0,0,0,167,298.83q-4.92-4.31-17.15-8.68l-6.8-2.42a49.24,49.24,0,0,1-18.27-10.88q-7.41-7.1-7.4-18.73a26.8,26.8,0,0,1,4.38-14.8,31,31,0,0,1,12.16-10.8,37.85,37.85,0,0,1,17.59-4q14.21,0,22.66,6.87t11.33,15.48l-15.26,6.5a19.73,19.73,0,0,0-6.34-9.06q-4.68-3.93-12.08-3.93a20.32,20.32,0,0,0-12.47,3.77,11.59,11.59,0,0,0-5.06,9.67,11.3,11.3,0,0,0,4.54,9.22q4.53,3.61,14.2,6.94l6.79,2.27q13.91,4.83,21.53,12.61t7.63,20.77q0,10.58-5.44,17.75A32.92,32.92,0,0,1,169.68,338a44.91,44.91,0,0,1-17.3,3.47A39.88,39.88,0,0,1,128.21,333.65Z" transform="translate(-38.42 -45.67)"/><path class="cls-1" d="M208.27,230.93H274V247.1H225.19V277h43.95v16H225.19v29.9H274v16.17h-65.7Z" transform="translate(-38.42 -45.67)"/><path class="cls-1" d="M314,334a53.92,53.92,0,0,1-20.16-20.47,59.11,59.11,0,0,1,0-57A54.63,54.63,0,0,1,314,236.07a56.06,56.06,0,0,1,77.19,20.47,56.29,56.29,0,0,1,7.4,28.47,57.07,57.07,0,0,1-7.33,28.55A53.92,53.92,0,0,1,371.1,334a58.29,58.29,0,0,1-57.1,0Zm48.19-13.83a37.1,37.1,0,0,0,14-14.27,45.14,45.14,0,0,0,0-41.84,37.1,37.1,0,0,0-14-14.27,40.09,40.09,0,0,0-39.28,0,37.72,37.72,0,0,0-14.12,14.27,44.61,44.61,0,0,0,0,41.84,37.72,37.72,0,0,0,14.12,14.27,40.09,40.09,0,0,0,39.28,0Z" transform="translate(-38.42 -45.67)"/></svg>