<?xml version="1.0" encoding="utf-8"?>
<!-- Generator: Adobe Illustrator 24.1.2, SVG Export Plug-In . SVG Version: 6.00 Build 0)  -->
<svg version="1.1" id="Слой_1" xmlns="http://www.w3.org/2000/svg" xmlns:xlink="http://www.w3.org/1999/xlink" x="0px" y="0px"
	 viewBox="0 0 147.4 129.4" style="enable-background:new 0 0 147.4 129.4;" xml:space="preserve">
<style type="text/css">
	.st0{opacity:0.11;fill:#3B9CD0;enable-background:new    ;}
	.st1{fill:#057BE9;}
</style>
<path class="st0" d="M86.5,124.7C54,132.7,21,134,9,101.4c-9.4-25.5-9.3-56.9,12.2-77.2c6.7-6.2,14.6-10.9,23.2-13.9
	c4.4-1.6,9.3-3.2,14.4-4.6c8.8-2.5,17.8-4.2,26.9-5.2C89.8,0.1,94-0.1,98.2,0c17.9,0.4,33.5,6.4,39.5,22.6
	C149.7,55.2,152.2,108.6,86.5,124.7z"/>
<g>
	<g>
		<path class="st1" d="M25.8,105.3c-0.9,0-1.7-0.5-2.1-1.3L1.9,55c-0.4-0.8-0.2-1.7,0.4-2.4c0.4-0.5,1.1-0.8,1.7-0.8
			c0.2,0,0.4,0,0.6,0.1l41.9,11.3l25.3-38L72,25l0-0.1c0.4-0.5,1-0.8,1.7-0.8c0.8,0,1.5,0.4,1.9,1L101,63.2l41.9-11.3
			c0.2-0.1,0.4-0.1,0.6-0.1c0.7,0,1.3,0.3,1.7,0.8c0.6,0.7,0.7,1.6,0.4,2.4l-21.8,49c-0.4,0.8-1.2,1.3-2,1.3
			C121.1,105.3,26.7,105.3,25.8,105.3L25.8,105.3z M33.6,100.8h80.2L73.7,75.6L33.6,100.8z M26.8,99.8l41.4-26L8,57.5L26.8,99.8z
			 M79.3,73.7l41.4,26l18.8-42.3L79.3,73.7z M51.1,64.5L71.5,70V33.8L51.1,64.5z M76,70l20.4-5.5L76,33.8V70z"/>
	</g>
</g>
</svg>
