<svg id="Слой_1" data-name="Слой 1" xmlns="http://www.w3.org/2000/svg" viewBox="0 0 144.07 129.5"><defs><style>.cls-1,.cls-2{fill:#fff;}.cls-1{opacity:0.11;isolation:isolate;}</style></defs><path class="cls-1" d="M86.5,124.7C54,132.7,21,134,9,101.4-.4,75.9-.3,44.5,21.2,24.2A66.21,66.21,0,0,1,44.4,10.3c4.4-1.6,9.3-3.2,14.4-4.6A163.86,163.86,0,0,1,85.7.5,103.68,103.68,0,0,1,98.2,0c17.9.4,33.5,6.4,39.5,22.6C149.7,55.2,152.2,108.6,86.5,124.7Z" transform="translate(-1.69 0.03)"/><path class="cls-2" d="M25.8,105.3a2.33,2.33,0,0,1-2.1-1.3L1.9,55a2.16,2.16,0,0,1,.4-2.4A2.29,2.29,0,0,1,4,51.8a1.27,1.27,0,0,1,.6.1L46.5,63.2l25.3-38L72,25v-.1a2.14,2.14,0,0,1,1.7-.8,2.28,2.28,0,0,1,1.9,1L101,63.2l41.9-11.3a1.27,1.27,0,0,1,.6-.1,2.14,2.14,0,0,1,1.7.8,2.35,2.35,0,0,1,.4,2.4l-21.8,49a2.3,2.3,0,0,1-2,1.3Zm7.8-4.5h80.2L73.7,75.6Zm-6.8-1,41.4-26L8,57.5ZM79.3,73.7l41.4,26,18.8-42.3ZM51.1,64.5,71.5,70V33.8ZM76,70l20.4-5.5L76,33.8Z" transform="translate(-1.69 0.03)"/></svg>