<svg id="Слой_1" data-name="Слой 1" xmlns="http://www.w3.org/2000/svg" viewBox="0 0 648.55 618.67"><defs><style>.cls-1{fill:#fed42d;}</style></defs><title>star</title><path class="cls-1" d="M913.64,487.18a19,19,0,0,0-15.34-12.94L697.25,445,607.34,262.84a19,19,0,0,0-34.08,0L483.34,445l-201,29.21a19,19,0,0,0-10.53,32.42l145.48,141.8L382.9,848.71a19,19,0,0,0,27.57,20L590.3,774.19l179.82,94.55a19,19,0,0,0,27.57-20L763.34,648.46l145.49-141.8a19,19,0,0,0,4.81-19.48Zm0,0" transform="translate(-266.02 -252.25)"/></svg>