<svg id="Слой_1" data-name="Слой 1" xmlns="http://www.w3.org/2000/svg" viewBox="0 0 687.05 655.39"><defs><style>.cls-1{fill:#fed42d;}</style></defs><title>star-empty</title><path class="cls-1" d="M927.58,482.88a20.13,20.13,0,0,0-16.25-13.7l-213-30.95-95.25-193a20.13,20.13,0,0,0-36.1,0l-95.26,193-213,30.95a20.13,20.13,0,0,0-11.16,34.33L401.71,653.75,365.33,865.87a20.13,20.13,0,0,0,29.21,21.22L585,786.94,775.53,887.09a20.13,20.13,0,0,0,29.21-21.22L768.35,653.75,922.48,503.52A20.15,20.15,0,0,0,927.58,482.88ZM732.68,632.3a20.12,20.12,0,0,0-5.79,17.82l31.28,182.36-163.76-86.1a20.16,20.16,0,0,0-18.74,0L411.9,832.48l31.27-182.36a20.15,20.15,0,0,0-5.78-17.82L304.9,503.16,488,476.55a20.12,20.12,0,0,0,15.16-11L585,299.62l81.88,165.92a20.14,20.14,0,0,0,15.16,11l183.09,26.6Z" transform="translate(-241.51 -234.01)"/></svg>