<svg id="Слой_1" data-name="Слой 1" xmlns="http://www.w3.org/2000/svg" viewBox="0 0 324.98 324.98"><defs><style>.cls-1{fill:#fff;}.cls-2{fill:#057be9;}</style></defs><path class="cls-1" d="M628.22,539.3s-36.61,15-47.44,19.7L471.33,604.11c-19.23,7.47-7.94,14.57-7.94,14.57s16.44,5.6,30.54,9.9,21.57-.47,21.57-.47l66.21-44.64c23.44-16,17.84-2.8,12.24,2.8-12.24,12.24-32.41,31.47-49.31,47-7.47,6.53-3.74,12.23-.47,15,12.24,10.37,45.57,31.47,47.44,32.87,2.34,1.87,15.5,10.37,23.44,8.41s9-12.7,9-12.7l11.76-73.78c3.74-24.93,7.47-47.9,7.94-54.44C645.12,532.76,628.22,539.3,628.22,539.3Z" transform="translate(-403.72 -443.02)"/><path class="cls-2" d="M566.21,443A162.49,162.49,0,1,0,728.7,605.51h0A162.48,162.48,0,0,0,566.21,443Zm77.51,105.71c-.47,6.54-4.2,29.6-7.94,54.45L624,677s-.94,10.83-9,12.7-21.1-6.54-23.44-8.4c-1.87-1.41-35.2-22.51-47.44-32.88-3.27-2.8-7-8.49.47-15,16.9-15.5,37.07-34.74,49.31-47,5.6-5.61,11.3-18.77-12.24-2.81L515.5,628.2s-7.47,4.67-21.57.47-30.54-9.9-30.54-9.9-11.29-7,7.94-14.57l109.45-45.1c10.83-4.67,47.44-19.71,47.44-19.71s16.9-6.63,15.5,9.34Z" transform="translate(-403.72 -443.02)"/></svg>