<svg id="Слой_1" data-name="Слой 1" xmlns="http://www.w3.org/2000/svg" viewBox="0 0 157.43 170.67"><defs><style>.cls-1{fill:#3b9cd0;opacity:0.11;}.cls-2{fill:#057be9;}</style></defs><path class="cls-1" d="M462.11,574.42c-11.1-13.3-8.47-29.76.09-45.52a102.82,102.82,0,0,1,6.69-10.64,157.8,157.8,0,0,1,17.9-20.72c3.77-3.71,7.57-7.13,11.21-10.16a67.14,67.14,0,0,1,23.65-13.16c28.24-8.51,55.53,7.1,72.93,27.95,22.26,26.67,4.63,54.63-18.48,78.78C529.32,629.83,484.37,601.09,462.11,574.42Z" transform="translate(-454.75 -456.48)"/><path class="cls-2" d="M540.21,627.15a72,72,0,0,1-6.65-143.65,1,1,0,0,0,.91-1V469a1,1,0,0,0-1-1H527a5.74,5.74,0,1,1,0-11.47h26.49a5.74,5.74,0,1,1,0,11.47h-6.51a1,1,0,0,0-1,1v13.56a1,1,0,0,0,.91,1,71.2,71.2,0,0,1,39.33,16.3,1.05,1.05,0,0,0,.65.23,1,1,0,0,0,.7-.3L594.3,493a5.74,5.74,0,0,1,8.11,8.12l-6.77,6.77a1,1,0,0,0-.06,1.34,71,71,0,0,1,16.6,46A72.06,72.06,0,0,1,540.21,627.15Zm0-132.48a60.5,60.5,0,1,0,60.5,60.5A60.57,60.57,0,0,0,540.21,494.67Zm.63,66.84a5.7,5.7,0,0,1-4.55-2.24l-22.81-29.66a5.74,5.74,0,0,1,9.1-7l22.8,29.66a5.73,5.73,0,0,1-1,8A5.67,5.67,0,0,1,540.84,561.51Z" transform="translate(-454.75 -456.48)"/></svg>