<svg id="Слой_1" data-name="Слой 1" xmlns="http://www.w3.org/2000/svg" viewBox="0 0 364.02 349.38"><defs><style>.cls-1{fill:#fff;}</style></defs><path class="cls-1" d="M357.84,0H6.22A6.2,6.2,0,0,0,0,6.19v73.5A6.2,6.2,0,0,0,6.2,85.9l351.64,0a6.2,6.2,0,0,0,6.2-6.19V6.19A6.2,6.2,0,0,0,357.84,0Zm-6.19,73.51H12.39V12.39H351.65Z" transform="translate(-0.02)"/><path class="cls-1" d="M318.18,59.75l.61-.31,6.32,6.32a6.17,6.17,0,0,0,4.39,1.82h0A6.2,6.2,0,0,0,333.88,57l-6.33-6.32.31-.62a21.89,21.89,0,1,0-9.68,9.69Zm-9.86-29.06a9.49,9.49,0,1,1-9.49,9.49A9.4,9.4,0,0,1,308.32,30.69Z" transform="translate(-0.02)"/><path class="cls-1" d="M66.33,189.22l30.81,35.67L86.69,238.83h15.49l14.68-19.57H152a6.2,6.2,0,0,0,0-12.4H126.12l6.44-8.58h45.83l30.39,40.51h9v-8.7l-57.35-76.4a6.19,6.19,0,0,0-8.67-1.24,6.07,6.07,0,0,0-1.24,1.24l-45.8,61.06L71,175.69a6.19,6.19,0,0,0-8.73-.65,6.65,6.65,0,0,0-.65.65l-48.29,55.9v7.24H23.48Zm89.15-21.48,13.61,18.16H141.86Z" transform="translate(-0.02)"/><path class="cls-1" d="M7,251.38H224a6.19,6.19,0,0,0,6.19-6.19v-141A6.19,6.19,0,0,0,224,98H7a6.2,6.2,0,0,0-6.19,6.19v141A6.2,6.2,0,0,0,7,251.38Zm6.28-12.52V110.39H217.87V230.26l-.07-.1v8.64h.28l-.06,0H208.8l.07.09H13.3Z" transform="translate(-0.02)"/><path class="cls-1" d="M97.43,169.13a24.32,24.32,0,1,0-24.32-24.32A24.36,24.36,0,0,0,97.43,169.13Zm0-36.24a11.94,11.94,0,0,1,11.92,11.92v0a11.93,11.93,0,1,1-11.92-11.94Z" transform="translate(-0.02)"/><path class="cls-1" d="M357.84,98H248a6.2,6.2,0,0,0-6.2,6.19V245.13a6.22,6.22,0,0,0,6.2,6.2H357.84a6.22,6.22,0,0,0,6.2-6.2V104.19A6.2,6.2,0,0,0,357.84,98Zm-6.17,140.94H254.21l0-128.55h97.48Z" transform="translate(-0.02)"/><path class="cls-1" d="M271.79,136.45H334a6.2,6.2,0,0,0,0-12.39H271.79a4.17,4.17,0,0,0-.5,0,6.2,6.2,0,0,0,.5,12.39Z" transform="translate(-0.02)"/><path class="cls-1" d="M271.79,165.14H334a6.2,6.2,0,0,0,0-12.39H271.29a6.2,6.2,0,0,0,.5,12.39Z" transform="translate(-0.02)"/><path class="cls-1" d="M271.79,193.82H334a6.2,6.2,0,0,0,0-12.39H271.79a4.17,4.17,0,0,0-.5,0,6.2,6.2,0,0,0,.5,12.39Z" transform="translate(-0.02)"/><path class="cls-1" d="M116.89,263.37H7a6.2,6.2,0,0,0-6.19,6.2v73.62A6.2,6.2,0,0,0,7,349.38H116.89a6.2,6.2,0,0,0,6.19-6.19V269.57A6.2,6.2,0,0,0,116.89,263.37ZM110.67,337H13.22l0-61.22h97.43Z" transform="translate(-0.02)"/><path class="cls-1" d="M357.8,263.37h-216a6.22,6.22,0,0,0-6.2,6.2v73.62a6.2,6.2,0,0,0,6.2,6.19h216a6.2,6.2,0,0,0,6.2-6.19V269.57A6.22,6.22,0,0,0,357.8,263.37ZM351.65,337H148V275.77H351.65Z" transform="translate(-0.02)"/><path class="cls-1" d="M271.79,221.21H334a6.2,6.2,0,0,0,0-12.39H271.29a6.2,6.2,0,0,0,.5,12.39Z" transform="translate(-0.02)"/><path class="cls-1" d="M201.6,319.17a12.06,12.06,0,0,0,6.16,1.52,11.79,11.79,0,0,0,6.19-1.58,10.75,10.75,0,0,0,4.1-4.48,14.5,14.5,0,0,0,1.42-6.57V290.45a.36.36,0,0,0-.36-.36h-5.47a.36.36,0,0,0-.36.36v17.93a7,7,0,0,1-1.45,4.66,5.66,5.66,0,0,1-8.14,0,7,7,0,0,1-1.45-4.65V290.45a.36.36,0,0,0-.36-.36H196.4a.36.36,0,0,0-.36.36V308a14.77,14.77,0,0,0,1.45,6.73A10.33,10.33,0,0,0,201.6,319.17Z" transform="translate(-0.02)"/><path class="cls-1" d="M222.4,319.5l.31.56,7.17-.18,5.44-9a.92.92,0,0,1,.78-.44.91.91,0,0,1,.78.44l5.71,9.21,7.13-.17a.5.5,0,0,1,.29-.2,1,1,0,0,1-.33-.32l-9.09-14.46a.91.91,0,0,1,0-1L249,290.65l-.3-.55-7.18.18-4.71,8a.9.9,0,0,1-.78.45.91.91,0,0,1-.78-.44l-5-8.16h-6.83l-.31.56,8.4,13.22a1,1,0,0,1,0,1Z" transform="translate(-0.02)"/><path class="cls-1" d="M256.82,320.06l.34-.22,12.12-29.25-.33-.5-5.61.22-12,28.92a1.07,1.07,0,0,1-.36.43,1.26,1.26,0,0,1,.56.4Z" transform="translate(-0.02)"/><path class="cls-1" d="M278.22,319.17a12.06,12.06,0,0,0,6.16,1.52,11.88,11.88,0,0,0,6.19-1.58,10.75,10.75,0,0,0,4.1-4.48,14.76,14.76,0,0,0,1.42-6.57V290.45a.36.36,0,0,0-.36-.36h-5.47a.36.36,0,0,0-.36.36v17.93a7,7,0,0,1-1.46,4.65l-.16.16a5.64,5.64,0,0,1-8-.16,7,7,0,0,1-1.45-4.65V290.45a.36.36,0,0,0-.36-.36H273a.36.36,0,0,0-.36.36V308a14.64,14.64,0,0,0,1.45,6.73A10.33,10.33,0,0,0,278.22,319.17Z" transform="translate(-0.02)"/><rect class="cls-1" x="301.51" y="290.09" width="6.24" height="29.97" rx="0.36"/></svg>