<?xml version="1.0" encoding="utf-8"?>
<!-- Generator: Adobe Illustrator 24.1.2, SVG Export Plug-In . SVG Version: 6.00 Build 0)  -->
<svg version="1.1" id="Слой_1" xmlns="http://www.w3.org/2000/svg" xmlns:xlink="http://www.w3.org/1999/xlink" x="0px" y="0px"
	 viewBox="0 0 364 349.4" style="enable-background:new 0 0 364 349.4;" xml:space="preserve">
<style type="text/css">
	.st0{fill:#057BE9;}
</style>
<g>
	<path class="st0" d="M357.8,0H6.2C2.8,0,0,2.8,0,6.2v73.5c0,3.4,2.8,6.2,6.2,6.2l351.6,0c3.4,0,6.2-2.8,6.2-6.2V6.2
		C364,2.8,361.3,0,357.8,0z M351.7,73.5H12.4V12.4h339.3V73.5z"/>
	<path class="st0" d="M318.2,59.8l0.6-0.3l6.3,6.3c1.2,1.2,2.7,1.8,4.4,1.8v0c1.6,0,3.2-0.7,4.4-1.8c2.4-2.4,2.4-6.3,0-8.8l-6.3-6.3
		l0.3-0.6c3.1-6.2,3.1-13.5,0-19.7c-5.5-10.8-18.6-15.1-29.4-9.7c-10.8,5.5-15.1,18.6-9.7,29.4C294.2,60.9,307.4,65.2,318.2,59.8z
		 M308.3,30.7c2.5,0,4.9,1,6.7,2.8c1.8,1.8,2.8,4.2,2.8,6.7c0,5.2-4.2,9.5-9.5,9.5c-5.2,0-9.5-4.2-9.5-9.5
		C298.8,34.9,303.1,30.7,308.3,30.7z"/>
	<path class="st0" d="M66.3,189.2l30.8,35.7l-10.5,13.9h15.5l14.7-19.6H152c3.4,0,6.2-2.8,6.2-6.2s-2.8-6.2-6.2-6.2h-25.9l6.4-8.6
		h45.8l30.4,40.5h9v-8.7l-57.4-76.4c-2-2.7-5.9-3.3-8.7-1.2c-0.5,0.4-0.9,0.8-1.2,1.2l-45.8,61.1L71,175.7c-2.2-2.6-6.1-2.9-8.7-0.7
		c-0.2,0.2-0.4,0.4-0.7,0.7l-48.3,55.9v7.2h10.1L66.3,189.2z M155.5,167.7l13.6,18.2h-27.2L155.5,167.7z"/>
	<path class="st0" d="M7,251.4h217c3.4,0,6.2-2.8,6.2-6.2v-141c0-3.4-2.8-6.2-6.2-6.2H7c-3.4,0-6.2,2.8-6.2,6.2v141
		C0.8,248.6,3.6,251.4,7,251.4z M13.3,238.9v-7.2V110.4h204.6v119.9l-0.1-0.1v8.6h0.3l-0.1,0h-0.3h-8.9l0.1,0.1H102.1H86.6H23.4h0
		L13.3,238.9L13.3,238.9z"/>
	<path class="st0" d="M97.4,169.1c13.4,0,24.3-10.9,24.3-24.3c0-13.4-10.9-24.3-24.3-24.3c-13.4,0-24.3,10.9-24.3,24.3
		C73.1,158.2,84,169.1,97.4,169.1z M97.4,132.9c6.6,0,11.9,5.3,11.9,11.9c0,0,0,0,0,0c0,6.6-5.4,11.9-11.9,11.9s-11.9-5.4-11.9-11.9
		C85.5,138.2,90.8,132.9,97.4,132.9z"/>
	<path class="st0" d="M357.8,98H248c-3.4,0-6.2,2.8-6.2,6.2v140.9c0,3.4,2.8,6.2,6.2,6.2h109.8c3.4,0,6.2-2.8,6.2-6.2V104.2
		C364,100.8,361.3,98,357.8,98z M351.7,238.9h-97.5l0-128.5h97.5V238.9z"/>
	<path class="st0" d="M271.8,136.5H334c3.2-0.1,5.8-2.7,5.9-5.9c0.1-3.4-2.5-6.3-5.9-6.4h-62.2c-0.2,0-0.3,0-0.5,0
		c-3.4,0.1-6.1,3-5.9,6.4C265.5,133.9,268.4,136.6,271.8,136.5z"/>
	<path class="st0" d="M271.8,165.1H334c3.2-0.1,5.8-2.7,5.9-5.9c0.1-3.4-2.5-6.3-5.9-6.4h-62.2c-0.2,0-0.3,0-0.5,0
		c-3.4,0.1-6.1,3-5.9,6.4C265.5,162.6,268.4,165.3,271.8,165.1z"/>
	<path class="st0" d="M271.8,193.8H334c3.2-0.1,5.8-2.7,5.9-5.9c0.1-3.4-2.5-6.3-5.9-6.4h-62.2c-0.2,0-0.3,0-0.5,0
		c-3.4,0.1-6.1,3-5.9,6.4C265.5,191.3,268.4,194,271.8,193.8z"/>
	<path class="st0" d="M116.9,263.4H7c-3.4,0-6.2,2.8-6.2,6.2v73.6c0,3.4,2.8,6.2,6.2,6.2h109.9c3.4,0,6.2-2.8,6.2-6.2v-73.6
		C123.1,266.1,120.3,263.4,116.9,263.4z M110.7,337H13.2l0-61.2h97.4V337z"/>
	<path class="st0" d="M357.8,263.4h-216c-3.4,0-6.2,2.8-6.2,6.2v73.6c0,3.4,2.8,6.2,6.2,6.2h216c3.4,0,6.2-2.8,6.2-6.2v-73.6
		C364,266.1,361.2,263.4,357.8,263.4z M351.7,337H148v-61.2h203.6V337z"/>
	<path class="st0" d="M271.8,221.2H334c3.2-0.1,5.8-2.7,5.9-5.9c0.1-3.4-2.5-6.3-5.9-6.4h-62.2c-0.2,0-0.3,0-0.5,0
		c-3.4,0.1-6.1,3-5.9,6.4C265.5,218.7,268.4,221.3,271.8,221.2z"/>
	<path class="st0" d="M201.6,319.2c1.9,1,4,1.6,6.2,1.5c2.2,0.1,4.3-0.5,6.2-1.6c1.8-1.1,3.2-2.6,4.1-4.5c1-2,1.5-4.3,1.4-6.6v-17.6
		c0-0.2-0.2-0.4-0.4-0.4h-5.5c-0.2,0-0.4,0.2-0.4,0.4v17.9c0.1,1.7-0.4,3.3-1.5,4.7c-1,1.2-2.5,1.8-4.1,1.7
		c-1.6,0.1-3.1-0.6-4.1-1.7c-1-1.3-1.5-3-1.5-4.7v-17.9c0-0.2-0.2-0.4-0.4-0.4h-5.5c-0.2,0-0.4,0.2-0.4,0.4V308
		c-0.1,2.3,0.4,4.6,1.5,6.7C198.4,316.6,199.8,318.1,201.6,319.2z"/>
	<path class="st0" d="M222.4,319.5l0.3,0.6l7.2-0.2l5.4-9c0.2-0.3,0.5-0.4,0.8-0.4c0.3,0,0.6,0.2,0.8,0.4l5.7,9.2l7.1-0.2
		c0.1-0.1,0.2-0.2,0.3-0.2c-0.1-0.1-0.2-0.2-0.3-0.3l-9.1-14.5c-0.2-0.3-0.2-0.7,0-1l8.4-13.3l-0.3-0.5l-7.2,0.2l-4.7,8
		c-0.2,0.3-0.5,0.5-0.8,0.5c-0.3,0-0.6-0.2-0.8-0.4l-5-8.2h-6.8l-0.3,0.6l8.4,13.2c0.2,0.3,0.2,0.7,0,1L222.4,319.5z"/>
	<path class="st0" d="M256.8,320.1l0.3-0.2l12.1-29.3l-0.3-0.5l-5.6,0.2l-12,28.9c-0.1,0.2-0.2,0.3-0.4,0.4c0.2,0.1,0.4,0.2,0.6,0.4
		H256.8z"/>
	<path class="st0" d="M278.2,319.2c1.9,1,4,1.6,6.2,1.5c2.2,0,4.3-0.5,6.2-1.6c1.8-1.1,3.2-2.6,4.1-4.5c1-2.1,1.5-4.3,1.4-6.6v-17.6
		c0-0.2-0.2-0.4-0.4-0.4h-5.5c-0.2,0-0.4,0.2-0.4,0.4v17.9c0.1,1.7-0.4,3.3-1.5,4.7c-0.1,0.1-0.1,0.1-0.2,0.2
		c-2.2,2.2-5.8,2.1-8-0.2c-1-1.3-1.5-3-1.5-4.7v-17.9c0-0.2-0.2-0.4-0.4-0.4H273c-0.2,0-0.4,0.2-0.4,0.4V308
		c-0.1,2.3,0.4,4.6,1.5,6.7C275,316.6,276.4,318.1,278.2,319.2z"/>
	<path class="st0" d="M301.9,320.1h5.5c0.2,0,0.4-0.2,0.4-0.4v-29.3c0-0.2-0.2-0.4-0.4-0.4h-5.5c-0.2,0-0.4,0.2-0.4,0.4v29.3
		C301.5,319.9,301.7,320.1,301.9,320.1z"/>
</g>
</svg>
