<svg id="Слой_1" data-name="Слой 1" xmlns="http://www.w3.org/2000/svg" viewBox="0 0 360.62 360.62"><defs><style>.cls-1{fill:#fff;}.cls-2{fill:#057be9;}</style></defs><path class="cls-1" d="M670.45,625.81c-.66-1.1-4.6-9.64-23.51-27.23-19.86-18.4-17.15-15.41,6.72-47.24C668.18,532,674,520.1,672.2,515.06c-1.75-4.81-12.41-3.57-12.41-3.57l-35.63.22a7.72,7.72,0,0,0-4.59.8,10.26,10.26,0,0,0-3.14,3.79A201.56,201.56,0,0,1,603.29,544c-15.84,26.94-22.2,28.33-24.82,26.65-6.06-3.87-4.53-15.7-4.53-24,0-26.06,3.94-36.94-7.67-39.78-3.86-.95-6.71-1.54-16.64-1.68-12.7-.15-23.43,0-29.56,3-4,2-7.16,6.43-5.26,6.64,2.34.3,7.66,1.46,10.51,5.33,3.65,5,3.51,16.06,3.51,16.06s2.11,30.74-4.9,34.53c-4.81,2.63-11.38-2.77-25.55-27.15a219.58,219.58,0,0,1-12.7-26.36,10.45,10.45,0,0,0-2.92-3.94,15.05,15.05,0,0,0-5.47-2.19l-33.8.22s-5.11.15-6.94,2.34c-1.68,2-.14,6.06-.14,6.06s26.5,62,56.5,93.22c27.52,28.61,58.76,26.79,58.76,26.79h14.17s4.23-.51,6.42-2.85c2-2.19,2-6.2,2-6.2s-.29-19,8.54-21.76,19.86,18.33,31.69,26.5c9,6.13,15.76,4.82,15.76,4.82l31.61-.44C661.76,639.82,678.26,638.8,670.45,625.81Z" transform="translate(-378.08 -380.38)"/><path class="cls-2" d="M558.39,380.38c-99.57,0-180.31,80.74-180.31,180.31S458.82,741,558.39,741,738.7,660.26,738.7,560.69,658,380.38,558.39,380.38ZM661.76,639.82l-31.61.44s-6.79,1.31-15.77-4.82c-11.82-8.1-23-29.2-31.68-26.5s-8.54,21.83-8.54,21.83.07,4-2,6.2c-2.19,2.34-6.43,2.85-6.43,2.85H551.6s-31.24,1.9-58.76-26.79c-30-31.24-56.43-93.22-56.43-93.22s-1.54-4.09.14-6.06c1.9-2.19,6.94-2.34,6.94-2.34l33.8-.22a15.05,15.05,0,0,1,5.47,2.19,11.07,11.07,0,0,1,2.92,4,225.45,225.45,0,0,0,12.7,26.35c14.17,24.45,20.74,29.78,25.55,27.16,7-3.8,4.9-34.53,4.9-34.53s.14-11.17-3.51-16.06c-2.85-3.87-8.17-5-10.51-5.33-1.9-.29,1.24-4.67,5.26-6.65,6.13-3,16.86-3.13,29.56-3,9.86.07,12.78.73,16.64,1.68,11.68,2.85,7.67,13.72,7.67,39.79,0,8.32-1.53,20.07,4.53,24,2.55,1.68,8.9.22,24.82-26.64a206.45,206.45,0,0,0,13.14-27.74,9.74,9.74,0,0,1,3.14-3.8,7.61,7.61,0,0,1,4.59-.8l35.63-.22s10.73-1.31,12.41,3.58c1.82,5.11-4,16.93-18.54,36.28-23.87,31.83-26.5,28.83-6.72,47.23,19,17.59,22.85,26.13,23.51,27.23C678.26,638.8,661.76,639.82,661.76,639.82Z" transform="translate(-378.08 -380.38)"/></svg>