<svg id="Слой_1" data-name="Слой 1" xmlns="http://www.w3.org/2000/svg" viewBox="0 0 367.53 367.63"><defs><style>.cls-1{fill:#fff;}.cls-2{fill:#057be9;}</style></defs><path class="cls-1" d="M652.82,619.21c-5.39-2.65-31.69-15.7-36.6-17.4s-9.56-1.23-13.15,4c-5.2,7.29-10.21,14.57-14.38,19-3.21,3.41-8.51,3.88-13,2.08-6-2.46-22.61-8.32-43.13-26.57-15.89-14.19-26.67-31.78-29.79-37.08s-.29-8.51,2.17-11.44c2.74-3.31,5.3-5.77,8-8.89s4.26-4.73,6-8.42.57-7.19-.76-9.93-12.29-29.13-16.74-39.82c-3.59-8.51-6.24-8.89-11.63-9.08-1.89-.09-3.88-.19-6.15-.19-7,0-14.37,2.08-18.82,6.62-5.39,5.49-18.82,18.35-18.82,44.74s19.2,51.92,21.85,55.42,37.54,58.45,91.55,80.87c42.28,17.49,54.76,15.89,64.41,13.81,14-3,31.68-13.43,36.13-25.92s4.44-23.27,3.12-25.54S658.21,622,652.82,619.21Z" transform="translate(-369.08 -391.37)"/><path class="cls-2" d="M552.94,391.37h0c-101.38,0-183.86,82.48-183.86,183.86a183,183,0,0,0,35,107.73l-23,68.28,70.65-22.6A182.35,182.35,0,0,0,552.85,759c101.39,0,183.76-82.47,183.76-183.86S654.33,391.37,552.94,391.37ZM659.91,651c-4.44,12.49-22,22.89-36.13,25.92-9.64,2.08-22.13,3.68-64.41-13.81-54-22.42-88.8-77.27-91.55-80.87S446,553.2,446,526.81s13.43-39.25,18.82-44.74c4.44-4.54,11.72-6.62,18.82-6.62,2.27,0,4.35.1,6.14.19,5.4.19,8.14.57,11.64,9.08,4.44,10.69,15.23,37.08,16.55,39.82s2.65,6.43.76,9.93a39.35,39.35,0,0,1-6,8.42c-2.75,3.12-5.3,5.48-8,8.89-2.46,2.93-5.3,6.05-2.18,11.44s13.91,22.89,29.8,37.08c20.52,18.25,37.16,24.11,43.12,26.57,4.45,1.9,9.74,1.42,13-2.08,4.07-4.44,9.17-11.82,14.38-19,3.68-5.2,8.32-5.86,13.14-4s31.21,14.66,36.6,17.4,9,4,10.31,6.24S664.36,638.41,659.91,651Z" transform="translate(-369.08 -391.37)"/></svg>