<svg id="Слой_1" data-name="Слой 1" xmlns="http://www.w3.org/2000/svg" viewBox="0 0 151.77 151.77"><defs><style>.cls-1{fill:#057be9;}</style></defs><path class="cls-1" d="M540.3,227.74a75.89,75.89,0,1,0,75.88,75.89A75.89,75.89,0,0,0,540.3,227.74Zm-10.92,61.8a51.11,51.11,0,0,0-5.31-1.67,19.35,19.35,0,0,0-4.61-.52,13.09,13.09,0,0,0-10.74,4.9,19.11,19.11,0,0,0-4,12.39v29.65H489.47l0-59.53h14.35v7.95h.93a17.61,17.61,0,0,1,6.92-7A20,20,0,0,1,521.92,273a21.1,21.1,0,0,1,7.46,1.28Zm61.77,18.2a30.12,30.12,0,0,1-2.24,12,21.08,21.08,0,0,1-6.13,8.31,27.62,27.62,0,0,1-8.82,4.7,34.57,34.57,0,0,1-10.58,1.58,37.26,37.26,0,0,1-8.57-1,27.91,27.91,0,0,1-7.61-3.06,23.6,23.6,0,0,1-6.11-5.15,22.6,22.6,0,0,1-4.06-7.5,31.41,31.41,0,0,1-1.48-9.87V274.4h15.36v31.93c0,4.61,1.15,8.09,3.41,10.33a13.88,13.88,0,0,0,18.13,0c2.26-2.24,3.41-5.72,3.41-10.33V274.4h15.29Z" transform="translate(-464.41 -227.74)"/></svg>